<svg width="504" height="396" viewBox="0 0 504 396" fill="none" xmlns="http://www.w3.org/2000/svg">
<g id="hero-illustration">
<g id="computer">
<g id="monitor2" opacity="0.5">
<g id="g1377" opacity="0.5">
<path id="path1375" opacity="0.5" fill-rule="evenodd" clip-rule="evenodd" d="M303.152 112.828H72.162C67.2917 112.828 63.4651 116.771 63.4651 121.525V271.924C63.4651 276.794 67.4077 280.621 72.162 280.621H303.036C307.907 280.621 311.733 276.678 311.733 271.924V121.641C311.849 116.771 307.907 112.828 303.152 112.828ZM297.47 258.473H78.5398V127.091H297.47V258.473Z" fill="#3F434F"/>
</g>
<g id="g1381" opacity="0.5">
<path id="rect1379" opacity="0.5" d="M226.272 294.072H149.043V304.16H226.272V294.072Z" fill="#3F434F"/>
</g>
<g id="g1385" opacity="0.5">
<path id="path1383" opacity="0.5" fill-rule="evenodd" clip-rule="evenodd" d="M78.5398 258.473H297.47V127.091H78.5398V258.473ZM123.184 136.6C125.387 136.6 127.243 138.339 127.243 140.658C127.243 142.861 125.503 144.717 123.184 144.717C120.981 144.717 119.125 142.977 119.125 140.658C119.125 138.455 120.981 136.6 123.184 136.6ZM109.733 136.6C111.936 136.6 113.791 138.339 113.791 140.658C113.791 142.861 112.052 144.717 109.733 144.717C107.53 144.717 105.674 142.977 105.674 140.658C105.79 138.455 107.53 136.6 109.733 136.6ZM96.3975 136.6C98.6007 136.6 100.456 138.339 100.456 140.658C100.456 142.861 98.7167 144.717 96.3975 144.717C94.1943 144.717 92.3389 142.977 92.3389 140.658C92.3389 138.455 94.1943 136.6 96.3975 136.6Z" fill="#5B6D83"/>
</g>
<g id="g1389" opacity="0.5">
<path id="path1387" opacity="0.5" fill-rule="evenodd" clip-rule="evenodd" d="M96.3973 144.717C98.6005 144.717 100.456 142.977 100.456 140.658C100.456 138.455 98.7165 136.6 96.3973 136.6C94.1941 136.6 92.3387 138.339 92.3387 140.658C92.3387 142.861 94.1941 144.717 96.3973 144.717Z" fill="#3F434F"/>
</g>
<g id="g1393" opacity="0.5">
<path id="path1391" opacity="0.5" fill-rule="evenodd" clip-rule="evenodd" d="M109.733 144.717C111.936 144.717 113.791 142.977 113.791 140.658C113.791 138.455 112.052 136.6 109.733 136.6C107.53 136.6 105.674 138.339 105.674 140.658C105.79 142.861 107.53 144.717 109.733 144.717Z" fill="#3F434F"/>
</g>
<g id="g1397" opacity="0.5">
<path id="path1395" opacity="0.5" fill-rule="evenodd" clip-rule="evenodd" d="M123.184 144.717C125.387 144.717 127.243 142.977 127.243 140.658C127.243 138.455 125.503 136.6 123.184 136.6C120.981 136.6 119.126 138.339 119.126 140.658C119.126 142.861 120.981 144.717 123.184 144.717Z" fill="#3F434F"/>
</g>
</g>
<g id="g1421" opacity="0.1">
<g id="g1403" opacity="0.1">
<path id="path1401" opacity="0.1" d="M360.784 41.0494C360.668 37.4547 357.769 34.6717 354.175 34.6717H177.569C173.858 34.6717 170.844 37.6866 170.844 41.3973V107.958H182.323V45.6878H349.652V60.7625L360.552 60.6465V41.0494H360.784Z" fill="#3F434F"/>
</g>
<g id="g1407" opacity="0.1">
<path id="path1405" opacity="0.1" d="M182.439 45.4559V107.726H224.184V61.9221L349.768 60.5306V45.4559H182.439ZM196.122 58.9072C194.383 58.9072 193.107 57.5157 193.107 55.8922C193.107 54.1529 194.499 52.8773 196.122 52.8773C197.862 52.8773 199.137 54.2688 199.137 55.8922C199.137 57.5157 197.862 58.9072 196.122 58.9072ZM206.327 58.9072C204.587 58.9072 203.312 57.5157 203.312 55.8922C203.312 54.1529 204.703 52.8773 206.327 52.8773C208.066 52.8773 209.342 54.2688 209.342 55.8922C209.458 57.5157 208.066 58.9072 206.327 58.9072ZM216.531 58.9072C214.792 58.9072 213.516 57.5157 213.516 55.8922C213.516 54.1529 214.908 52.8773 216.531 52.8773C218.271 52.8773 219.546 54.2688 219.546 55.8922C219.662 57.5157 218.271 58.9072 216.531 58.9072Z" fill="#5B6D83"/>
</g>
<g id="g1411" opacity="0.1">
<path id="path1409" opacity="0.1" d="M196.122 52.7613C194.383 52.7613 193.107 54.1528 193.107 55.7763C193.107 57.5156 194.499 58.7912 196.122 58.7912C197.862 58.7912 199.137 57.3997 199.137 55.7763C199.137 54.1528 197.862 52.7613 196.122 52.7613Z" fill="#3F434F"/>
</g>
<g id="g1415" opacity="0.1">
<path id="path1413" opacity="0.1" d="M206.327 52.7613C204.587 52.7613 203.312 54.1528 203.312 55.7763C203.312 57.5156 204.703 58.7912 206.327 58.7912C208.066 58.7912 209.342 57.3997 209.342 55.7763C209.458 54.1528 208.066 52.7613 206.327 52.7613Z" fill="#3F434F"/>
</g>
<g id="g1419" opacity="0.1">
<path id="path1417" opacity="0.1" d="M216.531 52.7613C214.792 52.7613 213.516 54.1528 213.516 55.7763C213.516 57.5156 214.908 58.7912 216.531 58.7912C218.27 58.7912 219.546 57.3997 219.546 55.7763C219.662 54.1528 218.27 52.7613 216.531 52.7613Z" fill="#3F434F"/>
</g>
</g>
<g id="clock" opacity="0.5">
<path id="clockCircle" opacity="0.5" fill-rule="evenodd" clip-rule="evenodd" d="M141.274 43.1368C141.274 19.2492 121.909 0 98.137 0C74.2494 0 55.0002 19.3652 55.0002 43.1368C55.0002 67.0243 74.3654 86.2735 98.137 86.2735C121.909 86.2735 141.274 67.0243 141.274 43.1368Z" fill="white"/>
<path id="longHand" opacity="0.5" d="M108.736 19.6646L106.358 18.7418L95.9143 45.6609L98.2926 46.5836L108.736 19.6646Z" fill="#FAFCFC"/>
<path id="shortHand" opacity="0.5" d="M79.5753 38.5908L78.8654 41.0411L97.9111 46.5595L98.6211 44.1092L79.5753 38.5908Z" fill="#FAFCFC"/>
<g id="points2" opacity="0.5">
<g id="g1445" opacity="0.5">
<g id="g1443" opacity="0.5">
<path id="path1441" opacity="0.5" fill-rule="evenodd" clip-rule="evenodd" d="M99.0646 5.45012C99.0646 4.63841 98.3688 3.82669 97.4412 3.82669C96.6295 3.82669 95.8177 4.52245 95.8177 5.45012C95.8177 6.26183 96.5135 7.07355 97.4412 7.07355C98.3688 6.95759 99.0646 6.26183 99.0646 5.45012Z" fill="#F27768"/>
</g>
</g>
<g id="g1451" opacity="0.5">
<g id="g1449" opacity="0.5">
<path id="path1447" opacity="0.5" fill-rule="evenodd" clip-rule="evenodd" d="M99.0646 78.8521C99.0646 77.9244 98.3688 77.2287 97.4412 77.2287C96.6295 77.2287 95.8177 77.9244 95.8177 78.8521C95.8177 79.6638 96.5135 80.4756 97.4412 80.4756C98.3688 80.4756 99.0646 79.7798 99.0646 78.8521Z" fill="#F27768"/>
</g>
</g>
</g>
<g id="points1" opacity="0.5">
<g id="g1459" opacity="0.5">
<g id="g1457" opacity="0.5">
<path id="path1455" opacity="0.5" fill-rule="evenodd" clip-rule="evenodd" d="M60.7983 40.5856C59.9866 40.5856 59.1749 41.2814 59.1749 42.2091C59.1749 43.0208 59.8707 43.8325 60.7983 43.8325C61.6101 43.8325 62.4218 43.1367 62.4218 42.2091C62.3058 41.2814 61.6101 40.5856 60.7983 40.5856Z" fill="#F27768"/>
</g>
</g>
<g id="g1465" opacity="0.5">
<g id="g1463" opacity="0.5">
<path id="path1461" opacity="0.5" fill-rule="evenodd" clip-rule="evenodd" d="M134.2 40.5856C133.389 40.5856 132.577 41.2814 132.577 42.209C132.577 43.0207 133.273 43.8325 134.2 43.8325C135.128 43.8325 135.824 43.1367 135.824 42.209C135.824 41.2814 135.128 40.5856 134.2 40.5856Z" fill="#F27768"/>
</g>
</g>
</g>
</g>
<g id="g1495" opacity="0.2">
<g id="g1473" opacity="0.2">
<path id="path1471" opacity="0.2" d="M470.481 66.3285H239.491C234.621 66.3285 230.794 70.2711 230.794 75.0254V107.03H245.869V80.4755H464.799V211.857H322.866V234.005H470.481C475.352 234.005 479.178 230.063 479.178 225.308V75.0254C479.178 70.2711 475.236 66.3285 470.481 66.3285Z" fill="#3F434F"/>
</g>
<g id="g1477" opacity="0.2">
<path id="rect1475" opacity="0.2" d="M393.6 247.572H322.865V257.661H393.6V247.572Z" fill="#3F434F"/>
</g>
<g id="g1481" opacity="0.2">
<path id="path1479" opacity="0.2" d="M464.799 80.5914H245.869V107.146H322.866V211.973H464.799V80.5914ZM263.726 98.1012C261.523 98.1012 259.668 96.3619 259.668 94.0427C259.668 91.8395 261.407 89.9841 263.726 89.9841C265.93 89.9841 267.785 91.7235 267.785 94.0427C267.785 96.3619 265.93 98.1012 263.726 98.1012ZM277.178 98.1012C274.974 98.1012 273.119 96.3619 273.119 94.0427C273.119 91.8395 274.859 89.9841 277.178 89.9841C279.381 89.9841 281.236 91.7235 281.236 94.0427C281.12 96.3619 279.381 98.1012 277.178 98.1012ZM290.513 98.1012C288.31 98.1012 286.454 96.3619 286.454 94.0427C286.454 91.8395 288.194 89.9841 290.513 89.9841C292.832 89.9841 294.572 91.7235 294.572 94.0427C294.456 96.3619 292.716 98.1012 290.513 98.1012Z" fill="#5B6D83"/>
</g>
<g id="g1485" opacity="0.2">
<path id="path1483" opacity="0.2" d="M263.726 90.1002C261.523 90.1002 259.668 91.8395 259.668 94.1587C259.668 96.3619 261.407 98.2173 263.726 98.2173C265.93 98.2173 267.785 96.4779 267.785 94.1587C267.785 91.8395 265.93 90.1002 263.726 90.1002Z" fill="#3F434F"/>
</g>
<g id="g1489" opacity="0.2">
<path id="path1487" opacity="0.2" d="M277.178 90.1002C274.974 90.1002 273.119 91.8395 273.119 94.1587C273.119 96.3619 274.859 98.2173 277.178 98.2173C279.381 98.2173 281.236 96.4779 281.236 94.1587C281.12 91.8395 279.381 90.1002 277.178 90.1002Z" fill="#3F434F"/>
</g>
<g id="g1493" opacity="0.2">
<path id="path1491" opacity="0.2" d="M290.513 90.1002C288.31 90.1002 286.455 91.8395 286.455 94.1587C286.455 96.3619 288.194 98.2173 290.513 98.2173C292.832 98.2173 294.572 96.4779 294.572 94.1587C294.456 91.8395 292.716 90.1002 290.513 90.1002Z" fill="#3F434F"/>
</g>
</g>
<path id="monitor" d="M156.117 339.992H386.991C391.861 339.992 395.688 336.049 395.688 331.295V180.896C395.688 176.026 391.745 172.199 386.991 172.199H156.117C151.246 172.199 147.42 176.142 147.42 180.896V331.295C147.304 336.165 151.246 339.992 156.117 339.992Z" fill="#3F434F"/>
<path id="rect1503" d="M310.11 353.443H232.881V363.532H310.11V353.443Z" fill="#3F434F"/>
<path id="screen" d="M381.309 186.462H162.378V317.844H381.309V186.462Z" fill="#5B6D83"/>
<path id="path1517" fill-rule="evenodd" clip-rule="evenodd" d="M378.526 328.512C378.526 325.381 375.975 322.83 372.844 322.83C369.713 322.83 367.162 325.381 367.162 328.512C367.162 331.643 369.713 334.194 372.844 334.194C375.975 334.194 378.526 331.527 378.526 328.512Z" fill="#303D4C"/>
<path id="mouse" d="M466.655 396H407.4C407.4 381.157 419.343 369.213 434.186 369.213H439.868C454.711 369.213 466.655 381.157 466.655 396Z" fill="#3F434F"/>
<path id="wire" d="M409.951 396H376.206C368.205 396 361.596 389.506 361.596 381.389V370.141C361.596 366.546 358.697 363.647 355.102 363.647H334.925V355.53H355.102C363.103 355.53 369.713 362.024 369.713 370.141V381.389C369.713 384.984 372.612 387.883 376.206 387.883H409.951V396Z" fill="#3F434F"/>
<path id="gear" fill-rule="evenodd" clip-rule="evenodd" d="M398.985 132.587C399.303 131.634 399.7 130.68 400.018 129.806C400.177 129.25 400.415 128.933 401.13 129.012C403.275 129.33 405.42 129.568 407.565 129.806C408.042 129.886 408.28 130.124 408.28 130.68C408.439 133.937 409.551 136.877 411.696 139.34C412.967 140.849 414.556 142.041 416.542 142.756C420.514 144.185 424.327 143.709 427.982 141.882C428.458 141.643 428.776 141.802 429.014 142.041C430.444 143.868 431.795 145.695 433.145 147.522C433.543 148.078 433.066 148.316 432.748 148.634C431.477 150.064 430.524 151.653 430.047 153.48C428.935 157.532 430.127 161.186 432.192 164.523C433.225 166.191 434.575 167.462 436.323 168.256C436.879 168.574 437.515 168.733 438.15 168.971C438.309 169.051 438.548 169.369 438.468 169.607C438.309 171.672 437.991 173.658 437.833 175.644C437.833 175.803 437.833 175.962 437.833 176.121C437.674 176.598 437.515 176.995 436.879 176.995C433.463 177.074 430.365 178.107 427.823 180.49C426.711 181.603 425.837 182.953 425.281 184.542C424.725 186.29 424.566 187.958 424.804 189.706C425.042 191.612 425.678 193.36 426.552 195.028C426.87 195.505 426.87 195.902 426.472 196.22C424.725 197.65 422.897 199 421.07 200.351C420.911 200.43 420.514 200.43 420.355 200.351C419.799 199.954 419.323 199.477 418.766 199.159C416.383 197.729 413.762 197.332 410.981 197.65C408.518 197.968 406.135 198.683 404.07 200.192C402.084 201.701 400.892 203.767 400.177 206.071C399.939 206.945 399.78 207.183 398.827 207.024C396.761 206.786 394.696 206.547 392.63 206.309C392.153 206.23 391.836 205.991 391.836 205.435C391.677 202.178 390.565 199.318 388.499 196.855C387.308 195.425 385.878 194.313 384.209 193.598C380.158 192.009 376.106 192.327 372.293 194.313C371.737 194.631 371.34 194.472 371.022 193.996C369.751 192.486 368.559 190.897 367.288 189.229C366.653 188.355 366.812 188.276 367.447 187.322C368.4 186.051 369.274 184.621 369.91 183.112C370.863 180.57 370.545 178.028 369.671 175.486C368.321 171.672 365.699 169.289 361.886 168.177C361.251 168.018 360.933 167.7 361.012 166.985C361.251 164.92 361.489 162.775 361.807 160.63C361.886 160.153 362.124 159.836 362.681 159.836C365.938 159.677 368.877 158.564 371.419 156.34C372.77 155.228 373.882 153.877 374.517 152.209C375.788 149.111 375.55 146.013 374.358 142.994C374.041 142.279 373.723 141.643 373.405 140.928C373.167 140.531 373.246 140.134 373.564 139.896C375.312 138.545 377.059 137.195 378.807 135.844C379.204 135.526 379.443 135.685 379.761 135.924C380.237 136.321 380.714 136.797 381.27 137.115C384.289 138.942 387.625 139.022 390.962 138.227C393.107 137.751 395.013 136.877 396.602 135.447C397.555 134.573 398.191 133.461 398.985 132.587ZM408.121 153.957C400.257 149.588 390.485 152.209 386.116 159.994C381.667 167.78 384.368 177.551 392.153 182C399.939 186.449 409.71 183.748 414.159 175.962C418.528 168.256 415.827 158.485 408.121 153.957Z" fill="#8E8E8E"/>
<g id="Group 7">
<path id="path1555" d="M184.294 200.029C184.294 197.826 182.555 195.971 180.236 195.971C178.033 195.971 176.177 197.71 176.177 200.029C176.177 202.233 177.917 204.088 180.236 204.088C182.555 203.972 184.294 202.233 184.294 200.029Z" fill="#FEFEFF"/>
<path id="path1559" d="M197.63 200.029C197.63 197.826 195.89 195.971 193.571 195.971C191.368 195.971 189.513 197.71 189.513 200.029C189.513 202.233 191.252 204.088 193.571 204.088C195.89 203.972 197.63 202.233 197.63 200.029Z" fill="#F4F4F4"/>
<path id="path1563" d="M211.081 200.029C211.081 197.826 209.342 195.971 207.022 195.971C204.819 195.971 202.964 197.71 202.964 200.029C202.964 202.233 204.703 204.088 207.022 204.088C209.226 203.972 211.081 202.233 211.081 200.029Z" fill="#3F434F"/>
</g>
<g id="code">
<path id="path4935" d="M259.978 217.011H190.699C188.683 217.011 187.053 215.725 187.053 214.134C187.053 212.543 188.683 211.257 190.699 211.257H259.982C261.998 211.257 263.628 212.543 263.628 214.134C263.628 215.725 261.995 217.011 259.978 217.011Z" fill="#5D9CEC"/>
<path id="path4937" d="M270.917 228.519H197.991C195.975 228.519 194.345 227.233 194.345 225.642C194.345 224.051 195.975 222.765 197.991 222.765H270.92C272.937 222.765 274.566 224.051 274.566 225.642C274.566 227.233 272.933 228.519 270.917 228.519Z" fill="#A0D468"/>
<path id="path4939" d="M249.047 297.616H197.991C195.975 297.616 194.345 296.33 194.345 294.739C194.345 293.148 195.975 291.862 197.991 291.862H249.051C251.067 291.862 252.697 293.148 252.697 294.739C252.697 296.33 251.064 297.616 249.047 297.616Z" fill="#A0D468"/>
<path id="path4941" d="M292.793 228.519H285.501C283.485 228.519 281.855 227.233 281.855 225.642C281.855 224.051 283.485 222.765 285.501 222.765H292.793C294.81 222.765 296.439 224.051 296.439 225.642C296.439 227.233 294.81 228.519 292.793 228.519Z" fill="#A0D468"/>
<path id="path4943" d="M212.576 309.09H190.699C188.683 309.09 187.053 307.804 187.053 306.213C187.053 304.622 188.683 303.336 190.699 303.336H212.576C214.592 303.336 216.222 304.622 216.222 306.213C216.222 307.804 214.588 309.09 212.576 309.09Z" fill="#5D9CEC"/>
<path id="path4945" d="M219.868 240.028H205.283C203.267 240.028 201.637 238.742 201.637 237.151C201.637 235.56 203.267 234.273 205.283 234.273H219.868C221.884 234.273 223.514 235.56 223.514 237.151C223.514 238.742 221.88 240.028 219.868 240.028Z" fill="#F7921D"/>
<path id="path4947" d="M311.024 240.028H234.452C232.436 240.028 230.806 238.742 230.806 237.151C230.806 235.56 232.436 234.273 234.452 234.273H311.027C313.044 234.273 314.674 235.56 314.674 237.151C314.674 238.742 313.04 240.028 311.024 240.028Z" fill="#F7921D"/>
<path id="path4949" d="M290.977 251.536H207.11C205.094 251.536 203.464 250.25 203.464 248.659C203.464 247.068 205.094 245.782 207.11 245.782H290.977C292.994 245.782 294.624 247.068 294.624 248.659C294.624 250.25 292.994 251.536 290.977 251.536Z" fill="#FFCE54"/>
<path id="path4951" d="M252.686 263.045H205.283C203.267 263.045 201.637 261.759 201.637 260.168C201.637 258.577 203.267 257.29 205.283 257.29H252.69C254.706 257.29 256.336 258.577 256.336 260.168C256.336 261.759 254.703 263.045 252.686 263.045Z" fill="#E6E9ED"/>
<path id="path4953" d="M285.534 286.085H205.283C203.267 286.085 201.637 284.799 201.637 283.208C201.637 281.617 203.267 280.33 205.283 280.33H285.534C287.55 280.33 289.18 281.617 289.18 283.208C289.18 284.799 287.55 286.085 285.534 286.085Z" fill="#F7921D"/>
<path id="path4955" d="M298.277 274.553H232.637C230.62 274.553 228.99 273.267 228.99 271.676C228.99 270.085 230.62 268.799 232.637 268.799H298.277C300.294 268.799 301.923 270.085 301.923 271.676C301.923 273.267 300.294 274.553 298.277 274.553Z" fill="#FFCE54"/>
<path id="path4957" d="M218.052 274.553H207.11C205.094 274.553 203.464 273.267 203.464 271.676C203.464 270.085 205.094 268.799 207.11 268.799H218.052C220.068 268.799 221.698 270.085 221.698 271.676C221.698 273.267 220.068 274.553 218.052 274.553Z" fill="#FFCE54"/>
<path id="path4959" d="M318.316 251.536H303.732C301.715 251.536 300.086 250.25 300.086 248.659C300.086 247.068 301.715 245.782 303.732 245.782H318.316C320.332 245.782 321.962 247.068 321.962 248.659C321.962 250.25 320.332 251.536 318.316 251.536Z" fill="#FFCE54"/>
</g>
</g>
<g id="datascience">
<g id="circle with shade">
<path id="circle3029" d="M13.667 276.168C15.4052 274.429 15.4042 271.61 13.6648 269.871C11.9254 268.133 9.10624 268.134 7.36803 269.874C5.62981 271.613 5.63077 274.432 7.37019 276.17C9.1096 277.909 11.9288 277.908 13.667 276.168Z" fill="#53D8D8"/>
<path id="path3041" d="M9.75604 273.782C8.47781 272.505 8.09827 270.582 8.7955 268.915C6.52768 269.865 5.46007 272.475 6.4109 274.742C7.36173 277.01 9.97092 278.078 12.2387 277.127C13.3165 276.675 14.1734 275.818 14.6245 274.74C12.9578 275.438 11.0343 275.06 9.75604 273.782Z" fill="#62B9B6" fill-opacity="0.58"/>
</g>
<g id="circle with shade_2">
<path id="circle3029_2" d="M54.9009 243.724C56.8129 241.811 56.8118 238.71 54.8985 236.798C52.9851 234.886 49.884 234.887 47.972 236.8C46.0599 238.713 46.061 241.815 47.9743 243.727C49.8877 245.639 52.9888 245.638 54.9009 243.724Z" fill="#8F8FB7"/>
<path id="path3041_2" d="M50.6001 241.1C49.194 239.695 48.7765 237.579 49.5435 235.745C47.0489 236.791 45.8745 239.661 46.9204 242.156C47.9663 244.65 50.8365 245.825 53.3311 244.779C54.5166 244.282 55.4592 243.338 55.9554 242.153C54.1221 242.921 52.0061 242.505 50.6001 241.1Z" fill="#A98EBE" fill-opacity="0.61"/>
</g>
<g id="Group 1">
<rect id="Rectangle 60" x="35.0752" y="274.902" width="36.5124" height="31.1691" transform="rotate(-45.0197 35.0752 274.902)" fill="#072040"/>
<path id="circle2814" d="M68.7669 280.81C69.3058 280.271 69.3055 279.397 68.7662 278.858C68.2269 278.319 67.3529 278.319 66.814 278.858C66.2751 279.398 66.2754 280.272 66.8147 280.811C67.354 281.349 68.228 281.349 68.7669 280.81Z" fill="#8F9DB0"/>
<path id="circle2816" d="M72.67 276.904C73.2089 276.365 73.2086 275.491 72.6693 274.952C72.13 274.413 71.256 274.413 70.7171 274.953C70.1782 275.492 70.1785 276.366 70.7178 276.905C71.257 277.444 72.1311 277.443 72.67 276.904Z" fill="#8F9DB0"/>
<path id="circle2818" d="M76.5729 272.999C77.1118 272.459 77.1115 271.585 76.5722 271.046C76.033 270.507 75.1589 270.508 74.62 271.047C74.0812 271.586 74.0815 272.46 74.6207 272.999C75.16 273.538 76.034 273.538 76.5729 272.999Z" fill="#8F9DB0"/>
<path id="circle2820" d="M60.9554 273.004C61.4943 272.464 61.494 271.59 60.9547 271.052C60.4154 270.513 59.5414 270.513 59.0025 271.052C58.4636 271.591 58.4639 272.465 59.0032 273.004C59.5424 273.543 60.4165 273.543 60.9554 273.004Z" fill="#8F9DB0"/>
<path id="circle2822" d="M64.8584 269.098C65.3973 268.559 65.397 267.685 64.8578 267.146C64.3185 266.607 63.4445 266.607 62.9056 267.146C62.3667 267.686 62.367 268.56 62.9062 269.099C63.4455 269.638 64.3195 269.637 64.8584 269.098Z" fill="#8F9DB0"/>
<path id="circle2824" d="M68.7614 265.192C69.3003 264.653 69.3 263.779 68.7607 263.24C68.2214 262.701 67.3474 262.702 66.8085 263.241C66.2696 263.78 66.2699 264.654 66.8092 265.193C67.3485 265.732 68.2225 265.732 68.7614 265.192Z" fill="#8F9DB0"/>
<path id="path2826" d="M50.2218 283.745L56.0764 277.886C56.3352 277.627 56.4805 277.276 56.4804 276.91C56.4803 276.544 56.3347 276.193 56.0757 275.934C55.8168 275.675 55.4656 275.53 55.0995 275.53C54.7334 275.53 54.3823 275.675 54.1235 275.934L48.269 281.793C48.0102 282.052 47.8649 282.403 47.865 282.769C47.8651 283.135 48.0107 283.486 48.2696 283.745C48.5286 284.004 48.8798 284.149 49.2459 284.149C49.612 284.149 49.9631 284.003 50.2218 283.745Z" fill="#A0D468"/>
<path id="circle2828" d="M53.144 265.198C53.6829 264.658 53.6826 263.784 53.1433 263.246C52.604 262.707 51.73 262.707 51.1911 263.246C50.6522 263.785 50.6525 264.659 51.1918 265.198C51.731 265.737 52.6051 265.737 53.144 265.198Z" fill="#8F9DB0"/>
<path id="circle2830" d="M57.047 261.292C57.5859 260.753 57.5856 259.879 57.0464 259.34C56.5071 258.801 55.6331 258.801 55.0942 259.34C54.5553 259.88 54.5556 260.754 55.0948 261.293C55.6341 261.832 56.5081 261.831 57.047 261.292Z" fill="#8F9DB0"/>
<path id="circle2832" d="M60.95 257.386C61.4889 256.847 61.4886 255.973 60.9493 255.434C60.41 254.895 59.536 254.896 58.9971 255.435C58.4582 255.974 58.4585 256.848 58.9978 257.387C59.5371 257.926 60.4111 257.926 60.95 257.386Z" fill="#8F9DB0"/>
<path id="path2834-8" d="M46.3123 268.128L40.4577 273.987C40.1989 274.246 40.0536 274.597 40.0537 274.963C40.0538 275.329 40.1994 275.68 40.4584 275.939C40.7173 276.198 41.0685 276.343 41.4346 276.343C41.8007 276.343 42.1518 276.197 42.4106 275.939L48.2651 270.08C48.5239 269.821 48.6692 269.47 48.6691 269.104C48.669 268.738 48.5234 268.387 48.2645 268.128C48.0055 267.869 47.6543 267.724 47.2882 267.724C46.9221 267.724 46.5711 267.869 46.3123 268.128Z" fill="#5D9CEC"/>
<g id="circle with shade_3">
<path id="circle3029_3" d="M81.3563 268.903C82.2253 268.034 82.2249 266.624 81.3552 265.755C80.4856 264.886 79.076 264.886 78.207 265.756C77.3379 266.626 77.3384 268.035 78.2081 268.904C79.0777 269.773 80.4872 269.773 81.3563 268.903Z" fill="#7B76A0"/>
</g>
</g>
<g id="circle with shade_4">
<path id="circle3029_4" d="M73.1838 308.578C75.0957 306.665 75.0946 303.564 73.1814 301.652C71.2682 299.74 68.1674 299.741 66.2556 301.654C64.3437 303.568 64.3448 306.668 66.2579 308.58C68.1711 310.492 71.2719 310.491 73.1838 308.578Z" fill="#F3CE7D"/>
<path id="path3041_3" d="M68.8834 305.954C67.4775 304.549 67.0601 302.433 67.827 300.599C65.3326 301.645 64.1583 304.515 65.2041 307.009C66.2499 309.504 69.1198 310.678 71.6142 309.632C72.7996 309.135 73.7421 308.192 74.2383 307.006C72.4051 307.774 70.2894 307.358 68.8834 305.954Z" fill="#F7A01D" fill-opacity="0.37"/>
</g>
<g id="circle with shade_5">
<path id="circle3029_5" d="M110.641 276.135C112.38 274.396 112.379 271.577 110.639 269.838C108.9 268.1 106.081 268.101 104.343 269.841C102.604 271.58 102.605 274.399 104.345 276.137C106.084 277.876 108.903 277.875 110.641 276.135Z" fill="#3E78B2"/>
<path id="path3041_4" d="M106.732 273.749C105.453 272.472 105.074 270.549 105.771 268.881C103.503 269.832 102.436 272.441 103.386 274.709C104.337 276.977 106.947 278.045 109.214 277.094C110.292 276.642 111.149 275.785 111.6 274.706C109.933 275.405 108.01 275.027 106.732 273.749Z" fill="#3C65A0"/>
</g>
<path id="path2836-1" d="M106.833 266.183C103.758 263.023 98.515 260.278 91.6855 258.182C89.0392 252.339 84.8735 247.313 79.6228 243.628C74.3722 239.944 68.229 237.736 61.8342 237.234C61.6534 237.22 61.4715 237.242 61.2991 237.298C61.1267 237.354 60.967 237.444 60.8292 237.562C60.6913 237.68 60.5781 237.824 60.4959 237.985C60.4136 238.147 60.3641 238.323 60.35 238.504C60.3359 238.685 60.3575 238.867 60.4137 239.039C60.4698 239.211 60.5594 239.371 60.6773 239.509C60.7952 239.647 60.939 239.76 61.1007 239.842C61.2623 239.924 61.4386 239.974 61.6194 239.988C67.1174 240.418 72.4206 242.216 77.0463 245.219C81.6719 248.222 85.4731 252.334 88.1039 257.181C84.655 256.313 81.1622 255.63 77.6404 255.136C77.4609 255.11 77.2782 255.12 77.1026 255.165C76.927 255.21 76.762 255.289 76.617 255.398C76.472 255.507 76.3499 255.643 76.2576 255.799C76.1653 255.955 76.1046 256.128 76.0791 256.307C76.0535 256.487 76.0635 256.67 76.1085 256.845C76.1536 257.021 76.2328 257.186 76.3416 257.331C76.4504 257.476 76.5867 257.598 76.7427 257.69C76.8988 257.782 77.0714 257.843 77.2509 257.869C81.4456 258.453 85.5953 259.325 89.6707 260.477C92.9283 268.504 92.9325 277.484 89.6822 285.513C82.7052 287.422 75.5508 288.61 68.3313 289.057L85.3574 272.019C85.6162 271.76 85.7615 271.409 85.7613 271.043C85.7612 270.677 85.6157 270.326 85.3567 270.067L84.2006 268.912C84.5721 268.142 84.695 267.276 84.5521 266.434C84.4093 265.591 84.0078 264.814 83.4034 264.21C82.799 263.606 82.0216 263.205 81.179 263.063C80.3365 262.921 79.4706 263.044 78.7013 263.416L61.9223 246.649C61.6634 246.39 61.3122 246.245 60.9461 246.245C60.58 246.245 60.2289 246.391 59.9701 246.65L52.6129 254.012C44.945 254.314 37.3277 255.394 29.8778 257.234C33.2696 250.959 38.5992 245.948 45.0717 242.949C45.3873 243.595 45.8033 244.187 46.3041 244.702C47.4491 245.872 48.9687 246.602 50.5973 246.764C52.226 246.927 53.86 246.513 55.2139 245.593C56.5677 244.673 57.5552 243.306 58.0037 241.732C58.4522 240.158 58.3333 238.477 57.6676 236.981C57.002 235.486 55.8319 234.272 54.3621 233.552C52.8923 232.832 51.2161 232.651 49.6266 233.042C48.0371 233.432 46.6354 234.369 45.6665 235.688C44.6975 237.007 44.2231 238.625 44.326 240.259C36.314 243.841 29.897 250.242 26.2939 258.244C19.541 260.333 14.2749 263.066 11.1867 266.217C10.2078 266.07 9.20889 266.137 8.25814 266.412C7.30739 266.687 6.42718 267.164 5.67759 267.81C4.92799 268.457 4.32667 269.257 3.91466 270.157C3.50265 271.057 3.28965 272.035 3.2902 273.025C3.29076 274.015 3.50485 274.993 3.91786 275.892C4.33088 276.791 4.9331 277.591 5.68341 278.237C6.43372 278.882 7.31447 279.358 8.26552 279.632C9.21658 279.906 10.2156 279.972 11.1943 279.824C14.2994 283.013 19.5693 285.744 26.3177 287.818C29.2106 294.208 33.9146 299.61 39.847 303.353C45.7795 307.096 52.6797 309.016 59.6928 308.876C60.059 308.869 60.4073 308.716 60.6611 308.452C60.9149 308.188 61.0534 307.834 61.0462 307.468C61.0389 307.102 60.8865 306.753 60.6225 306.5C60.3584 306.246 60.0044 306.107 59.6382 306.114C53.5708 306.235 47.587 304.685 42.3418 301.633C37.0966 298.581 32.792 294.145 29.8994 288.81C35.9933 290.319 42.2055 291.302 48.4677 291.749L56.0839 299.36C56.3428 299.619 56.694 299.764 57.0601 299.764C57.4262 299.764 57.7773 299.618 58.036 299.359L61.9391 295.454C62.1979 295.195 62.3432 294.844 62.3431 294.477C62.3429 294.111 62.1974 293.76 61.9384 293.502C61.6795 293.243 61.3283 293.097 60.9622 293.098C60.5961 293.098 60.245 293.243 59.9862 293.502L57.0589 296.431L52.622 291.998C54.7226 292.093 56.8476 292.155 59.0097 292.156C68.8112 292.231 78.5852 291.107 88.1138 288.809C85.221 294.158 80.9004 298.6 75.6329 301.638C74.7467 300.159 73.343 299.061 71.6936 298.557C70.0442 298.054 68.2666 298.18 66.705 298.912C65.1434 299.644 63.909 300.929 63.2408 302.519C62.5726 304.109 62.5183 305.89 63.0883 307.518C63.6583 309.145 64.812 310.504 66.3261 311.329C67.8401 312.155 69.6068 312.389 71.2838 311.987C72.9608 311.585 74.4289 310.575 75.4037 309.152C76.3784 307.729 76.7905 305.995 76.5602 304.286C83.2449 300.557 88.5516 294.775 91.6947 287.796C98.3364 285.751 103.579 283.078 106.701 279.954C106.753 279.902 106.799 279.856 106.85 279.795C107.827 279.938 108.824 279.868 109.772 279.59C110.719 279.313 111.596 278.835 112.343 278.188C113.09 277.541 113.688 276.742 114.098 275.843C114.508 274.945 114.719 273.968 114.718 272.981C114.717 271.993 114.503 271.017 114.092 270.12C113.68 269.222 113.079 268.423 112.331 267.779C111.583 267.134 110.705 266.657 109.757 266.382C108.808 266.107 107.811 266.039 106.834 266.184L106.833 266.183ZM48.2536 236.893C48.8326 236.313 49.5703 235.919 50.3736 235.759C51.1769 235.598 52.0096 235.68 52.7664 235.993C53.5232 236.307 54.1702 236.837 54.6254 237.518C55.0807 238.199 55.3239 238.999 55.3241 239.818C55.3244 240.638 55.0818 241.438 54.627 242.119C54.1722 242.801 53.5256 243.332 52.769 243.645C52.0124 243.959 51.1798 244.041 50.3764 243.882C49.573 243.722 48.835 243.328 48.2556 242.749C47.4787 241.973 47.0421 240.92 47.0417 239.821C47.0413 238.723 47.4773 237.67 48.2536 236.893ZM64.2044 289.281C62.8828 289.332 61.5488 289.365 60.2025 289.38L63.8879 285.692C64.1467 285.433 64.292 285.082 64.2919 284.716C64.2918 284.35 64.1462 283.999 63.8873 283.74C63.6283 283.481 63.2771 283.336 62.911 283.336C62.5449 283.336 62.1939 283.482 61.9351 283.741L56.3235 289.356C55.0545 289.332 53.7957 289.29 52.5469 289.229L76.5701 265.19L76.7498 265.369C76.3783 266.139 76.2554 267.005 76.3983 267.847C76.5411 268.69 76.9426 269.467 77.547 270.071C78.1514 270.675 78.9288 271.076 79.7714 271.218C80.6139 271.36 81.4799 271.237 82.2491 270.865L82.4287 271.044L64.2044 289.281ZM74.6173 263.238L49.2475 288.625L43.3889 282.771L68.7587 257.384L74.6173 263.238ZM81.4516 268.116C81.2587 268.309 81.0127 268.441 80.745 268.494C80.4772 268.548 80.1997 268.52 79.9474 268.416C79.6951 268.312 79.4795 268.135 79.3277 267.908C79.1759 267.681 79.0949 267.414 79.0948 267.141C79.0947 266.868 79.1756 266.601 79.3272 266.374C79.4788 266.147 79.6943 265.97 79.9465 265.865C80.1987 265.761 80.4763 265.733 80.744 265.787C81.0118 265.84 81.2578 265.971 81.451 266.164C81.7099 266.423 81.8555 266.774 81.8556 267.14C81.8557 267.506 81.7104 267.857 81.4516 268.116ZM7.26897 270.094C7.77392 269.592 8.40024 269.228 9.08707 269.04C9.77389 268.851 10.4979 268.843 11.1886 269.017C11.2072 269.024 11.2257 269.027 11.2442 269.034C11.9549 269.211 12.6046 269.577 13.1255 270.092C13.9024 270.868 14.3391 271.922 14.3395 273.02C14.3399 274.118 13.9039 275.172 13.1276 275.949C12.6058 276.465 11.955 276.831 11.2431 277.01L11.1972 277.023C10.3199 277.246 9.39359 277.174 8.56095 276.819C7.72831 276.464 7.03545 275.845 6.58901 275.057C6.14257 274.27 5.96729 273.358 6.09015 272.461C6.21301 271.564 6.6272 270.732 7.26897 270.094ZM14.0353 278.751C14.9789 278.123 15.7528 277.272 16.2883 276.274C16.8239 275.275 17.1044 274.16 17.105 273.026C17.1055 271.893 16.8262 270.777 16.2917 269.778C15.7571 268.779 14.9841 267.927 14.0411 267.299C17.3093 264.736 21.021 262.796 24.991 261.575C22.5111 269.011 22.5176 277.052 25.0096 284.483C21.0282 283.268 17.307 281.324 14.0353 278.751ZM28.3172 260.52C35.2971 258.593 42.4578 257.394 49.6846 256.942L47.2852 259.343C47.0265 259.602 46.8811 259.953 46.8813 260.319C46.8814 260.686 47.0269 261.037 47.2859 261.295C47.5449 261.554 47.896 261.699 48.2621 261.699C48.6283 261.699 48.9793 261.554 49.2381 261.295L60.9472 249.578L66.8058 255.432L41.436 280.819L35.5774 274.965L45.3351 265.2C45.5938 264.941 45.7392 264.59 45.739 264.224C45.7389 263.858 45.5934 263.507 45.3344 263.248C45.0754 262.989 44.7243 262.844 44.3582 262.844C43.992 262.844 43.641 262.99 43.3822 263.249L32.6488 273.99C32.39 274.249 32.2447 274.6 32.2448 274.966C32.245 275.332 32.3905 275.683 32.6495 275.942L45.4066 288.69C39.6335 288.129 33.9199 287.069 28.3297 285.522C25.0806 277.505 25.0761 268.54 28.3172 260.52ZM72.6805 308.139C72.1016 308.719 71.3638 309.113 70.5605 309.273C69.7573 309.433 68.9246 309.352 68.1678 309.039C67.4109 308.725 66.764 308.195 66.3087 307.514C65.8534 306.833 65.6103 306.032 65.61 305.213C65.6097 304.394 65.8523 303.594 66.3071 302.912C66.7619 302.231 67.4085 301.7 68.1651 301.387C68.9217 301.073 69.7544 300.991 70.5577 301.15C71.3611 301.31 72.0991 301.704 72.6785 302.283C73.4554 303.059 73.8921 304.112 73.8924 305.211C73.8928 306.309 73.4569 307.362 72.6805 308.139ZM93.0025 284.483C95.4986 277.033 95.4972 268.971 92.9985 261.522C96.9756 262.747 100.693 264.695 103.963 267.268C103.021 267.898 102.249 268.751 101.715 269.751C101.182 270.751 100.904 271.867 100.905 273.001C100.907 274.134 101.189 275.25 101.725 276.248C102.261 277.247 103.036 278.097 103.98 278.725C100.712 281.312 96.9888 283.265 93.0025 284.483ZM110.737 275.915C110.233 276.417 109.608 276.779 108.923 276.969C108.237 277.158 107.514 277.167 106.824 276.995L106.763 276.976C106.052 276.798 105.402 276.433 104.881 275.917C104.104 275.141 103.667 274.087 103.667 272.989C103.666 271.891 104.102 270.837 104.879 270.06C105.4 269.544 106.051 269.178 106.763 268.999L106.809 268.986C107.686 268.763 108.613 268.835 109.445 269.19C110.278 269.545 110.971 270.164 111.417 270.952C111.864 271.739 112.039 272.651 111.916 273.548C111.793 274.445 111.379 275.277 110.737 275.915Z" fill="#284268"/>
<g id="Group 3">
<circle id="Ellipse 1" cx="62.7658" cy="226.404" r="3.50745" transform="rotate(-45.0197 62.7658 226.404)" fill="#AE4B84" stroke="#284268"/>
<path id="path3041_5" d="M61.9297 226.786C61.2887 225.962 61.2092 224.833 61.7287 223.927C60.3604 224.309 59.561 225.728 59.9431 227.096C60.3253 228.465 61.7443 229.264 63.1126 228.882C63.7629 228.7 64.3157 228.27 64.6517 227.685C63.6461 227.965 62.5707 227.61 61.9297 226.786Z" fill="#B91372" fill-opacity="0.37"/>
</g>
<g id="Group 2">
<circle id="Ellipse 2" cx="53.981" cy="317.086" r="3.50745" transform="rotate(-45.0197 53.981 317.086)" fill="#FDB343" stroke="#284268"/>
<path id="path3041_6" d="M53.145 317.468C52.504 316.644 52.4246 315.514 52.944 314.608C51.5757 314.991 50.7763 316.41 51.1585 317.778C51.5406 319.146 52.9597 319.946 54.328 319.563C54.9782 319.382 55.531 318.952 55.8671 318.366C54.8615 318.647 53.786 318.292 53.145 317.468Z" fill="#FF7A00" fill-opacity="0.37"/>
</g>
</g>
<g id="network">
<path id="path3023" d="M260.563 51.2163C260.77 51.5513 260.931 51.9126 261.042 52.2904C261.746 54.6674 260.39 57.165 258.014 57.8692C255.637 58.5734 253.139 57.2173 252.435 54.8405C251.731 52.4637 253.087 49.9659 255.464 49.2617C257.41 48.6851 259.501 49.4865 260.563 51.2163Z" fill="#A5E2FB"/>
<path id="path3025" d="M292.875 88.5546C294.202 91.0544 293.251 94.1562 290.751 95.4829C288.251 96.8095 285.149 95.8584 283.823 93.3586C282.496 90.8589 283.447 87.757 285.947 86.4304C286.703 86.0294 287.546 85.8239 288.402 85.8328C290.281 85.8464 292 86.8923 292.875 88.5546Z" fill="#4689D3"/>
<path id="circle3027" d="M256.696 58.0382C259.17 58.0644 261.198 56.0794 261.224 53.6047C261.25 51.13 259.265 49.1027 256.79 49.0766C254.315 49.0505 252.288 51.0354 252.262 53.5101C252.236 55.9848 254.221 58.0121 256.696 58.0382Z" fill="#A5E2FB"/>
<path id="circle3029_6" d="M252.896 103.279C255.193 103.304 257.076 101.461 257.1 99.1632C257.124 96.8656 255.281 94.9834 252.984 94.9592C250.686 94.9349 248.804 96.7778 248.78 99.0754C248.755 101.373 250.598 103.255 252.896 103.279Z" fill="#53D8D8"/>
<path id="circle3031" d="M281.309 55.9523C283.484 55.9753 285.266 54.2305 285.289 52.0551C285.312 49.8798 283.567 48.0977 281.392 48.0747C279.216 48.0517 277.434 49.7966 277.411 51.9719C277.388 54.1473 279.133 55.9294 281.309 55.9523Z" fill="#F3CE7D"/>
<path id="circle3033" d="M266.391 78.0022C267.906 78.0182 269.146 76.8036 269.162 75.2894C269.178 73.7752 267.964 72.5348 266.449 72.5188C264.935 72.5028 263.695 73.7173 263.679 75.2315C263.663 76.7457 264.877 77.9862 266.391 78.0022Z" fill="#5FCDA4"/>
<path id="circle3035" d="M283.418 73.4481C285.03 73.4651 286.351 72.1721 286.368 70.5601C286.385 68.948 285.092 67.6274 283.48 67.6104C281.868 67.5934 280.547 68.8864 280.53 70.4984C280.513 72.1105 281.806 73.4311 283.418 73.4481Z" fill="#6994FE"/>
<path id="circle3037" d="M304.019 73.9917C305.827 74.0108 307.308 72.5607 307.327 70.7528C307.346 68.9449 305.896 67.4638 304.088 67.4447C302.28 67.4256 300.799 68.8757 300.78 70.6836C300.761 72.4915 302.211 73.9726 304.019 73.9917Z" fill="#8F8FB7"/>
<path id="path3039" d="M255.417 53.5435C255.437 51.6772 256.611 50.0185 258.364 49.3797C256.057 48.4846 253.461 49.6296 252.566 51.9368C251.671 54.244 252.816 56.8401 255.123 57.7352C256.135 58.1278 257.255 58.1396 258.276 57.7685C256.536 57.0928 255.397 55.4097 255.417 53.5435Z" fill="#85BBCC"/>
<path id="path3041_7" d="M251.934 99.1087C251.952 97.4203 252.989 95.91 254.558 95.2862C252.441 94.3929 250.001 95.3849 249.107 97.5019C248.214 99.6189 249.206 102.059 251.323 102.952C252.329 103.377 253.462 103.389 254.477 102.986C252.921 102.329 251.917 100.797 251.934 99.1087Z" fill="#44AAA7"/>
<g id="g3049">
<path id="path3043" d="M256.805 69.7111C256.823 69.7129 256.842 69.7137 256.861 69.7139C257.241 69.7175 257.56 69.4279 257.593 69.0492L257.662 68.2558C257.697 67.8552 257.401 67.5021 257 67.4671C256.6 67.432 256.247 67.7284 256.212 68.129L256.143 68.9224C256.108 69.3229 256.404 69.676 256.805 69.7111Z" fill="#284268"/>
<path id="path3045" d="M255.447 82.2528C255.471 82.2556 255.496 82.2571 255.521 82.2574C255.895 82.2608 256.21 81.9817 256.252 81.6108L257.338 71.9658C257.383 71.5662 257.095 71.2058 256.696 71.1609C256.296 71.116 255.936 71.4035 255.891 71.803L254.805 81.4478C254.76 81.8474 255.047 82.2078 255.447 82.2528C255.447 82.2528 255.447 82.2528 255.447 82.2528Z" fill="#284268"/>
<path id="path3047" d="M304.095 66.7166C303.745 66.7129 303.396 66.7553 303.057 66.8426L286.007 51.7185C285.844 49.1467 283.628 47.1934 281.056 47.3556C279.112 47.4782 277.449 48.7959 276.884 50.6605L260.952 50.4923C259.26 48.1666 256.003 47.6527 253.678 49.3445C251.352 51.0363 250.838 54.2932 252.53 56.6187C252.952 57.1987 253.489 57.6854 254.108 58.0481L250.53 94.869C248.182 96.1998 247.357 99.1822 248.688 101.53C250.019 103.879 253.001 104.704 255.349 103.373C256.278 102.846 257.009 102.03 257.43 101.049L283.8 94.6357C285.83 97.1487 289.513 97.5403 292.026 95.5102C294.067 93.8615 294.76 91.0553 293.722 88.6457L304.389 74.7054C306.591 74.5201 308.226 72.5848 308.041 70.3826C307.868 68.3257 306.159 66.738 304.095 66.7166L304.095 66.7166ZM285.785 53.468L301.638 67.53C300.854 68.1238 300.317 68.9851 300.127 69.9499L287.03 69.8378C286.746 68.3808 285.609 67.2402 284.153 66.9514L283.209 56.2926C284.43 55.7594 285.366 54.7325 285.785 53.468ZM285.64 70.5525C285.627 71.7625 284.635 72.7328 283.425 72.7196C282.215 72.7065 281.245 71.715 281.258 70.5051C281.271 69.2953 282.262 68.3252 283.472 68.338C284.682 68.3521 285.651 69.3429 285.64 70.5525ZM281.384 48.8029C283.157 48.8215 284.58 50.2743 284.561 52.0476C284.543 53.8209 283.09 55.2433 281.316 55.2247C279.543 55.2061 278.121 53.7533 278.139 51.98L278.139 51.9799C278.16 50.2074 279.612 48.7862 281.384 48.8029ZM276.686 52.1146C276.742 54.6918 278.876 56.7356 281.453 56.6796C281.563 56.6772 281.672 56.6709 281.781 56.6609L282.691 66.9623C282.227 67.0611 281.787 67.2497 281.395 67.5179L261.794 51.9574L276.686 52.1146ZM261.938 53.9306L280.376 68.568C279.859 69.3752 279.681 70.3543 279.883 71.2917L269.434 73.543C268.636 72.1419 266.978 71.475 265.433 71.9335L259.454 58.0025C260.89 57.1259 261.816 55.6094 261.938 53.9306ZM268.435 75.2817C268.423 76.3941 267.512 77.2864 266.399 77.2746C265.287 77.2629 264.395 76.3516 264.406 75.2392C264.418 74.1268 265.329 73.2345 266.442 73.2463C267.554 73.2591 268.445 74.1698 268.435 75.2817ZM252.99 53.5178C253.012 51.4451 254.71 49.7827 256.782 49.8045C258.855 49.8262 260.517 51.5241 260.496 53.5968C260.474 55.6695 258.776 57.3319 256.703 57.3101L256.703 57.3101C254.632 57.2859 252.97 55.5894 252.99 53.5178ZM255.516 58.6188C256.372 58.8278 257.267 58.8147 258.117 58.5807L264.151 72.6386C262.703 73.8889 262.542 76.0765 263.792 77.5246C263.916 77.6679 264.051 77.8009 264.197 77.9221L254.765 94.5861C253.904 94.2376 252.961 94.143 252.047 94.3136L255.516 58.6188ZM252.904 102.551C251.008 102.531 249.488 100.979 249.508 99.083C249.527 97.1875 251.08 95.6671 252.976 95.687C254.871 95.7069 256.392 97.2597 256.372 99.1552L256.372 99.1554C256.35 101.05 254.798 102.569 252.904 102.551ZM282.962 93.2408L257.816 99.4528C257.822 99.3594 257.827 99.2656 257.828 99.171C257.843 97.6809 257.177 96.2653 256.019 95.3274L265.485 78.6021C266.603 78.9159 267.804 78.6481 268.682 77.889L283.783 87.3006C282.435 88.9777 282.119 91.2612 282.962 93.2414L282.962 93.2408ZM269.566 76.7234C269.775 76.2768 269.886 75.7903 269.891 75.2971C269.892 75.177 269.887 75.0569 269.876 74.9374L280.46 72.6111C281.247 73.7462 282.609 74.3376 283.976 74.1382L287.642 85.1483C286.635 85.27 285.678 85.6525 284.864 86.2579L269.566 76.7234ZM288.301 95.352C285.873 95.3264 283.926 93.3375 283.952 90.9097C283.977 88.4819 285.966 86.5346 288.394 86.5602C290.822 86.5859 292.769 88.5747 292.744 91.0026L292.744 91.0027C292.715 93.4293 290.728 95.375 288.301 95.352ZM292.916 87.3036C292.004 86.1625 290.697 85.4041 289.254 85.1777L285.345 73.6426C286.2 73.1212 286.803 72.2724 287.015 71.294L300.112 71.4061C300.363 72.8288 301.359 74.0068 302.72 74.4907L292.916 87.3036ZM304.026 73.2634C302.62 73.2486 301.493 72.0968 301.508 70.691C301.522 69.2852 302.674 68.1575 304.08 68.1724C305.486 68.1872 306.613 69.339 306.599 70.7448L306.599 70.745C306.582 72.1502 305.431 73.2768 304.026 73.2634Z" fill="#284268"/>
</g>
</g>
<g id="cpp">
<path id="path4786-1" d="M143.643 118.773V132.566C143.643 132.653 143.64 132.74 143.634 132.827C142.947 134.056 142.121 135.196 141.178 136.226L131.708 141.693C130.456 141.968 129.156 142.112 127.821 142.112C126.487 142.112 125.186 141.968 123.934 141.693L116.152 137.201L114.466 136.227C113.521 135.197 112.695 134.056 112.009 132.827C112.003 132.74 112 132.653 112 132.566V118.773C112 117.388 112.74 116.109 113.937 115.416L125.884 108.52C127.083 107.827 128.559 107.827 129.758 108.52L139.315 114.037L141.705 115.416C142.903 116.109 143.643 117.388 143.643 118.773Z" fill="#004284" fill-opacity="0.7"/>
<path id="path4788-0" d="M143.153 116.889L112.946 134.326C112.61 133.843 112.297 133.343 112.009 132.827C112.009 132.827 112.009 132.827 112.009 132.827C112.003 132.74 112 132.653 112 132.566V118.773C112 117.388 112.739 116.109 113.937 115.416L125.884 108.52C127.083 107.827 128.559 107.827 129.758 108.52L139.315 114.037L141.706 115.416C142.322 115.773 142.817 116.287 143.153 116.889Z" fill="#6399D4" fill-opacity="0.7"/>
<path id="path4790-7" d="M143.643 118.773V132.566C143.643 132.653 143.64 132.74 143.634 132.827C143.634 132.827 143.634 132.827 143.634 132.827C143.358 133.32 143.06 133.799 142.742 134.261L127.9 125.693L143.153 116.889C143.469 117.456 143.643 118.102 143.643 118.773Z" fill="#00579E" fill-opacity="0.7"/>
<g id="g4798">
<path id="path4792-1" d="M132.464 128.328C131.559 129.958 129.82 131.061 127.822 131.061C124.892 131.061 122.516 128.686 122.516 125.755C122.516 122.825 124.892 120.449 127.822 120.449C129.781 120.449 131.491 121.511 132.411 123.089L137.103 120.381C135.248 117.183 131.785 115.033 127.822 115.033C121.901 115.033 117.1 119.832 117.1 125.755C117.1 131.677 121.901 136.478 127.822 136.478C131.824 136.478 135.314 134.286 137.156 131.036L132.464 128.328Z" fill="#F2F2F2" fill-opacity="0.7"/>
<path id="polygon4794" d="M135.948 127.385H137.13V126.166H138.349V124.984H137.13V123.765H135.948V124.984H134.729V126.166H135.948V127.385Z" fill="#F2F2F2" fill-opacity="0.7"/>
<path id="polygon4796" d="M140.381 127.385H141.563V126.166H142.782V124.984H141.563V123.765H140.381V124.984H139.162V126.166H140.381V127.385Z" fill="#F2F2F2" fill-opacity="0.7"/>
</g>
</g>
<g id="c-sharp">
<path id="circle4540" d="M479 230C487.284 230 494 223.284 494 215C494 206.716 487.284 200 479 200C470.716 200 464 206.716 464 215C464 223.284 470.716 230 479 230Z" fill="#8C50D7" fill-opacity="0.6"/>
<path id="path4542" d="M482.056 226.944C473.772 226.944 467.056 220.229 467.056 211.944C467.056 208.582 468.163 205.477 470.031 202.976C466.37 205.711 464 210.078 464 215C464 223.284 470.716 230 479 230C483.922 230 488.289 227.63 491.025 223.969C488.523 225.838 485.419 226.944 482.056 226.944Z" fill="#733CB9" fill-opacity="0.8"/>
<g id="g4548">
<path id="path4544" d="M481.225 204.656C481.156 204.656 481.085 204.65 481.014 204.636C480.355 204.509 479.678 204.444 479 204.444C478.387 204.444 477.889 203.947 477.889 203.333C477.889 202.72 478.387 202.222 479 202.222C479.818 202.222 480.638 202.3 481.435 202.454C482.037 202.57 482.431 203.153 482.315 203.755C482.213 204.287 481.747 204.656 481.225 204.656Z" fill="#AA6EFF" fill-opacity="0.8"/>
<path id="path4546" d="M490.547 214.445C490.003 214.445 489.528 214.045 489.449 213.491C488.999 210.347 487.173 207.599 484.44 205.952C483.914 205.635 483.745 204.952 484.062 204.427C484.378 203.9 485.061 203.731 485.587 204.049C488.894 206.042 491.104 209.369 491.648 213.176C491.736 213.783 491.314 214.346 490.706 214.433C490.653 214.441 490.6 214.445 490.547 214.445Z" fill="#AA6EFF" fill-opacity="0.8"/>
</g>
<g id="g4554">
<path id="path4550" d="M486.223 214.583C486.606 214.583 486.917 214.272 486.917 213.889C486.917 213.505 486.606 213.194 486.223 213.194H485.625L485.792 212.358C485.868 211.982 485.624 211.616 485.248 211.541C484.868 211.466 484.506 211.71 484.431 212.086L484.209 213.194H482.847L483.015 212.358C483.09 211.982 482.846 211.616 482.47 211.541C482.091 211.466 481.728 211.71 481.653 212.086L481.431 213.194H480.667C480.283 213.194 479.973 213.505 479.973 213.889C479.973 214.272 480.283 214.583 480.667 214.583H481.153L480.987 215.417H480.111C479.728 215.417 479.417 215.728 479.417 216.111C479.417 216.495 479.728 216.806 480.111 216.806H480.709L480.542 217.642C480.466 218.018 480.71 218.384 481.086 218.459C481.132 218.468 481.178 218.473 481.223 218.473C481.548 218.473 481.837 218.244 481.903 217.914L482.125 216.806H483.487L483.319 217.642C483.244 218.018 483.488 218.384 483.864 218.459C483.91 218.468 483.956 218.473 484.001 218.473C484.325 218.473 484.615 218.244 484.681 217.914L484.903 216.806H485.667C486.051 216.806 486.362 216.495 486.362 216.111C486.362 215.728 486.051 215.417 485.667 215.417H485.181L485.347 214.583H486.223V214.583ZM483.764 215.417H482.403L482.57 214.583H483.931L483.764 215.417Z" fill="white" fill-opacity="0.8"/>
<path id="path4552" d="M475.667 211.25C476.322 211.25 476.953 211.449 477.492 211.825C477.807 212.045 478.24 211.967 478.459 211.653C478.678 211.338 478.601 210.905 478.287 210.686C477.513 210.146 476.608 209.861 475.667 209.861C473.14 209.861 471.084 211.917 471.084 214.444V215.555C471.084 218.083 473.14 220.139 475.667 220.139C476.608 220.139 477.513 219.854 478.287 219.314C478.601 219.094 478.678 218.661 478.459 218.347C478.239 218.033 477.807 217.955 477.492 218.175C476.953 218.551 476.322 218.75 475.667 218.75C473.905 218.75 472.473 217.317 472.473 215.555V214.444C472.473 212.683 473.905 211.25 475.667 211.25Z" fill="white" fill-opacity="0.8"/>
</g>
</g>
<g id="logo-css">
<path id="path4436" d="M175.642 137L173.942 152.093C171.422 153.589 168.258 154.48 164.821 154.48C161.385 154.48 158.22 153.589 155.701 152.093L154 137H175.642Z" fill="#006BC0" fill-opacity="0.5"/>
<path id="polygon4438" d="M164.821 138.419V154.181L171.935 152.644L173.522 138.419H164.821Z" fill="#0096DC" fill-opacity="0.5"/>
<path id="polygon4440" d="M158.771 146.719H168.043L167.739 149.33L164.821 149.935L161.781 149.284L161.705 147.655H158.874L159.228 150.866L164.821 152.076L170.414 150.866L171.107 144.584L171.107 144.584H165.976L171.337 142.496L171.569 140.397H158.073L158.309 142.537H163.727L158.529 144.526L158.771 146.719Z" fill="white" fill-opacity="0.5"/>
</g>
<g id="logo-html">
<path id="path4512" d="M441 215L441.633 223.915L445.5 225.186L449.368 223.915L450 215H441Z" fill="#FF7816" fill-opacity="0.7"/>
<path id="path4514" d="M450 215L449.368 223.915L445.5 225.186V215H450Z" fill="#FF4B00" fill-opacity="0.7"/>
<path id="path4516" d="M448.311 217.706H443.889L443.996 219.198H448.204L447.947 222.81L445.5 223.628L443.053 222.81L442.97 221.605H444.163L444.187 221.933L445.5 222.369L446.813 221.933L446.921 220.391H442.88L442.606 216.512H448.395L448.311 217.706Z" fill="#ECECF1" fill-opacity="0.7"/>
<g id="g4522">
<path id="path4518" d="M448.204 219.198L447.947 222.81L445.5 223.628V222.369L446.813 221.933L446.921 220.391H445.5V219.198H448.204Z" fill="#E2E2E7" fill-opacity="0.7"/>
<path id="path4520" d="M448.395 216.512L448.311 217.706H445.5V216.512H448.395Z" fill="#E2E2E7" fill-opacity="0.7"/>
</g>
</g>
<path id="js" d="M462.806 239H445.589C445.264 239 445 239.264 445 239.589V256.806C445 257.131 445.264 257.395 445.589 257.395H462.806C463.131 257.395 463.395 257.131 463.395 256.806V239.589C463.395 239.264 463.131 239 462.806 239ZM453.453 249.225C453.453 250.32 452.839 251.001 451.85 251.001C451.229 251.001 450.675 250.689 450.288 250.124C450.117 249.874 450.181 249.532 450.431 249.361C450.682 249.19 451.023 249.254 451.194 249.504C451.375 249.769 451.596 249.903 451.85 249.903C452.051 249.903 452.356 249.903 452.356 249.225V246.431H450.856C450.553 246.431 450.308 246.185 450.308 245.882C450.308 245.579 450.553 245.334 450.856 245.334H452.904C453.207 245.334 453.453 245.579 453.453 245.882V249.225ZM456.149 251.1C455.414 251.1 454.663 250.79 454.191 250.291C453.982 250.071 453.992 249.723 454.212 249.515C454.432 249.307 454.78 249.316 454.988 249.536C455.252 249.815 455.719 250.003 456.149 250.003C456.59 250.003 457.105 249.874 457.105 249.511C457.108 249.169 456.926 249.041 456.08 248.785C455.334 248.559 454.207 248.218 454.207 246.918C454.207 245.947 455.049 245.294 456.302 245.294C456.86 245.294 457.468 245.464 457.889 245.736C458.144 245.9 458.217 246.24 458.052 246.495C457.888 246.749 457.548 246.822 457.294 246.658C457.052 246.501 456.644 246.392 456.302 246.392C455.842 246.392 455.304 246.53 455.304 246.918C455.304 247.34 455.551 247.478 456.399 247.735C457.121 247.954 458.213 248.284 458.203 249.516C458.203 250.462 457.378 251.1 456.149 251.1Z" fill="#FFCE54"/>
<g id="java">
<path id="path4162" d="M496.145 257.572C496.145 261.094 494.243 264.172 491.409 265.834C491.333 265.879 491.256 265.923 491.178 265.965C489.812 266.717 488.242 267.145 486.573 267.145C485.281 267.145 484.049 266.889 482.925 266.425C482.745 266.351 482.567 266.271 482.392 266.186C479.2 264.634 477 261.36 477 257.572C477 252.286 481.286 248 486.573 248C491.859 248 496.145 252.286 496.145 257.572Z" fill="#F7921D"/>
<path id="path4542_2" d="M488.525 265.194C483.237 265.194 478.951 260.908 478.951 255.62C478.951 253.474 479.657 251.492 480.85 249.896C478.513 251.641 477 254.429 477 257.57C477 262.858 481.287 267.145 486.574 267.145C489.716 267.145 492.504 265.632 494.249 263.295C492.653 264.488 490.671 265.194 488.525 265.194Z" fill="#FF7A00"/>
<g id="g4188">
<g id="path4164">
<path d="M488.099 248.758C488.443 250.073 488.349 250.73 486.533 252.233C484.718 253.735 484.436 253.766 484.436 254.705C484.436 255.644 485.829 257.131 486.502 257.554C486.502 257.554 486.393 257.288 486.142 256.881C485.892 256.474 485.125 255.785 485.266 254.737C485.407 253.688 487.621 252.35 488.192 251.341C488.764 250.331 488.631 249.478 488.099 248.758Z" fill="white"/>
<path d="M488.099 248.758C488.443 250.073 488.349 250.73 486.533 252.233C484.718 253.735 484.436 253.766 484.436 254.705C484.436 255.644 485.829 257.131 486.502 257.554C486.502 257.554 486.393 257.288 486.142 256.881C485.892 256.474 485.125 255.785 485.266 254.737C485.407 253.688 487.621 252.35 488.192 251.341C488.764 250.331 488.631 249.478 488.099 248.758Z" fill="url(#paint0_linear)"/>
</g>
<g id="path4166">
<path d="M490.102 252.076C488.537 252.593 486.596 253.406 486.596 254.987C486.596 256.568 487.598 256.27 487.598 257.116C487.598 257.961 487.05 258.211 487.05 258.211C487.05 258.211 488.49 257.663 488.427 256.568C488.365 255.472 487.504 255.629 487.504 254.611C487.504 253.324 490.102 252.076 490.102 252.076Z" fill="white"/>
<path d="M490.102 252.076C488.537 252.593 486.596 253.406 486.596 254.987C486.596 256.568 487.598 256.27 487.598 257.116C487.598 257.961 487.05 258.211 487.05 258.211C487.05 258.211 488.49 257.663 488.427 256.568C488.365 255.472 487.504 255.629 487.504 254.611C487.504 253.324 490.102 252.076 490.102 252.076Z" fill="url(#paint1_linear)"/>
</g>
<g id="path4168">
<path d="M484.561 257.679C482.996 257.679 481.917 258.258 481.917 258.587C481.917 258.915 483.842 259.228 485.923 259.088C488.005 258.947 489.1 258.775 489.93 258.274C489.93 258.274 488.458 258.618 487.332 258.618C486.205 258.618 482.984 258.819 483.059 258.336C483.134 257.853 485 257.679 485 257.679L484.561 257.679Z" fill="white"/>
<path d="M484.561 257.679C482.996 257.679 481.917 258.258 481.917 258.587C481.917 258.915 483.842 259.228 485.923 259.088C488.005 258.947 489.1 258.775 489.93 258.274C489.93 258.274 488.458 258.618 487.332 258.618C486.205 258.618 482.984 258.819 483.059 258.336C483.134 257.853 485 257.679 485 257.679L484.561 257.679Z" fill="url(#paint2_linear)"/>
</g>
<g id="path4170">
<path d="M483.982 259.51C483.153 259.808 482.934 260.105 483.419 260.418C483.904 260.731 484.859 260.825 486.173 260.825C487.488 260.825 489.319 260.371 489.319 260.371L488.725 259.901C488.725 259.901 487.911 260.199 486.361 260.199C484.812 260.199 483.255 260.238 483.982 259.51Z" fill="white"/>
<path d="M483.982 259.51C483.153 259.808 482.934 260.105 483.419 260.418C483.904 260.731 484.859 260.825 486.173 260.825C487.488 260.825 489.319 260.371 489.319 260.371L488.725 259.901C488.725 259.901 487.911 260.199 486.361 260.199C484.812 260.199 483.255 260.238 483.982 259.51Z" fill="url(#paint3_linear)"/>
</g>
<g id="path4172">
<path d="M484.358 261.279C483.544 261.56 483.372 261.936 484.092 262.28C484.812 262.625 486.189 262.687 487.206 262.546C488.224 262.406 489.085 262.093 489.085 262.093C489.085 262.093 488.529 261.881 488.271 261.623C488.271 261.623 487.081 261.873 485.954 261.873C484.827 261.873 483.92 261.717 484.358 261.279Z" fill="white"/>
<path d="M484.358 261.279C483.544 261.56 483.372 261.936 484.092 262.28C484.812 262.625 486.189 262.687 487.206 262.546C488.224 262.406 489.085 262.093 489.085 262.093C489.085 262.093 488.529 261.881 488.271 261.623C488.271 261.623 487.081 261.873 485.954 261.873C484.827 261.873 483.92 261.717 484.358 261.279Z" fill="url(#paint4_linear)"/>
</g>
<g id="path4174">
<path d="M490.431 257.773C490.431 257.773 490.822 257.241 491.808 257.648C492.794 258.055 492.763 259.15 491.87 259.808C490.978 260.465 489.898 260.684 489.898 260.684C489.898 260.684 491.902 259.808 491.855 258.728C491.808 257.648 490.884 257.679 490.431 257.773Z" fill="white"/>
<path d="M490.431 257.773C490.431 257.773 490.822 257.241 491.808 257.648C492.794 258.055 492.763 259.15 491.87 259.808C490.978 260.465 489.898 260.684 489.898 260.684C489.898 260.684 491.902 259.808 491.855 258.728C491.808 257.648 490.884 257.679 490.431 257.773Z" fill="url(#paint5_linear)"/>
</g>
<g id="path4176">
<path d="M482.417 263.47C485.501 264.033 490.196 263.454 491.025 263.251C491.855 263.047 491.551 262.606 491.551 262.606C491.754 262.749 491.844 262.907 491.761 263.079C491.307 264.018 486.987 264.174 485.72 264.174C484.452 264.174 480.602 264.096 480.602 263.407C480.602 262.727 482.418 262.306 483.096 262.463C481.821 262.827 481.064 263.222 482.417 263.47Z" fill="white"/>
<path d="M482.417 263.47C485.501 264.033 490.196 263.454 491.025 263.251C491.855 263.047 491.551 262.606 491.551 262.606C491.754 262.749 491.844 262.907 491.761 263.079C491.307 264.018 486.987 264.174 485.72 264.174C484.452 264.174 480.602 264.096 480.602 263.407C480.602 262.727 482.418 262.306 483.096 262.463C481.821 262.827 481.064 263.222 482.417 263.47Z" fill="url(#paint6_linear)"/>
</g>
<g id="path4178">
<path d="M482.77 264.475C482.77 264.475 483.861 265.309 489.296 264.828C491.467 264.651 492.371 264.111 492.489 263.513C492.489 263.513 491.491 264.076 490.258 264.311C489.026 264.546 486.995 264.91 482.77 264.475Z" fill="white"/>
<path d="M482.77 264.475C482.77 264.475 483.861 265.309 489.296 264.828C491.467 264.651 492.371 264.111 492.489 263.513C492.489 263.513 491.491 264.076 490.258 264.311C489.026 264.546 486.995 264.91 482.77 264.475Z" fill="url(#paint7_linear)"/>
</g>
</g>
</g>
<g id="plant">
<path id="path3948" d="M496.479 278.76L489.963 276.48C487.362 275.57 484.504 275.752 482.04 276.985C479.576 278.219 477.717 280.397 476.888 283.025L475.183 288.424L473.504 289.683V278.407C473.502 276.904 474.254 275.5 475.505 274.668L474.636 273.365C472.948 274.487 471.935 276.38 471.937 278.407V279.959L470.924 278.946L469.817 280.054L471.937 282.174V299.382L470.37 298.599V296.988C470.37 293.047 468.476 289.347 465.279 287.042C462.082 284.739 457.972 284.112 454.234 285.358L450.539 286.59C450.218 286.696 450 286.995 450 287.334C450 287.672 450.218 287.972 450.539 288.078L451.378 288.358C455.399 289.695 459.151 291.735 462.459 294.383L469.098 299.694C469.142 299.726 469.191 299.752 469.242 299.773L469.237 299.783L471.937 301.134V303H473.504V291.642L476.324 289.526L476.315 289.516C476.347 289.497 476.378 289.476 476.408 289.454C481.368 284.509 487.829 281.349 494.777 280.469L496.318 280.277C496.679 280.231 496.961 279.944 496.999 279.582C497.038 279.221 496.823 278.88 496.479 278.76Z" fill="#3D7606"/>
<path id="path3950" d="M480.138 262.633L479.771 256.734C479.747 256.363 479.466 256.059 479.098 256.007C478.731 255.958 478.379 256.171 478.252 256.52L475.718 263.61C474.771 266.259 474.286 269.051 474.287 271.864V274.016C474.287 274.333 474.478 274.619 474.771 274.74C475.063 274.861 475.4 274.794 475.624 274.57C478.771 271.423 480.415 267.076 480.138 262.633Z" fill="#5FA819"/>
<path id="path3952" d="M461.701 266.383L456.518 264.66C456.25 264.571 455.955 264.632 455.745 264.821C455.535 265.01 455.443 265.298 455.505 265.573L456.367 269.46C457.746 275.802 463.375 280.315 469.865 280.283H470.37C470.803 280.283 471.154 279.932 471.154 279.5C471.159 273.547 467.349 268.262 461.701 266.383Z" fill="#5FA819"/>
<g id="g3960">
<path id="path3954" d="M465.553 276.836C462.551 274.989 460.09 272.382 458.419 269.279L455.948 264.689C455.607 264.836 455.42 265.207 455.505 265.569L456.367 269.456C457.745 275.8 463.374 280.314 469.865 280.283H470.37C470.549 280.28 470.72 280.215 470.856 280.1L465.553 276.836Z" fill="#589C17"/>
<path id="path3956" d="M482.291 282.398C480.641 283.576 479.336 285.175 478.513 287.028L478.15 287.843C482.853 283.812 488.633 281.248 494.777 280.468L496.269 280.283H488.895C486.527 280.282 484.218 281.022 482.291 282.398Z" fill="#589C17"/>
<path id="path3958" d="M469.998 300.164L469.982 300.078C468.424 291.509 460.626 285.514 451.944 286.213L451.579 286.242L450.539 286.589C450.218 286.695 450 286.995 450 287.333C450 287.672 450.218 287.972 450.539 288.077L451.378 288.357C455.399 289.694 459.151 291.734 462.459 294.383L469.098 299.694C469.142 299.725 469.191 299.752 469.242 299.773L469.237 299.783L469.998 300.164Z" fill="#589C17"/>
</g>
</g>
<g id="books">
<path id="path3674" fill-rule="evenodd" clip-rule="evenodd" d="M466.113 325.99L489.611 323.369C492.344 323.369 494.581 321.132 494.581 318.399V312.684V306.97C494.581 304.237 492.344 302 489.611 302H483.343H448.727H441.623C440.18 302 439.002 303.178 439.002 304.621C439.002 306.064 440.18 307.243 441.623 307.243H444.092L489.338 312.684L444.092 318.126H441.623C440.18 318.126 439.002 319.304 439.002 320.747C439.002 322.19 440.18 323.369 441.623 323.369L466.113 325.99Z" fill="#528EBA"/>
<path id="path3678" fill-rule="evenodd" clip-rule="evenodd" d="M444.092 318.126H488.015C488.743 318.126 489.338 317.53 489.338 316.803V308.566C489.338 307.838 488.743 307.243 488.015 307.243H444.092C444.956 309.054 445.39 310.865 445.386 312.684C445.386 314.491 444.956 316.306 444.092 318.126Z" fill="#CAC6C6"/>
<path id="path3682" fill-rule="evenodd" clip-rule="evenodd" d="M488.015 307.243H444.092C444.518 308.132 444.836 309.021 445.051 309.91H484.947C485.671 309.91 486.266 310.505 486.266 311.233V318.126H488.015C488.743 318.126 489.339 317.53 489.339 316.803V308.566C489.338 307.838 488.743 307.243 488.015 307.243Z" fill="#B3B0C2"/>
<path id="path3690" fill-rule="evenodd" clip-rule="evenodd" d="M489.611 302H483.343H479.341C480.2 303.592 480.862 305.357 481.284 307.243H488.015C488.743 307.243 489.338 307.838 489.338 308.566V316.803C489.338 317.531 488.743 318.126 488.015 318.126H486.266H480.945C480.387 320.036 479.576 321.806 478.555 323.369H489.611C492.344 323.369 494.581 321.132 494.581 318.399V312.685V306.97C494.581 304.237 492.344 302 489.611 302Z" fill="#2D77AD"/>
<path id="path3694" fill-rule="evenodd" clip-rule="evenodd" d="M441.624 323.369H440.966C438.233 323.369 436 325.606 436 328.339V334.053V339.768C436 342.501 438.237 344.738 440.966 344.738H501.379C502.47 344.738 503.413 344.06 503.806 343.105C503.93 342.799 504 342.464 504 342.116C504 341.765 503.93 341.43 503.806 341.124C503.413 340.169 502.47 339.495 501.379 339.495H498.91L441.243 334.533L498.91 328.612H501.379C502.47 328.612 503.413 327.938 503.806 326.983C503.93 326.677 504 326.342 504 325.99C504 325.643 503.93 325.308 503.806 325.002C503.413 324.047 502.47 323.369 501.379 323.369C481.462 323.369 461.541 323.369 441.624 323.369Z" fill="#496793"/>
<g id="Group 6">
<path id="path3698" fill-rule="evenodd" clip-rule="evenodd" d="M498.91 339.495H488.11C487.407 341.442 486.432 343.212 485.245 344.738H501.379C502.47 344.738 503.413 344.06 503.806 343.104C503.93 342.798 504 342.463 504 342.116C504 341.765 503.93 341.43 503.806 341.124C503.413 340.169 502.47 339.495 501.379 339.495H498.91Z" fill="#2F4F7E"/>
<path id="path3702" fill-rule="evenodd" clip-rule="evenodd" d="M501.379 323.369H489.611H487.527C488.255 324.985 488.793 326.747 489.09 328.612H498.91H501.379C502.47 328.612 503.413 327.938 503.806 326.983C503.93 326.677 504 326.342 504 325.99C504 325.643 503.93 325.308 503.806 325.002C503.413 324.047 502.47 323.369 501.379 323.369Z" fill="#2F4F7E"/>
</g>
<path id="path3706" fill-rule="evenodd" clip-rule="evenodd" d="M497.616 334.053C497.612 332.234 498.046 330.419 498.91 328.612C468.574 328.612 461.987 328.612 442.566 328.612C441.839 328.612 441.243 329.207 441.243 329.935V338.172C441.243 338.899 441.839 339.495 442.566 339.495H498.91C498.046 337.675 497.616 335.86 497.616 334.053Z" fill="#CAC6C6"/>
<path id="path3710" fill-rule="evenodd" clip-rule="evenodd" d="M453.759 328.612H442.566C441.839 328.612 441.243 329.207 441.243 329.935V334.053C441.243 333.326 441.839 332.73 442.566 332.73H453.759H455.177H460.945H462.359H497.69C497.848 331.357 498.257 329.985 498.91 328.612H462.363H453.759Z" fill="#B3B0C2"/>
<g id="bookmark">
<path id="path3714" fill-rule="evenodd" clip-rule="evenodd" d="M453.759 333.044C453.71 333.673 453.954 333.876 454.483 333.392L458.059 329.98L461.636 333.392C462.165 333.876 462.413 333.673 462.359 333.044C462.363 326.259 462.363 319.47 462.368 312.684H453.755C453.755 319.47 453.759 326.259 453.759 333.044Z" fill="#EB5468"/>
<path id="path3718" fill-rule="evenodd" clip-rule="evenodd" d="M462.367 312.684H459.428C459.424 318.882 459.424 325.081 459.424 331.279L460.945 332.73L461.636 333.392C462.165 333.876 462.413 333.673 462.359 333.044V332.73C462.363 326.048 462.363 319.366 462.367 312.684Z" fill="#E5384F"/>
</g>
<path id="path3722" d="M470.575 313.711H445.386C444.82 313.711 444.36 313.251 444.36 312.684C444.36 312.118 444.82 311.658 445.386 311.658H470.575C471.142 311.658 471.601 312.118 471.601 312.684C471.601 313.251 471.142 313.711 470.575 313.711Z" fill="#B3B0C2"/>
</g>
<g id="python">
<path id="path4863" d="M120.899 179.984H115.922V184.906H103.891V190.922C103.891 191.526 104.381 192.016 104.985 192.016V195.898C104.985 198.164 106.821 200 109.086 200H112.914C115.18 200 117.016 198.164 117.016 195.898V193.656H112.117C111.675 193.656 111.295 193.317 111.275 192.876C111.252 192.404 111.628 192.016 112.094 192.016H120.899C123.164 192.016 125 190.179 125 187.914V184.086C125 181.821 123.164 179.984 120.899 179.984Z" fill="#FFDC00"/>
<path id="path4865" d="M120.899 179.984H115.922V184.906H111V200H112.914C115.18 200 117.016 198.164 117.016 195.898V193.656H112.117C111.675 193.656 111.295 193.317 111.275 192.876C111.252 192.404 111.628 192.016 112.094 192.016H120.899C123.164 192.016 125 190.179 125 187.914V184.086C125 181.821 123.164 179.984 120.899 179.984Z" fill="#FEC108"/>
<path id="path4867" d="M107.172 186H114.828C116.036 186 117.016 185.021 117.016 183.812V176.102C117.016 173.84 115.176 172 112.914 172H109.086C106.825 172 104.985 173.84 104.985 176.102V178.344H109.906C110.36 178.344 110.727 178.711 110.727 179.164C110.727 179.617 110.36 179.984 109.906 179.984H101.102C98.8402 179.984 97.0002 181.824 97.0002 184.086V187.914C97.0002 190.176 98.8402 192.016 101.102 192.016H104.985V188.187C104.985 186.979 105.964 186 107.172 186Z" fill="#3F51B5"/>
<path id="path4869" d="M112.914 172H111V186H114.828C116.036 186 117.016 185.021 117.016 183.812V176.102C117.016 173.84 115.176 172 112.914 172Z" fill="#283593"/>
<path id="path4871" d="M109.907 175.336C109.907 175.789 109.539 176.156 109.086 176.156C108.633 176.156 108.266 175.789 108.266 175.336C108.266 174.883 108.633 174.516 109.086 174.516C109.539 174.516 109.907 174.883 109.907 175.336Z" fill="#5A5A6E"/>
<path id="path4873" d="M113.735 196.664C113.735 197.117 113.367 197.484 112.914 197.484C112.461 197.484 112.094 197.117 112.094 196.664C112.094 196.211 112.461 195.844 112.914 195.844C113.367 195.844 113.735 196.211 113.735 196.664Z" fill="#46465A"/>
</g>
<g id="tag">
<path id="path4089" d="M106.386 332.043C105.186 330.844 103.243 330.844 102.043 332.043L95.9 338.186C94.7003 339.386 94.7003 341.33 95.9 342.529L102.043 348.672C103.243 349.872 105.186 349.872 106.386 348.672C107.586 347.473 107.586 345.529 106.386 344.329L102.415 340.358L106.386 336.386C107.586 335.187 107.586 333.243 106.386 332.043Z" fill="#3F434F" fill-opacity="0.3"/>
<path id="path4091" d="M137.1 342.529C138.3 341.33 138.3 339.386 137.1 338.186L130.958 332.043C129.758 330.843 127.814 330.843 126.614 332.043C125.415 333.243 125.415 335.187 126.614 336.386L130.586 340.358L126.614 344.329C125.415 345.529 125.415 347.473 126.614 348.672C127.814 349.872 129.758 349.872 130.958 348.672L137.1 342.529Z" fill="#3F434F" fill-opacity="0.3"/>
<path id="path4093" d="M120.316 325.093C118.654 324.68 116.998 325.678 116.59 327.328L110.447 351.9C110.04 353.543 111.035 355.211 112.685 355.622C114.328 356.033 116 355.037 116.41 353.388L122.553 328.816C122.961 327.172 121.965 325.504 120.316 325.093Z" fill="#3F434F" fill-opacity="0.3"/>
</g>
<g id="brackets">
<path id="path4267" d="M347.38 125C344.424 125 342.02 123.62 342.02 121.923V117.308C342.02 116.459 340.819 115.769 339.34 115.769C338.6 115.769 338 115.424 338 115C338 114.575 338.6 114.231 339.34 114.231C340.819 114.231 342.02 113.541 342.02 112.692V108.077C342.02 106.38 344.424 105 347.38 105C348.12 105 348.72 105.344 348.72 105.769C348.72 106.194 348.12 106.538 347.38 106.538C345.902 106.538 344.7 107.228 344.7 108.077V112.692C344.7 113.61 343.997 114.436 342.882 115C343.997 115.564 344.7 116.39 344.7 117.308V121.923C344.7 122.771 345.902 123.461 347.38 123.461C348.12 123.461 348.72 123.806 348.72 124.231C348.72 124.656 348.12 125 347.38 125Z" fill="#3F434F" fill-opacity="0.3"/>
<path id="path4269" d="M363.459 125C362.72 125 362.12 124.656 362.12 124.231C362.12 123.806 362.72 123.461 363.459 123.461C364.938 123.461 366.139 122.771 366.139 121.923V117.308C366.139 116.39 366.843 115.564 367.958 115C366.843 114.436 366.139 113.61 366.139 112.692V108.077C366.139 107.228 364.938 106.538 363.459 106.538C362.72 106.538 362.12 106.194 362.12 105.769C362.12 105.344 362.72 105 363.459 105C366.416 105 368.819 106.38 368.819 108.077V112.692C368.819 113.541 370.021 114.231 371.5 114.231C372.239 114.231 372.839 114.575 372.839 115C372.839 115.424 372.239 115.769 371.5 115.769C370.021 115.769 368.819 116.459 368.819 117.308V121.923C368.819 123.62 366.416 125 363.459 125Z" fill="#3F434F" fill-opacity="0.3"/>
<path id="path4271" d="M355.42 113.461C354.68 113.461 354.08 113.117 354.08 112.692V111.154C354.08 110.729 354.68 110.385 355.42 110.385C356.16 110.385 356.76 110.729 356.76 111.154V112.692C356.76 113.117 356.16 113.461 355.42 113.461Z" fill="#3F434F" fill-opacity="0.3"/>
<path id="path4273" d="M355.42 122.692C354.68 122.692 354.08 122.348 354.08 121.923V117.307C354.08 116.883 354.68 116.539 355.42 116.539C356.16 116.539 356.76 116.883 356.76 117.307V121.923C356.76 122.348 356.16 122.692 355.42 122.692Z" fill="#3F434F" fill-opacity="0.3"/>
</g>
</g>
<defs>
<linearGradient id="paint0_linear" x1="486.5" y1="248.758" x2="486.5" y2="257.554" gradientUnits="userSpaceOnUse">
<stop stop-color="#FEC108"/>
<stop offset="1" stop-color="white" stop-opacity="0"/>
</linearGradient>
<linearGradient id="paint1_linear" x1="488.349" y1="252.076" x2="488.349" y2="258.211" gradientUnits="userSpaceOnUse">
<stop stop-color="#FEC108"/>
<stop offset="1" stop-color="white" stop-opacity="0"/>
</linearGradient>
<linearGradient id="paint2_linear" x1="485.923" y1="257.679" x2="485.923" y2="259.122" gradientUnits="userSpaceOnUse">
<stop stop-color="#FEC108"/>
<stop offset="1" stop-color="white" stop-opacity="0"/>
</linearGradient>
<linearGradient id="paint3_linear" x1="486.242" y1="259.51" x2="486.242" y2="260.825" gradientUnits="userSpaceOnUse">
<stop stop-color="#FEC108"/>
<stop offset="1" stop-color="white" stop-opacity="0"/>
</linearGradient>
<linearGradient id="paint4_linear" x1="486.361" y1="261.279" x2="486.361" y2="262.617" gradientUnits="userSpaceOnUse">
<stop stop-color="#FEC108"/>
<stop offset="1" stop-color="white" stop-opacity="0"/>
</linearGradient>
<linearGradient id="paint5_linear" x1="491.221" y1="257.494" x2="491.221" y2="260.684" gradientUnits="userSpaceOnUse">
<stop stop-color="#FEC108"/>
<stop offset="1" stop-color="white" stop-opacity="0"/>
</linearGradient>
<linearGradient id="paint6_linear" x1="486.197" y1="262.43" x2="486.197" y2="264.174" gradientUnits="userSpaceOnUse">
<stop stop-color="#FEC108"/>
<stop offset="1" stop-color="white" stop-opacity="0"/>
</linearGradient>
<linearGradient id="paint7_linear" x1="487.629" y1="263.513" x2="487.629" y2="264.977" gradientUnits="userSpaceOnUse">
<stop stop-color="#FEC108"/>
<stop offset="1" stop-color="white" stop-opacity="0"/>
</linearGradient>
</defs>
</svg>
