<svg width="200" height="186" viewBox="0 0 200 186" fill="none" xmlns="http://www.w3.org/2000/svg">
<g id="news-letter">
<circle id="c4" cx="26.5" cy="29.5" r="14" stroke="#F7921D"/>
<circle id="c3" cx="17.9542" cy="63.9749" r="8.96455" transform="rotate(-0.576655 17.9542 63.9749)" fill="#F7921D"/>
<circle id="c2" cx="3.5" cy="54.5" r="3" stroke="#F7921D"/>
<circle id="c1" cx="46" cy="15" r="5" fill="#F7921D"/>
<path id="Vector" d="M199.172 86.8053C199.176 86.899 199.143 86.9904 199.082 87.0611C199.017 87.1369 198.925 87.1838 198.825 87.1915C198.726 87.1993 198.628 87.1673 198.552 87.1024L197.292 86.0157L175.872 67.563L115.795 15.7999C115.452 15.5065 115.016 15.3456 114.565 15.3463C114.113 15.347 113.677 15.5092 113.336 15.8037L32.4325 86.0909L31.703 86.7226C31.6749 86.7474 31.6432 86.7677 31.6089 86.7828C31.5487 86.8095 31.4826 86.8198 31.4171 86.8129C31.3231 86.8029 31.2362 86.7587 31.1727 86.6888C31.14 86.6518 31.115 86.6087 31.099 86.562C31.083 86.5153 31.0764 86.4659 31.0795 86.4167C31.0826 86.3674 31.0955 86.3192 31.1173 86.275C31.139 86.2307 31.1694 86.1911 31.2065 86.1586L31.308 86.0683L112.843 15.2358C113.322 14.8243 113.932 14.5975 114.564 14.5961C115.195 14.5947 115.807 14.8189 116.287 15.2283L176.384 67.0064L199.041 86.5309C199.08 86.5651 199.112 86.6072 199.135 86.6544C199.158 86.7016 199.17 86.753 199.172 86.8053V86.8053Z" fill="white"/>
<g id="letter1">
<path id="Vector_2" d="M153.494 97.91L152.505 95.1875L149.098 85.7862L141.757 65.5436L133.552 42.9167L118.754 2.10419C118.464 1.30831 117.87 0.660012 117.102 0.301258C116.335 -0.0574959 115.456 -0.0974636 114.659 0.190107L29.1046 31.2103C28.3084 31.5006 27.6599 32.0947 27.3011 32.8623C26.9423 33.63 26.9025 34.5086 27.1905 35.3055L48.1703 93.1643L48.5274 94.1533L70.5488 104.134L76.7386 106.939L77.7426 107.394L103.95 119.273L104.965 118.905L122.154 112.674L148.083 103.272L151.576 102.005C152.372 101.715 153.022 101.121 153.381 100.354C153.741 99.5863 153.781 98.7075 153.494 97.91V97.91Z" fill="#A4D2C4"/>
<path id="Vector_3" d="M117.619 49.7156C117.192 48.5443 116.318 47.59 115.189 47.062C114.06 46.534 112.767 46.4753 111.594 46.899L77.7426 59.1769L61.3959 65.1035C60.815 65.3134 60.2813 65.6357 59.8251 66.0521C59.3689 66.4684 58.9993 66.9706 58.7373 67.5299C58.4753 68.0892 58.3261 68.6946 58.2982 69.3116C58.2704 69.9285 58.3644 70.545 58.5749 71.1256C58.7854 71.7062 59.1083 72.2396 59.5251 72.6954C59.9418 73.1512 60.4444 73.5203 61.0039 73.7818C61.5635 74.0432 62.1691 74.1918 62.7861 74.219C63.4031 74.2463 64.0194 74.1517 64.5998 73.9406L77.7426 69.1761L114.802 55.7399C115.974 55.3131 116.928 54.4392 117.456 53.3099C117.984 52.1806 118.042 50.888 117.619 49.7156V49.7156Z" fill="white"/>
<path id="Vector_4" d="M123.579 66.1565C123.152 64.9852 122.279 64.0309 121.149 63.5029C120.02 62.9749 118.727 62.9163 117.555 63.3399L111.82 65.4194L77.7427 77.7764L67.3563 81.5406C66.1851 81.9663 65.2307 82.8396 64.703 83.9686C64.1753 85.0976 64.1173 86.3899 64.5419 87.5615C64.9666 88.7332 65.839 89.6884 66.9675 90.2171C68.096 90.7459 69.3882 90.805 70.5603 90.3815L77.7426 87.7755L120.763 72.177C120.86 72.1432 120.954 72.1018 121.048 72.0604C122.141 71.5812 123.01 70.7046 123.48 69.6083C123.95 68.512 123.985 67.278 123.579 66.1565V66.1565Z" fill="white"/>
<path id="Vector_5" d="M129.603 82.7702C129.178 81.5991 128.304 80.6448 127.176 80.1168C126.047 79.5887 124.755 79.53 123.583 79.9536L107.499 85.7861L95.0483 90.3024L77.7426 96.5749L73.3805 98.1581C72.3724 98.5253 71.5198 99.2257 70.9639 100.143C70.4079 101.061 70.1819 102.141 70.3231 103.205C70.3662 103.521 70.4419 103.832 70.5488 104.133L76.7386 106.939L77.7426 106.574H77.7501L109.154 95.1873L126.787 88.7945C127.959 88.3686 128.914 87.4949 129.442 86.3653C129.97 85.2357 130.028 83.9426 129.603 82.7702H129.603Z" fill="white"/>
<path id="Vector_6" d="M94.3563 33.5532C93.9295 32.3819 93.0557 31.4276 91.9264 30.8996C90.7971 30.3716 89.5045 30.313 88.3321 30.7366L68.8903 37.7837C67.719 38.2094 66.7646 39.0827 66.2369 40.2117C65.7092 41.3407 65.6513 42.633 66.0759 43.8047C66.5005 44.9763 67.3729 45.9315 68.5014 46.4603C69.6299 46.989 70.9221 47.0481 72.0942 46.6246L78.2465 44.3947L82.3189 42.9168L91.5398 39.5737C92.7109 39.1478 93.6652 38.2746 94.1932 37.1459C94.7212 36.0172 94.7799 34.7251 94.3563 33.5532Z" fill="white"/>
</g>
<g id="letter2">
<path id="Vector_7" d="M171.943 42.9166H80.939C80.4022 42.9172 79.8742 43.0528 79.4037 43.3111C78.9332 43.5694 78.5352 43.942 78.2466 44.3945C77.9166 44.9069 77.7416 45.5036 77.7426 46.113V107.394L103.95 119.273L107.642 120.947L113.475 123.59C113.816 123.745 114.187 123.824 114.562 123.824C114.936 123.824 115.307 123.745 115.648 123.59L121.481 120.947L139.734 112.674L156.747 104.961L175.139 96.6276V46.113C175.139 45.2655 174.802 44.4528 174.202 43.8534C173.603 43.2541 172.79 42.9172 171.943 42.9166Z" fill="#004AAA"/>
<path id="Vector_8" d="M153.14 85.7863H99.7413C98.5271 85.787 97.3603 86.2576 96.4855 87.0995C95.6106 87.9415 95.0955 89.0893 95.0482 90.3026C95.042 90.3638 95.0395 90.4253 95.0407 90.4869C95.0425 91.733 95.5383 92.9276 96.4194 93.8088C97.3006 94.6899 98.4952 95.1857 99.7413 95.1875H153.14C154.387 95.1875 155.583 94.6922 156.464 93.8107C157.346 92.9292 157.841 91.7335 157.841 90.4869C157.841 89.2402 157.346 88.0446 156.464 87.163C155.583 86.2815 154.387 85.7863 153.14 85.7863Z" fill="white"/>
<path id="Vector_9" d="M156.182 104.393C155.335 103.668 154.256 103.27 153.14 103.272H99.7413C98.4946 103.272 97.299 103.768 96.4174 104.649C95.5359 105.531 95.0406 106.726 95.0406 107.973C95.0406 109.22 95.5359 110.415 96.4174 111.297C97.299 112.178 98.4946 112.674 99.7413 112.674H139.734L156.747 104.961C156.575 104.756 156.386 104.566 156.182 104.393Z" fill="white"/>
<path id="Vector_10" d="M107.642 120.947L113.475 123.59C113.816 123.745 114.187 123.824 114.561 123.824C114.936 123.824 115.307 123.745 115.648 123.59L121.481 120.947H107.642Z" fill="white"/>
<path id="Vector_11" d="M141.197 65.7467C140.866 64.8418 140.265 64.0604 139.476 63.5082C138.686 62.956 137.746 62.6597 136.782 62.6593H116.1C115.197 62.6601 114.313 62.9208 113.554 63.4103C112.795 63.8997 112.193 64.5972 111.82 65.4195C111.542 66.0284 111.398 66.6903 111.399 67.3599C111.401 68.606 111.896 69.8006 112.778 70.6818C113.659 71.563 114.853 72.0588 116.1 72.0605H136.782C137.538 72.0606 138.283 71.8782 138.954 71.5288C139.625 71.1795 140.201 70.6735 140.635 70.0538C141.068 69.434 141.345 68.7189 141.443 67.9691C141.541 67.2193 141.457 66.4569 141.197 65.7467Z" fill="white"/>
</g>
<path id="Vector_12" d="M137.91 112.674L119.657 120.947L115.336 122.906C115.093 123.016 114.829 123.072 114.562 123.072C114.294 123.072 114.03 123.016 113.787 122.906L109.466 120.947H107.642L113.475 123.59C113.816 123.745 114.187 123.825 114.562 123.825C114.936 123.825 115.307 123.745 115.648 123.59L121.481 120.947L139.734 112.674H137.91ZM137.91 112.674L119.657 120.947L115.336 122.906C115.093 123.016 114.829 123.072 114.562 123.072C114.294 123.072 114.03 123.016 113.787 122.906L109.466 120.947H107.642L113.475 123.59C113.816 123.745 114.187 123.825 114.562 123.825C114.936 123.825 115.307 123.745 115.648 123.59L121.481 120.947L139.734 112.674H137.91ZM137.91 112.674L119.657 120.947L115.336 122.906C115.093 123.016 114.829 123.072 114.562 123.072C114.294 123.072 114.03 123.016 113.787 122.906L109.466 120.947H107.642L113.475 123.59C113.816 123.745 114.187 123.825 114.562 123.825C114.936 123.825 115.307 123.745 115.648 123.59L121.481 120.947L139.734 112.674H137.91ZM199.172 86.8054C199.034 86.6673 198.881 86.5438 198.717 86.4368C198.348 86.1973 197.924 86.0549 197.485 86.0227C197.046 85.9905 196.606 86.0695 196.205 86.2526L156.183 104.393L137.91 112.674L119.657 120.947L115.336 122.906C115.093 123.016 114.829 123.072 114.562 123.072C114.294 123.072 114.03 123.016 113.787 122.906L109.466 120.947L104.965 118.905L77.7501 106.574L77.7426 106.57L70.3232 103.205L48.1703 93.1643L32.9178 86.2526C32.7626 86.1808 32.5999 86.1266 32.4327 86.0909C32.0643 85.9988 31.6799 85.9911 31.3082 86.0683C30.7135 86.19 30.1789 86.5131 29.7947 86.983C29.4104 87.4529 29.1999 88.041 29.1986 88.648V183.085C29.1994 183.783 29.477 184.452 29.9705 184.946C30.4639 185.439 31.133 185.717 31.8309 185.717H197.292C197.99 185.717 198.659 185.439 199.153 184.946C199.646 184.452 199.924 183.783 199.925 183.085V88.648C199.926 87.9588 199.656 87.2968 199.172 86.8053V86.8054ZM199.172 183.085C199.172 183.584 198.974 184.062 198.622 184.414C198.269 184.767 197.791 184.965 197.292 184.965H31.8309C31.3323 184.965 30.8542 184.767 30.5016 184.414C30.1491 184.062 29.9509 183.584 29.9507 183.085V88.648C29.9508 88.3337 30.0297 88.0245 30.1802 87.7486C30.3306 87.4727 30.5478 87.2389 30.8118 87.0686C30.9977 86.9496 31.2024 86.8631 31.4172 86.8129C31.4806 86.7992 31.5446 86.7891 31.6091 86.7828C31.6826 86.7722 31.7567 86.7671 31.8309 86.7677C32.0983 86.7681 32.3624 86.8258 32.6056 86.937L48.5274 94.1533L70.5488 104.134L76.7386 106.939L77.7426 107.394L103.95 119.273L107.642 120.947L113.475 123.59C113.816 123.745 114.187 123.825 114.562 123.825C114.936 123.825 115.307 123.745 115.648 123.59L121.481 120.947L139.734 112.674L156.747 104.961L196.518 86.937C196.804 86.8073 197.118 86.7514 197.431 86.7744C197.744 86.7974 198.047 86.8985 198.311 87.0686C198.342 87.0864 198.37 87.1066 198.398 87.1288C198.428 87.1481 198.456 87.1708 198.481 87.1964C198.697 87.3715 198.871 87.5926 198.991 87.8438C199.111 88.095 199.173 88.3698 199.172 88.648L199.172 183.085ZM137.91 112.674L119.657 120.947L115.336 122.906C115.093 123.016 114.829 123.072 114.562 123.072C114.294 123.072 114.03 123.016 113.787 122.906L109.466 120.947H107.642L113.475 123.59C113.816 123.745 114.187 123.825 114.562 123.825C114.936 123.825 115.307 123.745 115.648 123.59L121.481 120.947L139.734 112.674H137.91ZM137.91 112.674L119.657 120.947L115.336 122.906C115.093 123.016 114.829 123.072 114.562 123.072C114.294 123.072 114.03 123.016 113.787 122.906L109.466 120.947H107.642L113.475 123.59C113.816 123.745 114.187 123.825 114.562 123.825C114.936 123.825 115.307 123.745 115.648 123.59L121.481 120.947L139.734 112.674H137.91ZM76.7386 106.939L77.7426 107.394V106.574L76.7386 106.939ZM137.91 112.674L119.657 120.947L115.336 122.906C115.093 123.016 114.829 123.072 114.562 123.072C114.294 123.072 114.03 123.016 113.787 122.906L109.466 120.947H107.642L113.475 123.59C113.816 123.745 114.187 123.825 114.562 123.825C114.936 123.825 115.307 123.745 115.648 123.59L121.481 120.947L139.734 112.674H137.91Z" fill="white"/>
</g>
</svg>
