<svg width="30" height="30" viewBox="0 0 30 30" fill="none" xmlns="http://www.w3.org/2000/svg">
<path d="M19.479 7.4572C19.2057 7.18414 18.8425 7.03354 18.4561 7.03354C18.0698 7.03354 17.7065 7.18414 17.4335 7.4572C17.1602 7.73048 17.0096 8.09372 17.0096 8.48007C17.0096 8.86642 17.1602 9.22966 17.4333 9.50272L19.8974 11.9669C20.1705 12.2399 20.5339 12.3905 20.9203 12.3905C21.3066 12.3905 21.6696 12.2399 21.9429 11.9669L27.2077 6.70212C27.4809 6.42883 27.6313 6.0656 27.6313 5.67947C27.6313 5.29312 27.4809 4.92989 27.2077 4.6566C26.9346 4.38332 26.5711 4.23294 26.1848 4.23294C25.7984 4.23294 25.4352 4.38332 25.1621 4.6566L24.5817 5.23705C24.1516 4.90883 23.6797 4.64561 23.1796 4.45518V3.79715C23.1796 2.9995 22.5307 2.35062 21.7333 2.35062H17.1977V1.84845C17.1977 0.829239 16.3685 0 15.3493 0H10.2912C9.27201 0 8.44277 0.829239 8.44277 1.84845V3.937C8.44277 4.50325 8.90351 4.96399 9.46976 4.96399H16.1707C16.737 4.96399 17.1977 4.50325 17.1977 3.937V3.2309H21.733C22.0452 3.2309 22.2993 3.48495 22.2993 3.79715V4.2025C21.937 4.12926 21.5662 4.09035 21.191 4.09035C18.1082 4.09035 15.6001 6.59843 15.6001 9.68124C15.6001 12.7641 18.1082 15.2721 21.191 15.2721C21.5671 15.2721 21.9379 15.2344 22.2993 15.1618V28.5537C22.2993 28.8659 22.0452 29.1197 21.733 29.1197H3.90724C3.59505 29.1197 3.34122 28.8659 3.34122 28.5537V3.79715C3.34122 3.48495 3.59505 3.2309 3.90724 3.2309H6.83304C7.07611 3.2309 7.27318 3.03383 7.27318 2.79076C7.27318 2.54768 7.07611 2.35062 6.83304 2.35062H3.90724C3.10982 2.35062 2.46094 2.9995 2.46094 3.79715V28.5537C2.46094 29.3511 3.10982 30 3.90724 30H21.7333C22.5307 30 23.1796 29.3511 23.1796 28.5537V14.9073C23.8804 14.6407 24.5268 14.2337 25.0797 13.6983C26.1253 12.686 26.7288 11.3287 26.7787 9.87648C26.787 9.63364 26.597 9.42993 26.3539 9.42146C26.1127 9.41345 25.9074 9.6032 25.8989 9.84627C25.8286 11.8904 24.4844 13.5782 22.6385 14.1671C22.6131 14.173 22.5884 14.1808 22.565 14.1911C22.1306 14.3218 21.6694 14.3919 21.191 14.3919C18.5937 14.3919 16.4804 12.2786 16.4804 9.68124C16.4804 7.08389 18.5937 4.97063 21.191 4.97063C22.1887 4.97063 23.153 5.28603 23.953 5.86578L20.9203 8.8987L19.479 7.4572ZM16.3175 3.937C16.3175 4.01802 16.2518 4.08371 16.1707 4.08371H9.46976C9.38874 4.08371 9.32305 4.01802 9.32305 3.937V1.84845C9.32305 1.31447 9.75724 0.88028 10.2912 0.88028H15.3493C15.883 0.88028 16.3175 1.31447 16.3175 1.84845V3.937ZM25.7847 5.27916C25.8916 5.17204 26.0337 5.11322 26.1848 5.11322C26.3361 5.11322 26.4782 5.17227 26.5853 5.27916C26.806 5.4998 26.806 5.85915 26.5853 6.07979L21.3204 11.3445C21.2135 11.4514 21.0713 11.5105 20.92 11.5105C20.7687 11.5105 20.6266 11.4514 20.5197 11.3445L18.0556 8.88039C17.9487 8.7735 17.8899 8.63136 17.8899 8.48007C17.8899 8.32878 17.9487 8.18665 18.0558 8.07976C18.1627 7.97287 18.3048 7.91382 18.4561 7.91382C18.6072 7.91382 18.7496 7.97287 18.8564 8.07976L20.609 9.83231C20.7809 10.0042 21.0594 10.0042 21.2313 9.83231L25.7847 5.27916Z" fill="white"/>
<path d="M14.4398 11.0479H9.07687C8.8338 11.0479 8.63696 11.2449 8.63696 11.488C8.63696 11.7308 8.8338 11.9279 9.07687 11.9279H14.4398C14.6829 11.9279 14.8799 11.7308 14.8799 11.488C14.8799 11.2449 14.6829 11.0479 14.4398 11.0479Z" fill="white"/>
<path d="M8.23684 6.50464H5.27534C5.03227 6.50464 4.83521 6.70171 4.83521 6.94478C4.83521 7.18785 5.03227 7.38492 5.27534 7.38492H8.23684C8.47992 7.38492 8.67698 7.18785 8.67698 6.94478C8.67698 6.70171 8.47992 6.50464 8.23684 6.50464Z" fill="white"/>
<path d="M9.07687 13.9696H14.4398C14.6829 13.9696 14.8799 13.7726 14.8799 13.5295C14.8799 13.2867 14.6829 13.0896 14.4398 13.0896H9.07687C8.8338 13.0896 8.63696 13.2867 8.63696 13.5295C8.63696 13.7726 8.8338 13.9696 9.07687 13.9696Z" fill="white"/>
<path d="M16.2924 16.3855H9.07687C8.8338 16.3855 8.63696 16.5826 8.63696 16.8256C8.63696 17.0687 8.8338 17.2658 9.07687 17.2658H16.2924C16.5354 17.2658 16.7325 17.0687 16.7325 16.8256C16.7325 16.5826 16.5354 16.3855 16.2924 16.3855Z" fill="white"/>
<path d="M9.07687 19.3078H12.6847C12.9278 19.3078 13.1246 19.1107 13.1246 18.8676C13.1246 18.6246 12.9278 18.4275 12.6847 18.4275H9.07687C8.8338 18.4275 8.63696 18.6246 8.63696 18.8676C8.63696 19.1107 8.8338 19.3078 9.07687 19.3078Z" fill="white"/>
<path d="M9.07687 22.6098H14.4398C14.6829 22.6098 14.8799 22.4127 14.8799 22.1696C14.8799 21.9266 14.6829 21.7295 14.4398 21.7295H9.07687C8.8338 21.7295 8.63696 21.9266 8.63696 22.1696C8.63696 22.4127 8.8338 22.6098 9.07687 22.6098Z" fill="white"/>
<path d="M9.07687 24.6513H16.2924C16.5354 24.6513 16.7325 24.4542 16.7325 24.2112C16.7325 23.9683 16.5354 23.7712 16.2924 23.7712H9.07687C8.8338 23.7712 8.63696 23.9683 8.63696 24.2112C8.63696 24.4542 8.8338 24.6513 9.07687 24.6513Z" fill="white"/>
<path d="M6.20937 10.666C5.22906 10.666 4.43164 11.4634 4.43164 12.4437C4.43164 13.424 5.22906 14.2215 6.20937 14.2215C7.18967 14.2215 7.98709 13.424 7.98709 12.4437C7.98709 11.4634 7.18967 10.666 6.20937 10.666ZM6.20937 13.3412C5.71452 13.3412 5.31192 12.9386 5.31192 12.4437C5.31192 11.9489 5.71452 11.5463 6.20937 11.5463C6.70421 11.5463 7.10681 11.9489 7.10681 12.4437C7.10681 12.9386 6.70421 13.3412 6.20937 13.3412Z" fill="white"/>
<path d="M6.20937 16.0688C5.22906 16.0688 4.43164 16.8665 4.43164 17.8466C4.43164 18.8269 5.22906 19.6243 6.20937 19.6243C7.18967 19.6243 7.98709 18.8269 7.98709 17.8466C7.98709 16.8665 7.18967 16.0688 6.20937 16.0688V16.0688ZM6.20937 18.7442C5.71452 18.7442 5.31192 18.3416 5.31192 17.8468C5.31192 17.3517 5.71452 16.9491 6.20937 16.9491C6.70421 16.9491 7.10681 17.3517 7.10681 17.8468C7.10681 18.3416 6.70421 18.7442 6.20937 18.7442Z" fill="white"/>
<path d="M6.20937 21.4126C5.22906 21.4126 4.43164 22.21 4.43164 23.1903C4.43164 24.1706 5.22906 24.968 6.20937 24.968C7.18967 24.968 7.98709 24.1706 7.98709 23.1903C7.98709 22.21 7.18967 21.4126 6.20937 21.4126V21.4126ZM6.20937 24.0878C5.71452 24.0878 5.31192 23.6852 5.31192 23.1903C5.31192 22.6955 5.71452 22.2929 6.20937 22.2929C6.70421 22.2929 7.10681 22.6955 7.10681 23.1903C7.10681 23.6852 6.70421 24.0878 6.20937 24.0878V24.0878Z" fill="white"/>
</svg>
