<svg width="30" height="30" viewBox="0 0 30 30" fill="none" xmlns="http://www.w3.org/2000/svg">
<g clip-path="url(#clip0)">
<path d="M27.6192 8.59401H21.2636V4.17985C21.2636 2.86712 20.1956 1.79907 18.8828 1.79907H2.38084C1.06805 1.79907 0 2.86712 0 4.17985V10.724C0 10.9667 0.196699 11.1634 0.439453 11.1634C0.682207 11.1634 0.878906 10.9667 0.878906 10.724V4.17985C0.878906 3.35169 1.55268 2.67798 2.38084 2.67798H18.8828C19.711 2.67798 20.3848 3.35169 20.3848 4.17985V15.8285C20.3848 16.6566 19.7111 17.3304 18.8829 17.3304H9.37676C9.12961 17.3304 8.89734 17.4267 8.72285 17.6012L5.81074 20.5133C5.8026 20.5216 5.78895 20.535 5.7607 20.5234C5.7324 20.5116 5.7324 20.4924 5.7324 20.4809V18.2552C5.7324 17.7452 5.3175 17.3304 4.80756 17.3304H2.38084C1.55268 17.3304 0.878906 16.6566 0.878906 15.8285V12.4818C0.878906 12.239 0.682207 12.0423 0.439453 12.0423C0.196699 12.0423 0 12.239 0 12.4818V15.8285C0 17.1413 1.06805 18.2093 2.38084 18.2093H4.80756C4.83293 18.2093 4.8535 18.2299 4.8535 18.2552V20.4809C4.8535 20.8563 5.07756 21.1917 5.42437 21.3353C5.53951 21.383 5.65992 21.4062 5.77922 21.4062C6.01945 21.4061 6.25488 21.3122 6.4323 21.1348L8.73639 18.8307V22.6234C8.73639 23.9361 9.80438 25.0042 11.1172 25.0042H16.4395C16.6822 25.0042 16.8789 24.8075 16.8789 24.5647C16.8789 24.322 16.6822 24.1253 16.4395 24.1253H11.1172C10.289 24.1253 9.61529 23.4516 9.61529 22.6234V18.2093H18.8829C20.1956 18.2093 21.2637 17.1413 21.2637 15.8285V9.47292H27.6192C28.4474 9.47292 29.1212 10.1467 29.1212 10.9749V22.6235C29.1212 23.4516 28.4474 24.1253 27.6192 24.1253H25.1925C24.6826 24.1253 24.2677 24.5402 24.2677 25.0501V27.2759C24.2677 27.2874 24.2677 27.3065 24.2394 27.3184C24.2112 27.3301 24.1975 27.3166 24.1894 27.3083L21.2773 24.3963C21.1027 24.2216 20.8704 24.1253 20.6234 24.1253H18.1975C17.9547 24.1253 17.758 24.322 17.758 24.5648C17.758 24.8076 17.9547 25.0042 18.1975 25.0042H20.6234C20.6354 25.0042 20.6471 25.0091 20.6558 25.0177L23.5679 27.9298C23.7452 28.1071 23.9807 28.2012 24.221 28.2012C24.3402 28.2011 24.4607 28.178 24.5758 28.1303C24.9226 27.9867 25.1467 27.6513 25.1467 27.2759V25.0501C25.1467 25.0248 25.1673 25.0042 25.1926 25.0042H27.6193C28.9321 25.0042 30.0002 23.9362 30.0002 22.6235V10.9749C30 9.66206 28.932 8.59401 27.6192 8.59401V8.59401Z" fill="white"/>
<path d="M13.5898 20.6821C13.5898 21.4597 14.2224 22.0923 15 22.0923C15.7775 22.0923 16.4101 21.4597 16.4101 20.6821C16.4101 19.9046 15.7775 19.272 15 19.272C14.2224 19.272 13.5898 19.9046 13.5898 20.6821V20.6821ZM15.5312 20.6821C15.5312 20.9751 15.2929 21.2134 15 21.2134C14.707 21.2134 14.4687 20.9751 14.4687 20.6821C14.4687 20.3892 14.707 20.1509 15 20.1509C15.2929 20.1509 15.5312 20.3892 15.5312 20.6821Z" fill="white"/>
<path d="M9.22168 14.8576C9.22168 15.6352 9.85432 16.2677 10.6319 16.2677C11.4095 16.2677 12.042 15.6352 12.042 14.8576C12.042 14.08 11.4094 13.4475 10.6319 13.4475C9.85432 13.4475 9.22168 14.0801 9.22168 14.8576ZM11.1631 14.8576C11.1631 15.1505 10.9248 15.3888 10.6319 15.3888C10.3389 15.3888 10.1006 15.1505 10.1006 14.8576C10.1006 14.5647 10.3389 14.3264 10.6319 14.3264C10.9248 14.3264 11.1631 14.5647 11.1631 14.8576Z" fill="white"/>
<path d="M12.0421 10.1332C13.2996 9.55051 14.0717 8.25295 13.9753 6.85754C13.8611 5.19958 12.5246 3.86311 10.8668 3.74868C9.94125 3.68458 9.02197 4.01018 8.34533 4.64176C7.66846 5.27346 7.28027 6.16661 7.28027 7.09215C7.28027 7.86975 7.91291 8.50227 8.69045 8.50227C9.46799 8.50227 10.1006 7.86969 10.1006 7.09215C10.1006 6.9411 10.159 6.80674 10.2696 6.70356C10.3782 6.60225 10.5217 6.55239 10.6726 6.56229C10.9249 6.57969 11.1442 6.79913 11.1616 7.05167C11.1776 7.28299 11.0457 7.4971 10.8333 7.58428C9.85424 7.98629 9.22166 8.93622 9.22166 10.0043V10.975C9.22166 11.7526 9.85424 12.3852 10.6318 12.3852C11.4093 12.3852 12.042 11.7525 12.042 10.975V10.1332H12.0421ZM11.5709 9.38012C11.3232 9.48178 11.1632 9.72682 11.1632 10.0043V10.9749C11.1632 11.2679 10.9249 11.5062 10.6319 11.5062C10.339 11.5062 10.1007 11.2679 10.1007 10.9749V10.0043C10.1007 9.29411 10.5193 8.66329 11.1672 8.39721C11.7305 8.16594 12.0807 7.60081 12.0386 6.99108C11.9913 6.30618 11.4179 5.73266 10.7326 5.68544C10.699 5.68315 10.6657 5.68198 10.6326 5.68198C10.2727 5.68198 9.9341 5.81458 9.67014 6.0609C9.38098 6.33067 9.22178 6.69694 9.22178 7.09215C9.22178 7.38506 8.98348 7.62337 8.69057 7.62337C8.3976 7.62337 8.1593 7.38506 8.1593 7.09215C8.1593 6.40936 8.44576 5.75036 8.9451 5.28424C9.4442 4.81831 10.1215 4.57766 10.8064 4.62553C12.0288 4.70979 13.0143 5.6954 13.0986 6.91801C13.1722 7.98512 12.5582 8.97465 11.5709 9.38012V9.38012Z" fill="white"/>
<path d="M25.1467 20.6821C25.1467 19.9045 24.5141 19.272 23.7365 19.272C22.959 19.272 22.3264 19.9046 22.3264 20.6821C22.3264 21.4596 22.959 22.0922 23.7365 22.0922C24.5141 22.0922 25.1467 21.4596 25.1467 20.6821ZM23.2053 20.6821C23.2053 20.3892 23.4436 20.1509 23.7365 20.1509C24.0294 20.1509 24.2677 20.3892 24.2677 20.6821C24.2677 20.975 24.0294 21.2133 23.7365 21.2133C23.4436 21.2133 23.2053 20.975 23.2053 20.6821Z" fill="white"/>
<path d="M19.3684 22.0922C20.146 22.0922 20.7785 21.4596 20.7785 20.6821C20.7785 19.9046 20.146 19.272 19.3684 19.272C18.5908 19.272 17.9583 19.9046 17.9583 20.6821C17.9583 21.4596 18.5908 22.0922 19.3684 22.0922ZM19.3684 20.1508C19.6613 20.1508 19.8996 20.3891 19.8996 20.682C19.8996 20.9749 19.6613 21.2132 19.3684 21.2132C19.0755 21.2132 18.8372 20.9749 18.8372 20.682C18.8372 20.3891 19.0755 20.1508 19.3684 20.1508Z" fill="white"/>
</g>
<defs>
<clipPath id="clip0">
<rect width="30" height="30" fill="white"/>
</clipPath>
</defs>
</svg>
