<svg width="30" height="25" viewBox="0 0 30 25" fill="none" xmlns="http://www.w3.org/2000/svg">
<path d="M26.875 22.5H24.375C24.03 22.5 23.75 22.22 23.75 21.875C23.75 21.53 24.03 21.25 24.375 21.25H26.875C27.9088 21.25 28.75 20.4088 28.75 19.375V5.625C28.75 4.59125 27.9088 3.75 26.875 3.75H12.5C12.3337 3.75 12.175 3.68375 12.0575 3.5675L9.74125 1.25H3.125C2.09125 1.25 1.25 2.09125 1.25 3.125V19.375C1.25 20.4088 2.09125 21.25 3.125 21.25H5.625C5.97 21.25 6.25 21.53 6.25 21.875C6.25 22.22 5.97 22.5 5.625 22.5H3.125C1.40125 22.5 0 21.0975 0 19.375V3.125C0 1.4025 1.40125 0 3.125 0H10C10.1663 0 10.325 0.0662499 10.4425 0.1825L12.7587 2.5H26.875C28.5987 2.5 30 3.9025 30 5.625V19.375C30 21.0975 28.5987 22.5 26.875 22.5Z" fill="white"/>
<path d="M15.0002 20.9373C14.6552 20.9373 14.3752 20.6573 14.3752 20.3123V10.6248C14.3752 10.2798 14.6552 9.99976 15.0002 9.99976C15.3452 9.99976 15.6252 10.2798 15.6252 10.6248V20.3123C15.6252 20.6585 15.3452 20.9373 15.0002 20.9373Z" fill="white"/>
<path d="M14.9998 21.25C14.8398 21.25 14.6798 21.1888 14.5573 21.0675L11.4323 17.9425C11.1886 17.6988 11.1886 17.3025 11.4323 17.0588C11.6761 16.815 12.0723 16.815 12.3161 17.0588L14.9998 19.7413L17.6823 17.0588C17.9261 16.815 18.3223 16.815 18.5661 17.0588C18.8098 17.3025 18.8098 17.6988 18.5661 17.9425L15.4411 21.0675C15.3198 21.1888 15.1598 21.25 14.9998 21.25V21.25Z" fill="white"/>
<path d="M19.3752 25.0002H10.6252C9.59149 25.0002 8.75024 24.159 8.75024 23.1252V20.6252C8.75024 20.2802 9.03024 20.0002 9.37524 20.0002C9.72024 20.0002 10.0002 20.2802 10.0002 20.6252V23.1252C10.0002 23.4702 10.2815 23.7502 10.6252 23.7502H19.3752C19.719 23.7502 20.0002 23.4702 20.0002 23.1252V20.6252C20.0002 20.2802 20.2802 20.0002 20.6252 20.0002C20.9702 20.0002 21.2502 20.2802 21.2502 20.6252V23.1252C21.2502 24.159 20.409 25.0002 19.3752 25.0002Z" fill="white"/>
</svg>
