<svg width="30" height="36" viewBox="0 0 30 36" fill="none" xmlns="http://www.w3.org/2000/svg">
<path d="M15.0273 7.75659C9.93395 7.75659 5.77271 11.9178 5.77271 17.0112C5.77271 19.6744 6.93785 22.2377 8.90196 23.9688C10.3667 25.4336 10.2336 28.5628 10.2003 28.5961C10.2003 28.7626 10.2336 28.8957 10.3667 29.0289C10.4666 29.1287 10.633 29.1953 10.7662 29.1953H19.2551C19.4216 29.1953 19.5547 29.1287 19.6546 29.0289C19.7545 28.929 19.8211 28.7626 19.8211 28.5961C19.8211 28.5628 19.6546 25.4336 21.1194 23.9688C21.1527 23.9355 21.186 23.9022 21.2192 23.8689C23.1501 22.1046 24.2819 19.6078 24.2819 17.0112C24.2819 11.9178 20.1207 7.75659 15.0273 7.75659ZM20.3537 23.1033C20.3204 23.1366 20.2538 23.2031 20.2538 23.2364C18.9555 24.6346 18.7225 26.9316 18.6892 28.0302H11.3321C11.2988 26.9316 11.0658 24.5347 9.66763 23.1033C7.90326 21.5719 6.87127 19.3415 6.87127 16.9779C6.87127 12.4838 10.4999 8.85516 14.994 8.85516C19.4882 8.85516 23.1168 12.4838 23.1168 16.9779C23.1168 19.3415 22.1181 21.5719 20.3537 23.1033Z" fill="white"/>
<path d="M14.9942 10.1201C14.6945 10.1201 14.4282 10.3864 14.4282 10.686C14.4282 10.9857 14.6945 11.252 14.9942 11.252C18.3564 11.252 21.0529 13.9818 21.0529 17.3107C21.0529 17.6104 21.3192 17.8767 21.6189 17.8767C21.9185 17.8767 22.1848 17.6104 22.1848 17.3107C22.2181 13.3492 18.9889 10.1201 14.9942 10.1201Z" fill="white"/>
<path d="M18.6892 29.8279H11.2988C10.5331 29.8279 9.90063 30.4604 9.90063 31.2261C9.90063 31.9917 10.5331 32.6242 11.2988 32.6242H18.6559C19.4549 32.5909 20.0874 31.9917 20.0874 31.2261C20.0874 30.4604 19.4549 29.8279 18.6892 29.8279ZM18.6892 31.4591H11.2988C11.1657 31.4591 11.0325 31.3592 11.0325 31.1928C11.0325 31.0263 11.1324 30.9265 11.2988 30.9265H18.6559C18.7891 30.9265 18.9222 31.0263 18.9222 31.1928C18.9222 31.3592 18.8223 31.4591 18.6892 31.4591Z" fill="white"/>
<path d="M17.5907 33.1902H12.3974C11.6318 33.1902 10.9993 33.8227 10.9993 34.5884C10.9993 35.354 11.6318 35.9865 12.3974 35.9865H17.5907C18.3563 35.9865 18.9889 35.354 18.9889 34.5884C18.9889 33.7894 18.3563 33.1902 17.5907 33.1902ZM17.5907 34.8214H12.3974C12.2643 34.8214 12.1311 34.7215 12.1311 34.5551C12.1311 34.3886 12.231 34.2888 12.3974 34.2888H17.5907C17.7238 34.2888 17.857 34.3886 17.857 34.5551C17.857 34.7215 17.7238 34.8214 17.5907 34.8214Z" fill="white"/>
<path d="M14.9942 4.99349C15.3271 4.99349 15.5601 4.72717 15.5601 4.42756V0.565929C15.5601 0.26632 15.2938 0 14.9942 0C14.6945 0 14.4282 0.26632 14.4282 0.565929V4.42756C14.4282 4.72717 14.6945 4.99349 14.9942 4.99349Z" fill="white"/>
<path d="M24.4152 2.86295C24.1489 2.66321 23.816 2.76308 23.6495 2.99611L21.519 6.19195C21.3192 6.45827 21.3858 6.82446 21.6521 6.99091C21.752 7.05749 21.8519 7.09078 21.9517 7.09078C22.1515 7.09078 22.3179 6.99091 22.4178 6.82446L24.5484 3.62862C24.7481 3.39559 24.6815 3.0294 24.4152 2.86295Z" fill="white"/>
<path d="M8.23635 6.95766C8.33622 6.95766 8.43609 6.92437 8.53596 6.85779C8.80228 6.69134 8.86886 6.32515 8.70241 6.05883L6.63843 2.82971C6.47198 2.56339 6.10579 2.49681 5.83947 2.66326C5.57315 2.82971 5.50657 3.1959 5.67302 3.46222L7.737 6.69134C7.87016 6.89108 8.03661 6.95766 8.23635 6.95766Z" fill="white"/>
<path d="M4.20814 10.4864L0.845854 8.6554C0.579534 8.52224 0.213344 8.62211 0.0801845 8.88843C-0.0862653 9.15475 0.0136045 9.52094 0.313214 9.6541L3.6755 11.4851C3.77537 11.5183 3.84195 11.5516 3.94182 11.5516C4.14156 11.5516 4.3413 11.4518 4.44117 11.252C4.57433 10.9857 4.47446 10.6195 4.20814 10.4864Z" fill="white"/>
<path d="M29.9413 8.88843C29.8081 8.62211 29.4419 8.52224 29.1756 8.6554L25.78 10.4864C25.5137 10.6195 25.4138 10.9857 25.547 11.252C25.6469 11.4518 25.8466 11.5516 26.0464 11.5516C26.1462 11.5516 26.2461 11.5183 26.3127 11.4851L29.7083 9.6541C29.9746 9.52094 30.0744 9.15475 29.9413 8.88843Z" fill="white"/>
</svg>
