<svg width="32" height="31" viewBox="0 0 32 31" fill="none" xmlns="http://www.w3.org/2000/svg">
<g clip-path="url(#clip0)">
<path d="M13.3359 3.4986C12.5994 3.4986 11.8628 3.68714 11.2029 4.06414L3.09259 8.69711C1.77273 9.45117 0.959595 10.8447 0.959595 12.3528V21.6192C0.959595 23.1273 1.77273 24.5208 3.09259 25.2749L11.2029 29.9084C12.5228 30.6625 14.149 30.6625 15.4689 29.9084L23.5792 25.2749C24.8991 24.5208 25.7122 23.1273 25.7122 21.6192V13.3841C25.7116 13.078 26.0069 12.7092 26.3216 12.5203C26.4344 12.4527 26.5809 12.3743 26.6614 12.3158L26.7344 12.2723C27.0263 12.0968 27.5084 11.7156 27.4909 11.1263C27.478 10.689 27.5098 10.2146 27.4993 9.72899C27.5002 9.70585 27.5118 9.42018 27.5756 9.34369C27.6155 9.27078 27.7129 9.13343 27.8436 9.06808C28.0284 8.97559 28.1042 8.98494 28.2558 8.99752C28.3986 9.00936 28.6295 9.10102 28.7226 9.14194L29.3917 9.49141C29.5784 9.58909 29.8039 9.58067 29.9827 9.46936L31.0824 8.78585C31.2615 8.67455 31.3668 8.47672 31.3592 8.26771L31.3102 6.98338C31.3022 6.77434 31.1823 6.58554 30.9954 6.48784L29.8473 5.88756C29.6602 5.78988 29.4347 5.79775 29.2557 5.90906L28.1561 6.59312C27.9771 6.70442 27.8722 6.90166 27.8798 7.11071L27.9127 7.97942L27.9214 8.1288C27.9214 8.1288 27.9031 8.27481 27.8693 8.37751C27.8158 8.48804 27.6884 8.60464 27.4934 8.63638C27.2526 8.68351 27.0862 8.63872 26.8957 8.53034C26.3452 8.16967 26.0889 7.98681 25.4765 7.71494C24.7666 7.41694 24.4411 7.68921 23.8159 7.98628C23.5188 8.19871 23.0831 8.47896 23.0218 8.51172C22.439 8.82377 21.8549 8.87262 21.2763 8.55271L19.9292 7.84405C19.3959 7.45388 19.2403 7.12763 19.1472 6.68754C19.0557 6.03303 18.3313 5.62669 17.7546 5.30471L15.4689 4.0647C14.809 3.68769 14.0725 3.49915 13.3359 3.49915L13.3359 3.4986Z" fill="url(#paint0_linear)"/>
<path d="M26.6621 3.83489C26.6101 3.9215 26.5153 3.97411 26.4135 3.97284L25.7879 3.96537C25.686 3.96431 25.5927 3.90927 25.5428 3.82133L25.2367 3.28135C25.1869 3.19346 25.1882 3.08597 25.24 2.99936L25.5595 2.46705C25.6115 2.38043 25.7063 2.32781 25.8081 2.32906L26.4337 2.33653C26.5356 2.3376 26.629 2.39264 26.6788 2.48056L26.9849 3.02054C27.0347 3.10843 27.0334 3.21592 26.9817 3.30253L26.6621 3.83489Z" fill="url(#paint1_linear)"/>
<path d="M30.2491 14.1043C30.1903 14.2019 30.0836 14.2612 29.969 14.2598L29.2637 14.2513C29.1489 14.2502 29.0436 14.188 28.9875 14.0889L28.6424 13.4803C28.5863 13.3812 28.5878 13.2601 28.6467 13.1625L29.0069 12.5625C29.0655 12.4649 29.1723 12.4055 29.2871 12.4069L29.9924 12.4155C30.1071 12.4165 30.2123 12.4787 30.2685 12.5778L30.6136 13.1864C30.6698 13.2855 30.6681 13.4066 30.6093 13.5043L30.2491 14.1043Z" fill="url(#paint2_linear)"/>
<path d="M18.8001 2.39409C18.6826 2.32902 18.6092 2.20692 18.6074 2.07376L18.5965 1.2555C18.5944 1.12233 18.6649 0.998345 18.7806 0.930238L19.4913 0.511753C19.6069 0.4437 19.7505 0.44178 19.868 0.50642L20.5896 0.906185C20.707 0.971252 20.7805 1.09336 20.7822 1.22653L20.7931 2.04479C20.7953 2.17795 20.7248 2.30194 20.6091 2.37005L19.8984 2.78853C19.7827 2.85669 19.6391 2.85851 19.5217 2.79387L18.8001 2.39409Z" fill="url(#paint3_linear)"/>
<path d="M21.7111 3.58919C21.9226 3.46832 22.1832 3.46832 22.3948 3.58919L23.6946 4.33175C23.9061 4.45259 24.0365 4.67595 24.0365 4.91764V6.40281C24.0365 6.64451 23.9061 6.86783 23.6946 6.98868L22.3948 7.73126C22.1832 7.8521 21.9226 7.8521 21.7111 7.73126L20.4113 6.98868C20.1997 6.86783 20.0694 6.64451 20.0694 6.40281V4.91764C20.0694 4.67595 20.1997 4.45259 20.4113 4.33175L21.7111 3.58919Z" fill="url(#paint4_linear)"/>
<path d="M18.8179 8.29296C18.6354 8.29115 18.4516 8.29029 18.2513 8.29104L12.9355 8.29637C12.6353 8.29694 12.3218 8.28998 12.0082 8.31707C11.1989 8.50276 10.3322 8.47316 10.3364 9.37323C10.5852 9.40139 11.0313 9.46592 11.2068 9.46741L11.9128 9.52896L12.6879 9.62891C12.9501 9.648 12.9269 9.91908 12.9385 10.1127V11.4009H11.5124H11.2272V12.812H13.7941V25.5119H18.928V12.812H21.7802V10.3254C21.7562 9.80091 21.6624 9.46247 21.247 9.19806C20.7538 8.9198 20.1911 8.58613 19.7471 8.4141C19.445 8.27995 19.1143 8.29677 18.8179 8.29296V8.29296ZM8.14757 13.6587C7.58444 13.7005 6.95284 14.2365 6.9744 15.1078L6.94928 25.512H12.0832V13.6587H8.14757Z" fill="white"/>
<path d="M10.372 11.4008H8.94592V12.8119H10.372V11.4008Z" fill="white"/>
<path d="M11.5128 9.99091H10.0867V11.402H11.5128V9.99091Z" fill="white"/>
<path d="M8.94592 9.98969H7.51984V11.4008H8.94592V9.98969Z" fill="white"/>
<path d="M6.9494 9.42523H5.52332V10.8363H6.9494V9.42523Z" fill="white"/>
</g>
<defs>
<linearGradient id="paint0_linear" x1="5.37529" y1="30.0943" x2="31.0798" y2="6.25256" gradientUnits="userSpaceOnUse">
<stop stop-color="#F15C23"/>
<stop offset="0.154645" stop-color="#F15C23"/>
<stop offset="0.308354" stop-color="#F37021"/>
<stop offset="0.486022" stop-color="#F7921D"/>
<stop offset="0.62803" stop-color="#FBB419"/>
<stop offset="0.822151" stop-color="#FBC610"/>
<stop offset="0.910191" stop-color="#FAA91A"/>
<stop offset="0.96212" stop-color="#FBC610"/>
<stop offset="1" stop-color="#FBCC0E"/>
</linearGradient>
<linearGradient id="paint1_linear" x1="25.077" y1="4.61444" x2="26.6335" y2="2.89069" gradientUnits="userSpaceOnUse">
<stop stop-color="#F15C23"/>
<stop offset="0.154645" stop-color="#F15C23"/>
<stop offset="0.308354" stop-color="#F37021"/>
<stop offset="0.486022" stop-color="#F7921D"/>
<stop offset="0.719018" stop-color="#FBB419"/>
<stop offset="1" stop-color="#FBCC0E"/>
</linearGradient>
<linearGradient id="paint2_linear" x1="28.4852" y1="14.4832" x2="30.9829" y2="12.5029" gradientUnits="userSpaceOnUse">
<stop stop-color="#F15C23"/>
<stop offset="0.154645" stop-color="#F15C23"/>
<stop offset="0.308354" stop-color="#F37021"/>
<stop offset="0.486022" stop-color="#F7921D"/>
<stop offset="0.719018" stop-color="#FBB419"/>
<stop offset="1" stop-color="#FBCC0E"/>
</linearGradient>
<linearGradient id="paint3_linear" x1="18.4732" y1="3.27626" x2="20.7266" y2="0.854023" gradientUnits="userSpaceOnUse">
<stop stop-color="#F15C23"/>
<stop offset="0.154645" stop-color="#F15C23"/>
<stop offset="0.308354" stop-color="#F37021"/>
<stop offset="0.486022" stop-color="#F7921D"/>
<stop offset="0.719018" stop-color="#FBB419"/>
<stop offset="1" stop-color="#FBCC0E"/>
</linearGradient>
<linearGradient id="paint4_linear" x1="20.418" y1="7.44244" x2="24.1179" y2="4.12667" gradientUnits="userSpaceOnUse">
<stop stop-color="#F15C23"/>
<stop offset="0.154645" stop-color="#F15C23"/>
<stop offset="0.308354" stop-color="#F37021"/>
<stop offset="0.486022" stop-color="#F7921D"/>
<stop offset="0.719018" stop-color="#FBB419"/>
<stop offset="1" stop-color="#FBCC0E"/>
</linearGradient>
<clipPath id="clip0">
<rect width="32" height="30.9333" fill="white"/>
</clipPath>
</defs>
</svg>
