<svg width="30" height="25" viewBox="0 0 30 25" fill="none" xmlns="http://www.w3.org/2000/svg">
<path d="M28.4681 17.547H1.53208C0.687306 17.547 0 16.86 0 16.0153V1.53171C0 0.687122 0.687306 0 1.53208 0H28.4681C29.3126 0 30 0.687122 30 1.53171V16.0153C30 16.86 29.3126 17.547 28.4681 17.547ZM1.53208 1.23729C1.36959 1.23729 1.23716 1.36935 1.23716 1.53171V16.0153C1.23716 16.1777 1.36959 16.3098 1.53208 16.3098H28.4681C28.6305 16.3098 28.7628 16.1777 28.7628 16.0153V1.53171C28.7628 1.36935 28.6306 1.23729 28.4681 1.23729H1.53208Z" fill="white"/>
<path d="M11.7974 13.4749C11.5943 13.3638 11.4622 13.1567 11.4622 12.9253V4.62205C11.4622 4.3905 11.5916 4.17848 11.7974 4.07226C12.0031 3.96609 12.2507 3.98379 12.4394 4.11799L18.2777 8.26956C18.441 8.38564 18.5378 8.57348 18.5378 8.77368C18.5378 8.97395 18.441 9.16179 18.2777 9.27787C18.2777 9.27787 13.8988 12.3914 12.4394 13.4293C12.3328 13.5052 12.1029 13.6421 11.7974 13.4749ZM12.6996 5.82107V11.7262L16.8516 8.77368L12.6996 5.82107Z" fill="white"/>
<path d="M29.3814 21.0588H17.5572C17.2826 20.0069 16.3243 19.2285 15.1877 19.2285C14.0511 19.2285 13.0931 20.0069 12.8184 21.0588H0.618612C0.277041 21.0588 0 21.3358 0 21.6774C0 22.0191 0.277041 22.296 0.618612 22.296H12.8185C13.0932 23.3478 14.0513 24.1264 15.1877 24.1264C16.3243 24.1264 17.2826 23.3478 17.5572 22.296H29.3814C29.7228 22.296 30 22.0191 30 21.6774C30 21.3358 29.7228 21.0588 29.3814 21.0588ZM15.1877 22.889C14.5198 22.889 13.9761 22.3455 13.9761 21.6773C13.9761 21.0093 14.5198 20.4658 15.1877 20.4658C15.8558 20.4658 16.3993 21.0093 16.3993 21.6773C16.3993 22.3455 15.8558 22.889 15.1877 22.889Z" fill="white"/>
</svg>
