<svg width="1131" height="815" viewBox="0 0 1131 815" fill="none" xmlns="http://www.w3.org/2000/svg">
<g id="login">
<path id="Vector" opacity="0.1" d="M584.455 132.722C513.084 144.777 441.812 139.609 373.251 132.092C304.689 124.575 236.298 114.759 164.896 117.718C118.965 119.617 67.8137 128.713 35.743 155.153C4.87231 180.583 0.0622079 214.899 0.00220658 245.877C-0.0777952 269.178 1.94225 293.289 18.4626 311.851C29.9429 324.726 47.6133 333.953 60.9236 345.838C107.235 387.122 93.1543 452.126 62.7636 507.394C48.5033 533.324 31.0629 558.824 21.3527 585.363C11.6425 611.903 10.3524 640.342 27.7328 661.983C44.9132 683.325 78.224 695.46 113.005 701.728C183.546 714.463 262.138 706.556 338.18 695.84C506.464 672.119 673.017 635.014 839.211 597.998C900.703 584.294 962.464 570.529 1021.71 550.777C1054.61 539.781 1088.11 526.097 1109.36 504.795C1136.36 477.806 1137.04 440.89 1111.02 418.829C1067.36 381.844 968.534 390.05 934.763 347.767C916.183 324.486 924.273 292.869 939.063 264.94C970.774 205.043 1032.07 145.867 1024.13 86.1502C1018.65 45.1664 976.834 11.2497 920.793 2.41321C862.052 -6.84314 786.61 10.7099 752.789 51.9537C718.018 94.4469 647.477 122.086 584.455 132.722Z" fill="#002A80"/>
<path id="Vector_2" d="M604.831 461.582H320.985V527.901H604.831V461.582Z" fill="#565661"/>
<path id="Vector_3" opacity="0.1" d="M604.831 461.582H320.985V527.901H604.831V461.582Z" fill="black"/>
<path id="Vector_4" d="M356.147 527.901L358.124 703.129L331.04 771.956L328.944 527.901H356.147Z" fill="#BCBEC9"/>
<path id="Vector_5" d="M323.638 474.846L602.179 476.501V525.248H323.638V474.846Z" fill="#565661"/>
<path id="Vector_6" d="M578.304 527.901L602.179 531.232V769.303L578.304 696.484V527.901Z" fill="#BCBEC9"/>
<path id="Vector_7" d="M742.775 464.235H610.137V745.428H742.775V464.235Z" fill="#EFEFF0"/>
<path id="Vector_8" d="M732.164 472.193H620.748V689.72H732.164V472.193Z" fill="#565661"/>
<path id="Vector_9" opacity="0.1" d="M732.164 472.193H620.748V689.72H732.164V472.193Z" fill="black"/>
<path id="Vector_10" d="M732.164 477.499H620.748V525.249H732.164V477.499Z" fill="#565661"/>
<path id="Vector_11" d="M732.164 527.901H620.748V631.359H732.164V527.901Z" fill="#565661"/>
<path id="Vector_12" d="M732.164 636.665H620.748V740.123H732.164V636.665Z" fill="#565661"/>
<path id="Vector_13" d="M624.728 763.998C628.39 763.998 631.36 759.841 631.36 754.713C631.36 749.585 628.39 745.428 624.728 745.428C621.065 745.428 618.096 749.585 618.096 754.713C618.096 759.841 621.065 763.998 624.728 763.998Z" fill="#565661"/>
<path id="Vector_14" d="M725.532 766.651C729.195 766.651 732.164 762.494 732.164 757.366C732.164 752.238 729.195 748.081 725.532 748.081C721.87 748.081 718.9 752.238 718.9 757.366C718.9 762.494 721.87 766.651 725.532 766.651Z" fill="#565661"/>
<path id="Vector_15" d="M321.243 771.956H331.597L328.751 466.888H313.027L321.243 771.956Z" fill="#EFEFF0"/>
<path id="Vector_16" d="M602.179 464.235V769.303H610.138V466.673L602.179 464.235Z" fill="#EFEFF0"/>
<path id="Vector_17" d="M328.944 522.596V533.207H602.179V525.495L328.944 522.596Z" fill="#EFEFF0"/>
<path id="Vector_18" d="M345.738 443.013H692.398L742.775 459.802V469.54L310.374 466.186V456.276L345.738 443.013Z" fill="#EFEFF0"/>
<path id="Vector_19" d="M310.374 456.276L742.775 459.802V469.54L310.374 466.186V456.276Z" fill="#BCBEC9"/>
<path id="Vector_20" d="M426.959 546.471L424.672 546.063C424.672 545.94 424.672 545.831 424.672 545.722C424.603 545.083 424.523 544.457 424.443 543.818C425.381 544.702 426.273 545.586 427.096 546.471H426.959Z" fill="url(#paint0_linear)"/>
<path id="Vector_21" d="M383.018 699.466C384.323 699.166 385.649 698.917 386.974 698.737C396.079 697.448 405.363 698.807 413.707 702.651C412.864 708.822 412.03 715.203 413.818 721.164C415.063 725.358 417.564 729.152 418.096 733.526C419.437 733.755 420.688 734.351 421.708 735.247C422.727 736.143 423.476 737.303 423.87 738.598C424.256 739.744 424.449 740.945 424.443 742.153C424.432 743.647 424.243 745.136 423.881 746.586C423.758 747.745 423.186 748.811 422.286 749.557C421.386 750.303 420.228 750.67 419.06 750.58C411.287 751.459 403.665 748.414 396.434 745.428L382.375 739.617C380.728 738.938 379.071 738.249 377.494 737.41C374.504 735.803 371.849 733.644 369.671 731.049C369.223 730.592 368.907 730.023 368.757 729.402C368.496 727.644 370.565 726.596 371.881 725.408C372.266 725.045 372.603 724.636 372.885 724.189C374.441 721.853 374.592 718.628 375.526 715.872C377.735 709.331 384.564 705.118 386.974 698.737C387.105 698.388 387.226 698.038 387.326 697.679" fill="#A26565"/>
<path id="Vector_22" opacity="0.1" d="M424.443 742.158C424.432 743.652 424.243 745.139 423.881 746.589C423.759 747.747 423.187 748.812 422.286 749.557C421.386 750.303 420.229 750.67 419.06 750.58C411.287 751.459 403.665 748.415 396.434 745.431L382.375 739.624C380.728 738.945 379.071 738.257 377.494 737.418C374.504 735.813 371.849 733.655 369.671 731.062C369.223 730.605 368.907 730.036 368.757 729.415C368.496 727.659 370.565 726.611 371.881 725.424C372.266 725.062 372.603 724.653 372.885 724.206C376.761 725.035 381.572 727.459 384.534 728.397C387.502 729.2 390.351 730.385 393.01 731.92C396.706 734.275 399.367 737.907 402.5 740.901C405.633 743.895 409.681 746.619 414.049 746.25C416.359 745.904 418.585 745.139 420.617 743.994L424.443 742.158Z" fill="black"/>
<path id="Vector_23" d="M406.692 601.369C406.954 602.279 406.931 603.246 406.625 604.142C406.319 605.038 405.746 605.819 404.982 606.381C403.663 607.193 401.963 607.083 400.654 607.965C399.034 609.098 398.803 611.343 398.521 613.288C397.515 619.974 394.184 626.039 391.336 632.184C388.488 638.329 386.082 645.035 387.129 651.711C387.844 656.242 390.078 661.073 387.984 665.153C387.471 666.156 386.706 667.048 386.123 668.02C383.255 672.792 384.885 678.836 384.774 684.39C384.816 685.006 384.68 685.622 384.382 686.164C383.942 686.676 383.4 687.092 382.792 687.387C381.77 688.135 380.931 689.103 380.337 690.219C379.743 691.335 379.409 692.57 379.36 693.832C379.275 696.357 379.581 698.879 380.266 701.31C380.377 702.292 380.812 703.209 381.504 703.917C382.305 704.444 383.251 704.71 384.211 704.679C390.533 705.189 396.735 706.691 402.587 709.129C406.401 710.713 410.104 712.698 414.16 713.46C414.552 713.581 414.965 713.621 415.373 713.578C415.781 713.535 416.177 713.41 416.534 713.209C417.044 712.751 417.397 712.144 417.541 711.475C419.101 706.363 420.681 701.09 420.147 695.777C419.916 693.492 419.302 691.256 419.141 688.971C418.436 679.949 424.565 671.809 426.507 662.908C427.383 658.898 427.383 654.748 428.007 650.698C429.698 639.602 435.836 629.648 438.201 618.671C438.53 616.625 439.042 614.612 439.731 612.657C441.492 608.406 445.568 604.958 445.658 600.357C445.714 599.345 445.446 598.341 444.893 597.49C443.945 596.453 442.684 595.749 441.301 595.485C435.807 593.99 430.214 592.878 424.565 592.157C421.988 591.653 419.358 591.471 416.736 591.616C413.33 592.015 410.058 593.165 407.155 594.984C403.351 597.35 405.847 597.921 406.692 601.369Z" fill="#454B69"/>
<path id="Vector_24" opacity="0.05" d="M406.692 601.369C406.954 602.279 406.931 603.246 406.625 604.142C406.319 605.038 405.746 605.819 404.982 606.381C403.663 607.193 401.963 607.083 400.654 607.965C399.034 609.098 398.803 611.343 398.521 613.288C397.515 619.974 394.184 626.039 391.336 632.184C388.488 638.329 386.082 645.035 387.129 651.711C387.844 656.242 390.078 661.073 387.984 665.153C387.471 666.156 386.706 667.048 386.123 668.02C383.255 672.792 384.885 678.836 384.774 684.39C384.816 685.006 384.68 685.622 384.382 686.164C383.942 686.676 383.4 687.092 382.792 687.387C381.77 688.135 380.931 689.103 380.337 690.219C379.743 691.335 379.409 692.57 379.36 693.832C379.275 696.357 379.581 698.879 380.266 701.31C380.377 702.292 380.812 703.209 381.504 703.917C382.305 704.444 383.251 704.71 384.211 704.679C390.533 705.189 396.735 706.691 402.587 709.129C406.401 710.713 410.104 712.698 414.16 713.46C414.552 713.581 414.965 713.621 415.373 713.578C415.781 713.535 416.177 713.41 416.534 713.209C417.044 712.751 417.397 712.144 417.541 711.475C419.101 706.363 420.681 701.09 420.147 695.777C419.916 693.492 419.302 691.256 419.141 688.971C418.436 679.949 424.565 671.809 426.507 662.908C427.383 658.898 427.383 654.748 428.007 650.698C429.698 639.602 435.836 629.648 438.201 618.671C438.53 616.625 439.042 614.612 439.731 612.657C441.492 608.406 445.568 604.958 445.658 600.357C445.714 599.345 445.446 598.341 444.893 597.49C443.945 596.453 442.684 595.749 441.301 595.485C435.807 593.99 430.214 592.878 424.565 592.157C421.988 591.653 419.358 591.471 416.736 591.616C413.33 592.015 410.058 593.165 407.155 594.984C403.351 597.35 405.847 597.921 406.692 601.369Z" fill="black"/>
<path id="Vector_25" d="M387.304 750.734H379.501L374.397 637.653L374.04 631.222L380.672 628.707L381.12 635.542L387.304 750.734Z" fill="#565661"/>
<path id="Vector_26" opacity="0.1" d="M381.998 634.787L374.441 636.665L374.04 630.944L381.495 628.707L381.998 634.787Z" fill="black"/>
<path id="Vector_27" d="M493.415 776.7L479.428 778.413L414.99 630.201L397.613 628.912L367.093 637.939L361.159 814.4H347.172L352.679 631.491L319.187 632.357L259.422 783.138H246.707L309.564 606.918L311.99 600.128L405.665 596.873L429.016 610.142L429.315 610.908L493.415 776.7Z" fill="#565661"/>
<path id="Vector_28" opacity="0.1" d="M429.748 610.577C409.681 616.577 388.85 623.129 388.85 623.129C388.85 623.129 369.853 629.71 361.806 623.129C360.791 622.343 359.657 621.722 358.446 621.289C359.491 622.03 360.618 622.647 361.806 623.129L310.374 606.671L312.782 600.051L406.173 596.873L429.451 609.829L429.748 610.577Z" fill="black"/>
<path id="Vector_29" d="M334.26 581.655L372.928 572.998C372.928 572.998 465.32 590.25 472.193 597.147C472.193 597.147 398.284 612.234 390.121 617.371C381.958 622.508 333.394 628.222 334.26 581.655Z" fill="white"/>
<path id="Vector_30" d="M318.987 485.581C315.932 495.055 307.593 503.593 297.441 504.001C296.702 504.086 295.954 503.954 295.292 503.623C294.019 502.846 293.989 501.023 294.508 499.638C295.028 498.253 295.934 497.008 296.076 495.553C296.107 495.256 296.086 494.957 296.015 494.666C295.75 493.481 294.763 492.425 293.602 492.674C294.392 492.055 294.919 491.17 295.079 490.192C295.239 489.214 295.021 488.213 294.467 487.384C294.007 486.875 293.591 486.328 293.225 485.75C292.38 484.056 293.694 482.153 294.243 480.34C295.374 476.355 292.502 472.37 292.268 468.216C292.064 464.5 293.989 461.003 294.467 457.317C295.231 451.339 292.197 445.611 291.84 439.643C291.596 435.479 292.645 431.354 293.816 427.339C294.834 423.753 295.985 420.126 296.056 416.381C296.056 413.661 295.577 410.971 295.445 408.261C295.234 405.784 295.694 403.296 296.779 401.048C297.484 399.726 298.685 398.723 300.129 398.249C303.469 397.153 305.658 398.856 306.147 401.955C306.961 407.225 306.493 412.605 307.562 417.895C308.551 422.842 310.048 427.679 312.032 432.331C313.835 436.535 316.024 440.6 317.409 444.953C318.451 448.542 319.197 452.207 319.639 455.912C321.003 465.865 322.072 476.106 318.987 485.581Z" fill="#F7921D"/>
<path id="Vector_31" d="M544.265 727.522C542.999 729.324 541.369 730.836 539.483 731.958C537.597 733.08 535.497 733.787 533.321 734.032C528.976 734.578 524.46 733.476 520.245 734.679C519.592 734.787 518.976 735.057 518.452 735.465C517.927 735.872 517.511 736.404 517.241 737.014C517.136 737.835 517.073 738.662 517.05 739.49C516.56 742.189 513.045 742.795 510.312 742.775L499.037 742.704C496.694 742.704 494.101 742.573 492.419 740.936C491.619 740.041 491.168 738.884 491.15 737.68C491.131 736.475 491.547 735.304 492.319 734.385C492.876 734.192 493.335 733.784 493.594 733.249C493.854 732.715 493.892 732.098 493.701 731.535C493.509 730.972 493.104 730.509 492.575 730.247C492.045 729.986 491.435 729.947 490.877 730.14C490.672 728.654 490.743 727.142 491.087 725.682C491.087 721.457 492.088 714.381 495.032 711.076C498.647 706.962 504.915 701.645 510.372 700.543C512.217 700.191 514.118 700.279 515.923 700.802C517.728 701.325 519.387 702.268 520.765 703.555C523.349 705.981 525.231 709.782 528.775 710.207C530.708 710.449 532.57 709.529 534.483 709.196C536.656 708.913 538.863 709.316 540.801 710.35C542.739 711.383 544.313 712.996 545.307 714.968C545.792 715.967 546.129 717.033 546.308 718.131C546.827 721.41 546.097 724.765 544.265 727.522V727.522Z" fill="#A26565"/>
<path id="Vector_32" opacity="0.1" d="M544.389 728.016C543.174 729.76 541.61 731.223 539.8 732.308C537.99 733.394 535.974 734.078 533.887 734.315C529.716 734.843 525.383 733.777 521.337 734.941C520.711 735.046 520.12 735.307 519.617 735.701C519.114 736.096 518.714 736.611 518.455 737.2C518.355 737.995 518.294 738.795 518.272 739.596C517.801 742.208 514.429 742.795 511.805 742.775L500.986 742.707C498.737 742.707 496.248 742.579 494.634 740.995C493.867 740.13 493.434 739.01 493.416 737.844C493.398 736.679 493.797 735.546 494.538 734.657C500.784 734.393 506.924 734.657 513.151 733.347C515.678 732.828 518.166 732.144 520.722 731.782C526.257 730.98 532.147 731.664 537.231 729.278C541.468 727.322 544.505 723.341 546.301 718.901C546.821 722.076 546.137 725.334 544.389 728.016V728.016Z" fill="black"/>
<path id="Vector_33" d="M515.117 713.12C511.145 716.21 506.489 718.621 501.485 718.881C496.481 719.14 491.169 716.887 488.717 712.522C485.132 706.114 488.31 697.204 483.921 691.324C482.551 689.48 480.575 688.174 479.126 686.39C477.676 684.606 476.842 681.926 478.133 680.032C476.574 680.63 474.926 679.115 474.469 677.5C474.012 675.886 474.3 674.152 474.022 672.517C473.298 668.182 469.058 665.401 467.023 661.554C464.987 657.707 465.265 652.714 465.037 648.16C464.529 637.063 460.414 626.439 453.321 617.912C451.971 616.298 450.243 614.653 448.138 614.733C448.506 611.085 446.083 607.597 442.946 605.763C439.808 603.929 436.075 603.311 432.441 602.953C395.775 599.325 357.57 613.009 322.562 601.498C312.822 598.298 303.429 592.947 297.472 584.555C295.151 581.361 293.491 577.734 292.589 573.886C291.687 570.038 291.562 566.048 292.22 562.151V562.011C293.6 554.935 297.323 553.191 303.489 549.962C310.606 546.185 318.046 543.053 325.719 540.604C340.612 535.929 356.646 534.245 372.016 537.673C379.194 539.288 386.114 541.959 393.303 543.524C396.132 544.142 398.982 544.58 401.851 544.949C406.309 545.507 410.787 545.876 415.275 546.394C429.624 548.053 443.757 551.243 457.432 555.912C462.525 557.646 467.618 559.629 471.997 562.769C475.468 565.296 478.403 568.493 480.629 572.172C482.856 575.851 484.329 579.939 484.964 584.196C485.381 587.126 485.391 590.176 486.026 593.016C486.628 595.403 487.425 597.737 488.409 599.993C496.892 621.048 503.825 642.7 509.15 664.774C509.452 666.413 510.011 667.994 510.808 669.458C512.079 671.521 514.263 672.906 515.544 674.969C518.522 679.833 515.653 686.62 518.294 691.683C519.207 693.437 520.726 694.822 521.64 696.576C524.599 702.257 520.2 709.163 515.117 713.12Z" fill="#454B69"/>
<path id="Vector_34" opacity="0.1" d="M464.293 597.446C465.802 596.4 467.104 595.142 468.147 593.725C469.193 592.3 469.608 590.589 469.314 588.915C469.728 591.033 469.57 593.207 468.853 595.262C468.136 597.317 466.88 599.196 465.184 600.749C462.52 603.14 457.519 605.484 453.623 604.665C454.175 601.93 461.819 599.307 464.293 597.446Z" fill="black"/>
<path id="Vector_35" opacity="0.1" d="M403.119 547.774C402.816 548.748 402.25 549.638 401.472 550.364C400.694 551.09 399.728 551.629 398.662 551.934C396.522 552.525 394.281 552.762 392.047 552.633H390.039C363.699 552.106 337.077 546.821 311.349 551.861C308.248 552.439 305.206 553.25 302.255 554.286C298.494 555.627 294.972 557.463 291.805 559.734V559.607C293.2 553.16 296.964 551.57 303.198 548.628C310.388 545.216 317.9 542.389 325.644 540.182C340.701 535.923 356.913 534.388 372.452 537.512C379.71 538.984 386.707 541.417 393.974 542.843C396.835 543.406 399.716 543.806 402.617 544.142C403.18 545.281 403.355 546.545 403.119 547.774V547.774Z" fill="black"/>
<path id="Vector_36" d="M403.146 545.851C402.846 546.951 402.282 547.957 401.506 548.777C400.729 549.598 399.764 550.208 398.699 550.551C396.563 551.22 394.326 551.483 392.097 551.329H390.094C363.809 550.735 337.243 544.776 311.568 550.458C308.476 551.112 305.44 552.023 302.493 553.182C298.563 554.784 294.897 556.994 291.624 559.735C290.856 557.578 290.091 555.417 289.33 553.254C288.408 550.674 291.334 550.1 291.894 547.786C292.265 546.22 291.634 544.438 291.314 542.769C291.231 542.361 291.178 541.947 291.153 541.531C290.973 537.834 292.265 535.705 295.23 533.708C304.025 527.77 314.754 523.695 324.791 520.634C330.127 518.909 335.64 517.817 341.22 517.378C349.113 516.907 356.997 518.402 364.68 520.296C374.126 522.681 383.472 525.835 391.847 530.882C395.964 533.36 399.961 536.442 402.155 540.793C403.038 542.315 403.388 544.099 403.146 545.851Z" fill="#A26565"/>
<path id="Vector_37" opacity="0.1" d="M319.009 485.577C315.984 495.053 307.726 503.593 297.674 504.001C296.942 504.086 296.202 503.954 295.546 503.623C294.286 502.846 294.256 501.022 294.77 499.637C295.284 498.252 296.181 497.006 296.323 495.552C296.353 495.255 296.332 494.955 296.262 494.665C301.596 487.231 306.769 479.718 308.815 470.919C309.23 469.404 309.356 467.827 309.189 466.266C308.916 464.472 307.999 462.848 307.495 461.114C306.607 458.045 307.021 454.797 307.273 451.618C308.331 437.605 305.965 423.546 300.376 410.625C299.015 407.516 297.462 404.367 296.988 401.049C297.686 399.727 298.875 398.723 300.305 398.249C303.613 397.153 305.78 398.857 306.264 401.956C307.071 407.227 306.607 412.607 307.666 417.899C308.645 422.847 310.128 427.684 312.092 432.337C313.877 436.542 316.045 440.608 317.416 444.962C318.449 448.551 319.187 452.217 319.624 455.923C321.006 465.858 322.065 476.101 319.009 485.577Z" fill="black"/>
<path id="Vector_38" opacity="0.1" d="M403.134 546.197C402.829 547.308 402.255 548.325 401.464 549.154C400.674 549.984 399.691 550.6 398.607 550.947C396.433 551.623 394.156 551.889 391.888 551.733H389.848C381.139 545.863 370.668 543.298 360.279 544.49C356.955 544.893 353.631 545.68 350.306 545.369C343.587 544.748 338.142 539.843 332.157 536.708C325.346 533.295 317.686 532.025 310.159 533.062C302.632 534.098 295.582 537.393 289.913 542.524L289.332 543.041C289.248 542.628 289.194 542.21 289.169 541.789C288.985 538.053 290.3 535.901 293.319 533.883C302.271 527.882 313.191 523.763 323.408 520.669C328.84 518.927 334.451 517.823 340.13 517.379C348.165 516.903 356.19 518.413 364.011 520.328C373.626 522.739 383.139 525.926 391.663 531.027C395.854 533.531 399.922 536.646 402.155 541.044C403.053 542.597 403.399 544.416 403.134 546.197V546.197Z" fill="black"/>
<path id="Vector_39" d="M425.104 437.221L424.963 437.577C422.711 443.337 418.569 448.204 415.914 453.815C412.566 460.923 411.742 468.893 410.998 476.704C410.354 483.396 409.721 490.127 410.234 496.838C411.521 513.373 419.715 529.055 421.907 545.273C422.447 549.019 422.585 552.81 422.319 556.584C422.138 558.973 421.696 561.54 420.087 563.305C418.478 565.069 415.351 565.763 413.622 564.068C414.396 562.611 415.18 561.164 415.965 559.706C411.37 556.187 404.452 558.715 399.083 556.515C396.72 555.523 394.83 553.739 392.849 552.143C388.329 548.519 383.119 545.823 377.526 544.212C371.934 542.602 366.071 542.11 360.283 542.765C357.005 543.162 353.727 543.915 350.45 543.618C343.824 543.013 338.455 538.324 332.553 535.32C325.837 532.052 318.284 530.836 310.863 531.826C303.441 532.817 296.489 535.97 290.897 540.882C289.489 542.17 287.599 543.677 285.87 542.864C285.201 542.461 284.661 541.88 284.311 541.189C277.725 530.096 282.572 515.792 289.61 504.986C296.648 494.181 305.969 484.218 308.864 471.728C309.282 470.222 309.408 468.651 309.236 467.099C308.965 465.314 308.05 463.698 307.547 461.974C306.662 458.92 307.075 455.689 307.326 452.526C308.381 438.585 306.022 424.598 300.449 411.744C298.84 408.046 296.93 404.299 296.93 400.285C296.93 393.96 301.524 388.716 305.325 383.631C309.699 377.782 313.369 371.309 318.909 366.501C324.157 361.931 331.758 359.135 338.253 361.455C349.292 358.823 360.651 357.742 371.996 358.243C375.918 358.422 379.97 358.828 383.408 360.702C387.088 362.684 389.732 366.213 393.352 368.325C395.996 369.881 399.043 370.615 401.919 371.705C409.864 374.77 416.419 380.561 420.379 388.012C424.4 395.695 425.406 404.527 426.291 413.132C427.155 421.171 427.96 429.597 425.104 437.221Z" fill="#F7921D"/>
<path id="Vector_40" opacity="0.1" d="M409.493 497.16C410.796 513.994 419.09 529.96 421.308 546.471C416.871 542.716 410.714 539.002 409.87 534.673C408.954 529.99 406.023 523.854 405.534 519.121C405.046 514.388 408.394 508.605 404.883 505.355C403.173 503.771 407.722 504.215 406.053 502.59C402.298 498.967 401.372 493.386 401.138 488.208C400.741 479.045 401.911 469.78 400.212 460.768C399.194 455.207 397.067 449.909 395.367 444.509C393.393 438.222 391.968 431.783 390.544 425.334C389.141 419.601 388.121 413.782 387.491 407.915C387.053 402.869 387.256 397.52 389.526 392.918C391.795 388.316 396.385 384.582 401.535 384.653C418.754 384.875 415.782 408.026 419.568 418.724C421.085 422.983 423.13 427.1 423.954 431.541C424.255 433.282 424.418 435.043 424.443 436.809C422.163 442.673 417.97 447.628 415.284 453.34C411.895 460.576 411.06 468.69 410.307 476.643C409.615 483.475 408.974 490.328 409.493 497.16Z" fill="black"/>
<path id="Vector_41" d="M421.077 418.485C422.542 422.702 424.518 426.779 425.315 431.175C426.642 438.539 424.587 446.363 426.819 453.497C427.4 455.02 427.886 456.579 428.274 458.164C428.657 460.432 428.215 462.75 428.215 465.058C428.215 468.775 429.365 472.372 430.388 475.939C433.845 488.058 436.133 500.49 437.22 513.06C437.383 516.438 437.907 519.789 438.783 523.052C439.196 524.158 439.551 525.285 439.845 526.429C440.109 527.956 440.172 529.512 440.032 531.055C439.766 535.952 439.226 540.868 439.766 545.744C440.307 550.62 442.057 555.566 445.665 558.833C442.441 559.543 439.029 560.252 435.883 559.203C431.459 557.734 428.805 553.208 426.553 549.091C423.702 543.835 412.868 539.099 411.748 533.194C410.873 528.567 408.041 522.492 407.569 517.796C407.097 513.1 410.322 507.394 406.93 504.177C405.288 502.608 409.683 503.038 408.061 501.439C404.443 497.852 403.548 492.326 403.322 487.19C402.939 478.128 404.06 468.955 402.428 460.032C401.444 454.527 399.39 449.281 397.748 443.925C395.841 437.71 394.464 431.335 393.088 424.94C391.729 419.264 390.744 413.503 390.139 407.694C389.716 402.698 389.903 397.392 392.105 392.836C394.307 388.279 398.741 384.592 403.706 384.652C420.271 384.962 417.42 407.894 421.077 418.485Z" fill="#F7921D"/>
<path id="Vector_42" opacity="0.1" d="M373.475 423.065C375.021 424.872 377.007 426.855 379.346 426.504C379.168 426.785 378.888 426.985 378.564 427.062C378.24 427.138 377.899 427.085 377.614 426.914C377.053 426.543 376.603 426.026 376.313 425.419L372.966 419.782C372.526 419.049 369.493 414.78 368.749 417.242C368.456 418.287 372.722 422.185 373.475 423.065Z" fill="black"/>
<path id="Vector_43" opacity="0.1" d="M371.388 437.707C371.29 435.725 370.497 433.851 369.164 432.449C367.965 431.303 366.566 430.414 365.045 429.831C361.305 428.212 356.877 426.908 352.818 427.118C354.294 429.39 359.031 430.746 361.405 432.029C364.769 433.858 368.097 435.751 371.388 437.707Z" fill="black"/>
<path id="Vector_44" opacity="0.1" d="M381.78 478.757C381.057 483.752 376.669 487.537 372.229 490.464C367.789 493.39 362.804 495.908 359.904 500.142C357.893 503.068 356.993 506.463 355.286 509.517C353.401 512.883 350.584 515.712 348.332 518.873C346.081 522.034 344.321 525.809 345.013 529.556C345.022 529.728 345.07 529.897 345.153 530.051C345.236 530.205 345.352 530.342 345.494 530.453C345.71 530.538 345.946 530.57 346.178 530.546C346.411 530.522 346.634 530.443 346.824 530.317C351.39 528.092 353.191 523.009 355.108 518.61C357.119 514.168 359.385 509.831 361.893 505.615C363.024 503.663 364.271 501.537 366.375 500.454C367.817 499.894 369.292 499.416 370.795 499.02C372.926 498.109 374.795 496.742 376.25 495.029C381.967 488.676 384.952 480.573 384.628 472.288C384.565 470.542 384.46 462.133 381.644 464.728C378.827 467.323 382.261 475.362 381.78 478.757Z" fill="black"/>
<path id="Vector_45" d="M387.499 283.065C396.07 286.781 403.445 294.957 403.176 304.223C402.946 313.955 394.754 323.122 397.575 332.448C399.209 337.859 404.132 341.486 408.029 345.599C422.869 361.217 422.839 388.48 407.949 404.069C402.249 410.015 394.924 414.247 388.894 419.926C367.637 439.845 366.73 474.303 378.111 501.051C369.391 502.926 360.503 503.922 351.582 504.024C347.406 504.074 342.293 503.32 340.778 499.446C339.383 495.868 341.775 491.032 339.024 488.386C337.729 487.147 335.785 486.978 334.041 486.691C322.82 484.887 313.611 475.978 309.405 465.483C305.2 454.988 305.419 443.175 307.831 432.135C309.545 424.157 312.226 415.377 308.249 408.241C303.266 399.263 288.935 395.477 289.154 385.21C289.334 376.796 299.31 372.703 304.97 366.45C315.415 354.934 310.442 337.066 310.422 321.546C310.422 307.89 315.225 293.798 325.451 284.7C340.659 271.054 369.949 275.483 387.499 283.065Z" fill="#A26565"/>
<g id="Group" opacity="0.1">
<path id="Vector_46" opacity="0.1" d="M310.131 397.883C305.741 389.962 294.21 386.042 291.53 378.252C290.189 380.07 289.436 382.254 289.37 384.512C289.15 394.872 303.511 398.693 308.531 407.763C310.179 410.974 310.873 414.59 310.531 418.183C312.111 411.223 313.501 403.963 310.131 397.883Z" fill="black"/>
<path id="Vector_47" opacity="0.1" d="M399.272 318.851C401.073 313.601 403.683 308.301 403.813 302.851C403.831 302.26 403.814 301.669 403.763 301.081C401.753 307.071 398.672 312.941 399.272 318.851Z" fill="black"/>
<path id="Vector_48" opacity="0.1" d="M311.852 346.822C315.292 335.952 312.322 322.471 312.312 310.411C312.312 308.951 312.372 307.481 312.482 306.021C311.297 310.682 310.699 315.472 310.702 320.281C310.722 328.891 312.232 338.232 311.852 346.822Z" fill="black"/>
<path id="Vector_49" opacity="0.1" d="M410.203 393.713C404.483 399.713 397.132 403.983 391.082 409.713C380.282 419.883 374.732 433.814 373.342 448.584C375.922 437.584 381.132 427.453 389.482 419.583C395.482 413.883 402.882 409.633 408.603 403.583C415.407 396.168 419.358 386.578 419.753 376.522C418.026 382.948 414.746 388.851 410.203 393.713Z" fill="black"/>
<path id="Vector_50" opacity="0.1" d="M353.642 494.545C349.452 494.545 344.321 493.825 342.801 489.915C341.401 486.315 343.801 481.434 341.041 478.754C339.741 477.504 337.781 477.334 336.041 477.044C324.791 475.234 315.551 466.234 311.331 455.654C308.221 447.834 307.551 439.303 308.331 430.883C308.251 431.213 308.181 431.543 308.111 431.883C305.731 443.024 305.481 454.954 309.691 465.544C313.901 476.134 323.151 485.125 334.401 486.935C336.181 487.225 338.141 487.405 339.401 488.645C342.191 491.325 339.761 496.205 341.161 499.805C342.681 503.715 347.811 504.485 352.002 504.435C360.953 504.332 369.872 503.327 378.622 501.435C377.388 498.518 376.31 495.537 375.392 492.505C368.21 493.781 360.936 494.463 353.642 494.545V494.545Z" fill="black"/>
</g>
<path id="Vector_51" opacity="0.1" d="M387.322 450.635C388.922 452.661 390.657 444.94 389.667 443.013C389.401 443.513 387.076 450.352 387.322 450.635Z" fill="black"/>
<path id="Vector_52" opacity="0.1" d="M397.916 578.304C400.349 577.365 402.933 576.426 404.522 574.173C405.835 572.361 406.914 565.169 404.137 568.615C401.779 571.553 400.667 575.468 397.916 578.304Z" fill="black"/>
<path id="Vector_53" opacity="0.1" d="M425.67 571.112C425.309 573.591 424.638 576.165 422.915 577.95C422.595 578.287 421.883 578.497 421.79 578.045C423.715 577.002 425.504 575.717 427.115 574.221C430.603 570.702 431.078 562.035 425.763 559.734C425.712 563.537 426.238 567.288 425.67 571.112Z" fill="black"/>
<path id="Vector_54" d="M461.582 556.671C461.582 556.671 434.29 545.392 424.423 546.555C414.556 547.718 435.598 564.076 435.598 564.076L448.176 572.998C448.176 572.998 455.869 569.964 456.379 569.731C456.889 569.498 461.582 556.671 461.582 556.671Z" fill="#454B69"/>
<path id="Vector_55" d="M267.93 437.094C267.93 437.094 289.051 424.758 316.928 440.089C344.805 455.419 349.451 545.638 349.451 545.638C349.451 545.638 338.048 637.564 382.013 617.123C382.013 617.123 462.256 592.02 470.29 597.55C470.29 597.55 477.898 597.55 462.692 600.953C447.485 604.357 388.77 623.081 388.77 623.081C388.77 623.081 369.779 629.769 361.735 623.081C353.691 616.394 330.896 623.94 327.934 577.967C325.974 548.996 322.448 520.155 317.374 491.571L309.537 468.165L267.93 437.094Z" fill="#565661"/>
<path id="Vector_56" d="M265.359 579.708C265.359 579.708 274.568 486.812 259.469 453.297C246.333 424.089 297.129 437.747 310.383 441.727C312.434 442.348 314.223 443.643 315.468 445.408C323.322 456.599 351.499 501.456 343.193 561.473C343.193 561.473 339.845 614.925 360.776 623.401L296.285 602.351C291.052 600.64 285.741 599.217 280.38 597.983C273.547 596.412 262.414 591.945 265.359 579.708Z" fill="white"/>
<path id="Vector_57" d="M666.312 411.179C666.312 411.179 661.456 432.528 683.071 435.054L684.415 432.688C684.415 432.688 667.656 417.82 666.312 411.179Z" fill="#F7921D"/>
<path id="Vector_58" d="M689.72 433.903L685.458 434.94L685.037 435.054C685.037 435.054 673.661 424.385 673.805 400.568C675.316 404.073 677.119 407.4 679.187 410.501C683.745 417.438 688.868 426.593 689.72 433.903Z" fill="#F7921D"/>
<path id="Vector_59" d="M691.241 434.578C690.926 434.819 690.57 434.973 690.199 435.03C689.828 435.086 689.45 435.044 689.094 434.906C678.863 432.076 682.327 392.61 682.327 392.61C682.889 392.918 683.509 397.933 685.857 404.418C689.992 415.809 694.537 431.718 691.241 434.578Z" fill="#F7921D"/>
<path id="Vector_60" d="M718.897 411.179C718.897 411.179 719.699 432.528 698.958 435.054L697.679 432.688C697.679 432.688 717.607 417.82 718.897 411.179Z" fill="#F7921D"/>
<path id="Vector_61" d="M713.594 400.568C713.752 424.385 697.53 435.054 697.53 435.054L697.065 434.94L692.373 433.903C693.301 426.593 698.952 417.396 703.902 410.512C706.695 406.758 709.955 403.414 713.594 400.568Z" fill="#F7921D"/>
<path id="Vector_62" d="M697.406 432.53C696.662 433.416 695.723 434.123 694.658 434.596C694.334 434.74 693.996 434.85 693.649 434.924C690.619 435.619 689.609 433.473 689.73 429.817C690.013 423.31 694.174 412.033 697.9 403.598C700.587 397.518 704.97 392.908 705.637 392.61C705.637 392.62 705.455 423.359 697.406 432.53Z" fill="#F7921D"/>
<path id="Vector_63" d="M693.28 379.346C693.28 379.346 680.571 427.219 691.507 434.434C702.444 441.65 696.08 383.578 693.28 379.346Z" fill="#F7921D"/>
<path id="Vector_64" opacity="0.1" d="M666.312 411.179C666.312 411.179 661.456 432.528 683.071 435.054L684.415 432.688C684.415 432.688 667.656 417.82 666.312 411.179Z" fill="black"/>
<path id="Vector_65" opacity="0.1" d="M689.72 433.903L685.458 434.94L685.037 435.054C685.037 435.054 673.661 424.385 673.805 400.568C675.316 404.073 677.119 407.4 679.187 410.501C683.745 417.438 688.868 426.593 689.72 433.903Z" fill="black"/>
<path id="Vector_66" opacity="0.1" d="M691.241 434.578C690.926 434.819 690.57 434.973 690.199 435.03C689.828 435.086 689.45 435.044 689.094 434.906C678.863 432.076 682.327 392.61 682.327 392.61C682.889 392.918 683.509 397.933 685.857 404.418C689.992 415.809 694.537 431.718 691.241 434.578Z" fill="black"/>
<path id="Vector_67" opacity="0.1" d="M718.897 411.179C718.897 411.179 719.699 432.528 698.958 435.054L697.679 432.688C697.679 432.688 717.607 417.82 718.897 411.179Z" fill="black"/>
<path id="Vector_68" opacity="0.1" d="M713.594 400.568C713.752 424.385 697.53 435.054 697.53 435.054L697.065 434.94L692.373 433.903C693.301 426.593 698.952 417.396 703.902 410.512C706.695 406.758 709.955 403.414 713.594 400.568Z" fill="black"/>
<path id="Vector_69" opacity="0.1" d="M697.406 432.53C696.662 433.416 695.723 434.123 694.658 434.596C694.334 434.74 693.996 434.85 693.649 434.924C690.619 435.619 689.609 433.473 689.73 429.817C690.013 423.31 694.174 412.033 697.9 403.598C700.587 397.518 704.97 392.908 705.637 392.61C705.637 392.62 705.455 423.359 697.406 432.53Z" fill="black"/>
<path id="Vector_70" opacity="0.1" d="M693.28 379.346C693.28 379.346 680.571 427.219 691.507 434.434C702.444 441.65 696.08 383.578 693.28 379.346Z" fill="black"/>
<path id="Vector_71" d="M665.975 411.179C665.975 411.179 662.991 432.528 685.659 435.054L687.068 432.688C687.068 432.688 667.385 417.82 665.975 411.179Z" fill="#F7921D"/>
<path id="Vector_72" d="M692.373 433.903L687.882 434.94L687.438 435.054C687.438 435.054 673.653 424.385 673.804 400.568C673.804 400.568 677.34 404.716 681.321 410.501C686.076 417.438 691.474 426.593 692.373 433.903Z" fill="#F7921D"/>
<path id="Vector_73" opacity="0.1" d="M692.373 434.041L688.062 435.054C683.977 431.053 682.352 420.6 681.762 411.179C686.328 417.956 691.511 426.9 692.373 434.041Z" fill="black"/>
<path id="Vector_74" d="M693.774 434.578C693.42 434.819 693.019 434.973 692.6 435.03C692.182 435.086 691.757 435.044 691.356 434.906C679.83 432.076 681.908 392.61 681.908 392.61C682.541 392.918 685.035 397.933 687.681 404.418C692.338 415.809 697.44 431.718 693.774 434.578Z" fill="#F7921D"/>
<path id="Vector_75" d="M718.787 411.179C718.787 411.179 721.4 432.528 701.555 435.054L700.332 432.688C700.332 432.688 717.554 417.82 718.787 411.179Z" fill="#F7921D"/>
<path id="Vector_76" d="M713.593 400.568C713.766 424.416 698.016 435.054 698.016 435.054L697.507 434.94L692.373 433.903C693.389 426.593 699.572 417.396 704.988 410.512C709.561 404.716 713.593 400.568 713.593 400.568Z" fill="#F7921D"/>
<path id="Vector_77" opacity="0.1" d="M705.636 411.179C704.94 419.961 703.137 429.635 698.788 434.163C698.48 434.48 698.148 434.778 697.795 435.054L692.373 434.041C693.388 426.89 699.918 417.946 705.636 411.179Z" fill="black"/>
<path id="Vector_78" d="M698.366 432.53C697.531 433.416 696.475 434.123 695.279 434.596C694.915 434.74 694.534 434.85 694.144 434.924C690.739 435.619 689.547 433.473 689.74 429.817C690.058 423.31 694.734 412.033 698.922 403.598C701.941 397.518 704.733 392.908 705.459 392.61C705.459 392.62 707.412 423.359 698.366 432.53Z" fill="#F7921D"/>
<path id="Vector_79" opacity="0.1" d="M693.779 435.054C693.129 435.052 692.495 434.844 691.965 434.459C686.567 431.028 686.463 418.125 687.742 405.874C692.35 416.895 697.428 432.287 693.779 435.054Z" fill="black"/>
<path id="Vector_80" opacity="0.1" d="M698.498 432.924C697.735 434.372 696.706 435.147 695.352 435.045C694.678 434.962 694.034 434.746 693.467 434.413C691.743 433.368 690.433 431.874 689.72 430.139C690.044 423.458 694.809 411.881 699.076 403.221C700.591 415.257 701.1 427.997 698.498 432.924Z" fill="black"/>
<path id="Vector_81" d="M692.024 379.346C692.024 379.346 680.871 427.219 692.024 434.434C703.177 441.65 694.879 383.578 692.024 379.346Z" fill="#F7921D"/>
<path id="Vector_82" d="M710.942 437.707L710.156 441.682L707.298 456.277H680.1L677.242 441.682L676.456 437.707H710.942Z" fill="#565661"/>
<path id="Vector_83" opacity="0.1" d="M710.942 437.707L710.156 443.013H677.242L676.456 437.707H710.942Z" fill="black"/>
<path id="Vector_84" d="M716.248 432.401H668.498V440.36H716.248V432.401Z" fill="#565661"/>
<path id="Vector_85" d="M553.29 448.81L526.412 450.971L488.11 448.478L488.774 448.418L524.25 445C532.375 441.984 526.744 424.443 526.744 424.443L553.894 425.83L556.056 425.941C565.719 448.478 553.29 448.81 553.29 448.81Z" fill="#D1D9EC"/>
<path id="Vector_86" opacity="0.1" d="M553.28 448.69L526.406 450.971L488.11 448.34L488.773 448.277L527.481 449.74L553.421 446.77C560.78 444.723 556.568 431.242 553.913 424.443L556.075 424.56C565.707 448.34 553.28 448.69 553.28 448.69Z" fill="black"/>
<path id="Vector_87" d="M599.474 289.676L591.248 405.709L590.17 420.947C590.05 422.624 589.285 424.194 588.03 425.336C586.775 426.478 585.124 427.107 583.414 427.096H580.917L457.073 426.353C456.59 426.35 456.113 426.248 455.673 426.053C455.232 425.858 454.838 425.575 454.514 425.222C454.191 424.869 453.947 424.453 453.796 424.002C453.646 423.551 453.592 423.073 453.64 422.6L454.707 412.313L463.417 328.093C463.555 326.76 464.077 325.494 464.92 324.442C465.764 323.39 466.894 322.596 468.179 322.152L586.213 281.963C590.241 280.596 594.268 281.081 596.876 283.171C597.82 283.961 598.551 284.968 599.004 286.103C599.457 287.238 599.619 288.465 599.474 289.676Z" fill="#4C4C56"/>
<path id="Vector_88" d="M591.567 405.874L590.487 420.995C590.367 422.659 589.599 424.216 588.342 425.35C587.084 426.483 585.429 427.108 583.716 427.096H581.213L457.081 426.359C456.597 426.356 456.119 426.254 455.677 426.061C455.236 425.868 454.84 425.587 454.516 425.237C454.193 424.886 453.947 424.474 453.796 424.026C453.646 423.578 453.592 423.104 453.64 422.635L454.71 412.427L591.567 405.874Z" fill="#DFE6F5"/>
<path id="Vector_89" d="M508.006 421.79C508.738 421.79 509.332 420.603 509.332 419.138C509.332 417.673 508.738 416.485 508.006 416.485C507.273 416.485 506.679 417.673 506.679 419.138C506.679 420.603 507.273 421.79 508.006 421.79Z" fill="white"/>
<path id="Vector_90" d="M570.346 451.717C570.346 451.717 603.653 440.462 612.634 448.651C612.634 448.651 614.099 451.132 608.059 451.717L583.653 453.49C583.653 453.49 573.613 454.349 570.346 451.717Z" fill="#D1D9EC"/>
<path id="Vector_91" d="M569.062 449.313C575.983 446.22 596.809 438.211 610.138 447.022C610.138 447.022 595.385 445.234 587.291 450.356C579.198 455.477 568.12 453.048 568.12 453.048L567.963 452.727C567.814 452.427 567.725 452.097 567.7 451.757C567.676 451.417 567.716 451.075 567.82 450.753C567.924 450.431 568.088 450.137 568.302 449.889C568.516 449.641 568.775 449.445 569.062 449.313V449.313Z" fill="#DFE6F5"/>
<path id="Vector_92" d="M599.477 290.283L590.192 420.975C590.071 422.645 589.307 424.207 588.055 425.344C586.802 426.481 585.155 427.108 583.448 427.096H580.956C582.669 425.492 584.125 423.645 585.277 421.616C585.277 421.616 594.392 290.312 595.055 287.06C595.351 285.841 595.988 284.729 596.895 283.846C597.829 284.63 598.553 285.627 599.003 286.749C599.454 287.871 599.616 289.084 599.477 290.283V290.283Z" fill="#DFE6F5"/>
<path id="Vector_93" opacity="0.1" d="M599.477 290.283L590.192 420.975C590.071 422.645 589.307 424.207 588.055 425.344C586.802 426.481 585.155 427.108 583.448 427.096H580.956C582.669 425.492 584.125 423.645 585.277 421.616C585.277 421.616 594.392 290.312 595.055 287.06C595.351 285.841 595.988 284.729 596.895 283.846C597.829 284.63 598.553 285.627 599.003 286.749C599.454 287.871 599.616 289.084 599.477 290.283V290.283Z" fill="black"/>
<path id="Vector_94" opacity="0.1" d="M148.555 745.428C202.763 745.428 246.707 738.302 246.707 729.512C246.707 720.721 202.763 713.595 148.555 713.595C94.3467 713.595 50.4023 720.721 50.4023 729.512C50.4023 738.302 94.3467 745.428 148.555 745.428Z" fill="#F7921D"/>
<path id="Vector_95" d="M151.208 429.749H145.902V570.346H151.208V429.749Z" fill="#535461"/>
<path id="Vector_96" d="M190.981 571.877L190.592 578.177L190.034 587.093L189.805 590.798L189.256 599.713L189.017 603.418L188.458 612.333L182.156 713.444C181.882 717.795 179.949 721.878 176.752 724.863C173.554 727.848 169.331 729.51 164.943 729.512H132.164C127.778 729.51 123.558 727.847 120.363 724.861C117.169 721.876 115.24 717.793 114.971 713.444L108.649 612.264L108.1 603.349L107.871 599.644L107.302 590.728L107.073 587.023L106.525 578.108L106.126 571.808C106.057 570.6 106.236 569.391 106.652 568.255C107.068 567.118 107.713 566.077 108.547 565.196C109.381 564.315 110.387 563.611 111.503 563.128C112.62 562.646 113.823 562.393 115.041 562.387H182.076C183.299 562.394 184.508 562.649 185.628 563.137C186.748 563.625 187.756 564.335 188.59 565.223C189.424 566.112 190.066 567.161 190.477 568.305C190.889 569.449 191.06 570.665 190.981 571.877Z" fill="#565661"/>
<path id="Vector_97" d="M191 578.304L190.436 586.262H106.675L106.111 578.304H191Z" fill="#9D9CB5"/>
<path id="Vector_98" d="M191 588.915L190.453 599.526H109.32L108.764 588.915H191Z" fill="#9D9CB5"/>
<path id="Vector_99" d="M188.347 602.179L187.798 612.79H109.303L108.764 602.179H188.347Z" fill="#9D9CB5"/>
<path id="Vector_100" d="M96.673 484.15C133.3 510.525 148.555 551.776 148.555 551.776C148.555 551.776 104.426 550.269 67.7884 523.893C31.1511 497.517 15.9165 456.276 15.9165 456.276C15.9165 456.276 60.0558 457.784 96.673 484.15Z" fill="#F7921D"/>
<path id="Vector_101" d="M15.9165 456.276C15.9165 456.276 61.7241 481.559 76.4183 502.528C91.1124 523.498 148.555 551.776 148.555 551.776" stroke="#535461" stroke-width="2" stroke-miterlimit="10"/>
<path id="Vector_102" d="M120.515 429.32C140.311 443.962 148.555 466.888 148.555 466.888C148.555 466.888 124.657 466.042 104.911 451.4C85.1656 436.758 76.9307 413.832 76.9307 413.832C76.9307 413.832 100.729 414.668 120.515 429.32Z" fill="#F7921D"/>
<path id="Vector_103" d="M76.9307 413.832C76.9307 413.832 101.668 427.893 109.599 439.529C117.529 451.166 148.555 466.888 148.555 466.888" stroke="#535461" stroke-width="2" stroke-miterlimit="10"/>
<path id="Vector_104" d="M178.726 465.132C156.033 490.033 151.208 522.596 151.208 522.596C151.208 522.596 183.232 514.755 205.925 489.845C228.618 464.934 233.443 432.401 233.443 432.401C233.443 432.401 201.438 440.222 178.726 465.132Z" fill="#F7921D"/>
<path id="Vector_105" d="M233.443 432.401C233.443 432.401 203.863 457.924 196.344 475.509C188.824 493.093 151.208 522.596 151.208 522.596" stroke="#535461" stroke-width="2" stroke-miterlimit="10"/>
<path id="Vector_106" d="M511.178 361.209L499.326 346.513C499.076 346.232 498.776 346.066 498.454 346.031C498.133 345.996 497.801 346.094 497.491 346.315C497.182 346.537 496.905 346.873 496.689 347.292C496.473 347.711 496.325 348.197 496.259 348.704L493.032 373.922C492.968 374.429 492.989 374.937 493.093 375.397C493.196 375.856 493.379 376.251 493.623 376.543C493.867 376.835 494.163 377.014 494.483 377.061C494.803 377.109 495.136 377.023 495.448 376.814L510.526 366.303C510.845 366.085 511.131 365.746 511.354 365.32C511.577 364.893 511.73 364.395 511.796 363.877C511.863 363.358 511.84 362.838 511.732 362.369C511.623 361.9 511.432 361.5 511.178 361.209V361.209ZM521.059 364.693C521.82 358.747 521.447 352.792 519.987 347.581C518.528 342.369 516.047 338.135 512.859 335.415C509.671 332.694 505.918 331.609 502.076 332.296C498.234 332.983 494.475 335.412 491.274 339.276C488.073 343.139 485.574 348.264 484.093 354.001C482.612 359.739 482.215 365.832 482.953 371.509C483.692 377.187 485.531 382.194 488.24 385.898C490.948 389.602 494.404 391.837 498.17 392.319C503.22 392.965 508.469 390.418 512.761 385.237C517.054 380.056 520.039 372.666 521.059 364.693V364.693ZM486.662 360.291C487.276 355.496 488.777 350.924 490.974 347.154C493.171 343.383 495.967 340.583 499.008 339.107C502.049 337.631 505.197 337.546 508.056 338.863C510.915 340.179 513.356 342.838 515.069 346.504C516.783 350.169 517.692 354.676 517.683 359.454C517.674 364.233 516.746 369.068 515.017 373.349C513.288 377.63 510.835 381.164 507.969 383.505C505.103 385.846 501.952 386.888 498.915 386.499C496.898 386.242 494.982 385.36 493.274 383.903C491.567 382.447 490.103 380.444 488.965 378.01C487.827 375.577 487.038 372.759 486.643 369.719C486.248 366.678 486.255 363.475 486.662 360.291V360.291Z" fill="#F7921D"/>
</g>
<defs>
<linearGradient id="paint0_linear" x1="1640.5" y1="2104.1" x2="1646.65" y2="2104.1" gradientUnits="userSpaceOnUse">
<stop stop-color="#808080" stop-opacity="0.25"/>
<stop offset="0.54" stop-color="#808080" stop-opacity="0.12"/>
<stop offset="1" stop-color="#808080" stop-opacity="0.1"/>
</linearGradient>
</defs>
</svg>
