<svg width="1136" height="815" viewBox="0 0 1136 815" fill="none" xmlns="http://www.w3.org/2000/svg">
<g id="signup">
<g id="undraw_Outer_space_drqu 1" clip-path="url(#clip0)">
<path id="Vector" opacity="0.2" d="M991 708.826C981.777 709.619 972.498 709.495 963.3 708.455C862.18 697.268 724.48 700.45 612.23 770.046C456.99 866.279 213.7 783.895 106.38 739.075C24.3803 704.843 -18.1897 620.998 7.38028 542.296C7.74028 541.186 8.11028 540.075 8.50028 538.964C24.5903 492.193 56.3503 455.589 95.6803 436.187C129.96 419.275 180.01 383.962 202.28 316.108C211.48 288.089 224.1 261.732 240.49 238.757C284.38 177.226 376.26 85.5963 534.28 86.1667C561.986 86.301 589.484 90.9585 615.69 99.9557C673.42 119.639 725.56 159.655 765.32 215.131C790.69 250.515 828.71 283.406 883.14 286.088C958.68 289.83 1030.77 325.024 1084.85 387.655C1086.41 389.456 1087.95 391.267 1089.49 393.098C1185.78 507.884 1118.9 697.638 991 708.826Z" fill="#004AAA"/>
<g id="Group" opacity="0.7">
<path id="Vector_2" opacity="0.7" d="M277.46 697.568C285.082 697.568 291.26 691.386 291.26 683.759C291.26 676.133 285.082 669.95 277.46 669.95C269.839 669.95 263.66 676.133 263.66 683.759C263.66 691.386 269.839 697.568 277.46 697.568Z" fill="url(#paint0_linear)"/>
</g>
<path id="Vector_3" opacity="0.2" d="M277.46 696.948C284.739 696.948 290.64 691.043 290.64 683.759C290.64 676.475 284.739 670.571 277.46 670.571C270.181 670.571 264.28 676.475 264.28 683.759C264.28 691.043 270.181 696.948 277.46 696.948Z" fill="black"/>
<path id="Vector_4" d="M203.11 419.516C205.927 419.516 208.21 417.231 208.21 414.412C208.21 411.594 205.927 409.309 203.11 409.309C200.294 409.309 198.01 411.594 198.01 414.412C198.01 417.231 200.294 419.516 203.11 419.516Z" fill="white"/>
<path id="Vector_5" d="M567.11 715.71C569.927 715.71 572.21 713.425 572.21 710.607C572.21 707.788 569.927 705.503 567.11 705.503C564.294 705.503 562.01 707.788 562.01 710.607C562.01 713.425 564.294 715.71 567.11 715.71Z" fill="white"/>
<path id="Vector_6" d="M352.11 739.476C353.684 739.476 354.96 738.199 354.96 736.624C354.96 735.049 353.684 733.772 352.11 733.772C350.536 733.772 349.26 735.049 349.26 736.624C349.26 738.199 350.536 739.476 352.11 739.476Z" fill="white"/>
<path id="Vector_7" d="M983.11 601.385C984.684 601.385 985.96 600.108 985.96 598.533C985.96 596.958 984.684 595.681 983.11 595.681C981.536 595.681 980.26 596.958 980.26 598.533C980.26 600.108 981.536 601.385 983.11 601.385Z" fill="white"/>
<path id="Vector_8" d="M820.11 345.217C821.684 345.217 822.96 343.94 822.96 342.365C822.96 340.79 821.684 339.513 820.11 339.513C818.536 339.513 817.26 340.79 817.26 342.365C817.26 343.94 818.536 345.217 820.11 345.217Z" fill="white"/>
<path id="Vector_9" d="M1051.11 470.299C1052.68 470.299 1053.96 469.022 1053.96 467.447C1053.96 465.872 1052.68 464.595 1051.11 464.595C1049.54 464.595 1048.26 465.872 1048.26 467.447C1048.26 469.022 1049.54 470.299 1051.11 470.299Z" fill="white"/>
<path id="Vector_10" d="M293.11 252.406C295.927 252.406 298.21 250.121 298.21 247.302C298.21 244.484 295.927 242.199 293.11 242.199C290.294 242.199 288.01 244.484 288.01 247.302C288.01 250.121 290.294 252.406 293.11 252.406Z" fill="white"/>
<path id="Vector_11" d="M152.94 592.599H148.4V588.056H146.55V592.599H142.01V594.451H146.55V598.984H148.4V594.451H152.94V592.599Z" fill="white"/>
<path id="Vector_12" d="M266.94 590.598H262.4V586.055H260.55V590.598H256.01V592.449H260.55V596.982H262.4V592.449H266.94V590.598Z" fill="white"/>
<path id="Vector_13" d="M429.94 682.659H425.4V678.115H423.55V682.659H419.01V684.51H423.55V689.043H425.4V684.51H429.94V682.659Z" fill="white"/>
<path id="Vector_14" d="M656.97 130.796H654.9V128.725H654.06V130.796H651.99V131.636H654.06V133.708H654.9V131.636H656.97V130.796Z" fill="white"/>
<path id="Vector_15" d="M951.97 320.921H949.9V318.849H949.06V320.921H946.99V321.761H949.06V323.833H949.9V321.761H951.97V320.921Z" fill="white"/>
<path id="Vector_16" d="M777.97 445.002H775.9V442.931H775.06V445.002H772.99V445.843H775.06V447.914H775.9V445.843H777.97V445.002Z" fill="white"/>
<path id="Vector_17" d="M69.9698 523.054H67.8998V520.982H67.0597V523.054H64.9897V523.894H67.0597V525.966H67.8998V523.894H69.9698V523.054Z" fill="white"/>
<path id="Vector_18" d="M154.97 693.165H152.9V691.094H152.06V693.165H149.99V694.006H152.06V696.077H152.9V694.006H154.97V693.165Z" fill="white"/>
<path id="Vector_19" d="M421.97 155.812H419.9V153.741H419.06V155.812H416.99V156.653H419.06V158.724H419.9V156.653H421.97V155.812Z" fill="white"/>
<path id="Vector_20" d="M295.97 455.009H293.9V452.938H293.06V455.009H290.99V455.849H293.06V457.921H293.9V455.849H295.97V455.009Z" fill="white"/>
<path id="Vector_21" d="M322.97 368.952H320.9V366.881H320.06V368.952H317.99V369.793H320.06V371.864H320.9V369.793H322.97V368.952Z" fill="white"/>
<g id="Group_2" opacity="0.7">
<path id="Vector_22" opacity="0.7" d="M748.15 567.543C754.513 567.543 759.67 562.382 759.67 556.015C759.67 549.649 754.513 544.488 748.15 544.488C741.788 544.488 736.63 549.649 736.63 556.015C736.63 562.382 741.788 567.543 748.15 567.543Z" fill="url(#paint1_linear)"/>
</g>
<path id="Vector_23" opacity="0.2" d="M748.15 566.692C754.043 566.692 758.82 561.912 758.82 556.015C758.82 550.119 754.043 545.338 748.15 545.338C742.257 545.338 737.48 550.119 737.48 556.015C737.48 561.912 742.257 566.692 748.15 566.692Z" fill="black"/>
<path id="Vector_24" opacity="0.2" d="M776.88 643.112C783.469 643.112 788.81 637.768 788.81 631.175C788.81 624.582 783.469 619.237 776.88 619.237C770.291 619.237 764.95 624.582 764.95 631.175C764.95 637.768 770.291 643.112 776.88 643.112Z" fill="black"/>
<g id="Group_3" opacity="0.7">
<path id="Vector_25" opacity="0.7" d="M669.97 307.232C670.052 282.152 664.047 257.428 652.47 235.184C646.98 224.738 641.97 218.253 638.11 214.261C636.635 212.702 634.71 211.646 632.603 211.24C630.497 210.834 628.317 211.1 626.37 211.999C624.813 212.552 623.405 213.46 622.26 214.651C617.05 220.055 612.34 227.199 608.26 234.794C596.087 257.568 589.774 283.017 589.89 308.843V324.333H579.96V144.205C579.96 106.46 571.52 69.2254 554.96 36.2038C547.12 20.5535 539.96 10.8271 534.47 4.85317C533.137 3.33285 531.495 2.11472 529.654 1.28019C527.814 0.44567 525.816 0.0139771 523.795 0.0139771C521.774 0.0139771 519.776 0.44567 517.935 1.28019C516.094 2.11472 514.453 3.33285 513.12 4.85317C505.68 12.9485 498.96 23.6555 493.12 35.033C475.73 68.7752 466.9 107.08 466.9 145.926V324.263H458.32V308.022C458.429 282.213 452.116 256.782 439.95 234.024C435.84 226.429 431.13 219.284 425.95 213.88C424.445 212.281 422.468 211.207 420.308 210.814C418.149 210.422 415.92 210.732 413.95 211.699L414.31 211.889C413.054 212.448 411.917 213.243 410.96 214.231C407.11 218.233 402.1 224.708 396.61 235.154C385.033 257.398 379.027 282.122 379.11 307.202V576.379H409.75L406.37 598.503V664.677H431.43V598.503L428.08 576.369H458.28V331.208H466.86V575.308H491.33L487.82 598.503V664.677H512.88V598.503L509.37 575.278H542.37L538.84 598.503V664.677H563.9V598.503L560.39 575.278H579.93V331.238H589.86V576.769H597.91V576.399H624.53L621.19 598.503V664.677H646.25V598.503L642.9 576.369H669.97V307.232Z" fill="url(#paint2_linear)"/>
</g>
<path id="Vector_26" d="M436.4 585.635H412.67L416.91 556.806H432.16L436.4 585.635Z" fill="#535461"/>
<g id="Group_4" opacity="0.1">
<path id="Vector_27" opacity="0.1" d="M415.73 568.253H433.34L432.16 560.198H416.91L415.73 568.253Z" fill="black"/>
</g>
<path id="Vector_28" d="M639.75 585.635H616.03L620.26 556.806H635.52L639.75 585.635Z" fill="#535461"/>
<g id="Group_5" opacity="0.1">
<path id="Vector_29" opacity="0.1" d="M619.08 568.253H636.7L635.52 560.198H620.26L619.08 568.253Z" fill="black"/>
</g>
<path id="Vector_30" d="M513.5 585.635H489.78L494.01 556.806H509.27L513.5 585.635Z" fill="#535461"/>
<g id="Group_6" opacity="0.1">
<path id="Vector_31" opacity="0.1" d="M492.83 568.253H510.45L509.27 560.198H494.01L492.83 568.253Z" fill="black"/>
</g>
<path id="Vector_32" d="M561.8 585.635H538.08L542.31 556.806H557.56L561.8 585.635Z" fill="#535461"/>
<g id="Group_7" opacity="0.1">
<path id="Vector_33" opacity="0.1" d="M541.13 568.253H558.75L557.56 560.198H542.31L541.13 568.253Z" fill="black"/>
</g>
<path id="Vector_34" d="M605.86 318.559H436.4V325.344H605.86V318.559Z" fill="#535461"/>
<path id="Vector_35" d="M632.05 211.409C631.155 210.419 630.063 209.628 628.843 209.087C627.624 208.546 626.304 208.266 624.97 208.266C623.636 208.266 622.317 208.546 621.098 209.087C619.878 209.628 618.786 210.419 617.89 211.409C612.96 216.672 608.5 223.627 604.61 231.022C593.072 253.275 587.104 277.999 587.22 303.069V564.081H662.22V301.968C662.314 277.592 656.636 253.54 645.65 231.782C640.44 221.616 635.7 215.251 632.05 211.409Z" fill="#E0E0E0"/>
<path id="Vector_36" d="M416.98 211.409C417.875 210.419 418.968 209.628 420.187 209.087C421.407 208.546 422.726 208.266 424.06 208.266C425.394 208.266 426.713 208.546 427.933 209.087C429.152 209.628 430.245 210.419 431.14 211.409C436.08 216.672 440.53 223.627 444.43 231.022C455.964 253.277 461.932 277.999 461.82 303.069V564.081H386.82V301.968C386.726 277.592 392.404 253.54 403.39 231.782C408.59 221.616 413.33 215.251 416.98 211.409Z" fill="#E0E0E0"/>
<path id="Vector_37" d="M387.25 307.532L405.05 307.622V329.577H387.25V307.532Z" fill="#535461"/>
<path id="Vector_38" d="M444.02 307.532L461.82 307.622V329.577H444.02V307.532Z" fill="#535461"/>
<path id="Vector_39" d="M587.22 307.532L605.01 307.622V329.577H587.22V307.532Z" fill="#535461"/>
<path id="Vector_40" d="M643.99 307.532L661.78 307.622V329.577H643.99V307.532Z" fill="#535461"/>
<g id="Group_8" opacity="0.1">
<path id="Vector_41" opacity="0.1" d="M444.43 230.682C440.53 223.287 436.08 216.332 431.14 211.069C429.745 209.521 427.881 208.474 425.835 208.089C423.788 207.704 421.671 208.002 419.81 208.937C420.882 209.473 421.85 210.194 422.67 211.069C427.6 216.332 432.06 223.287 435.95 230.682C447.49 252.935 453.457 277.659 453.34 302.729V563.72H461.82V302.739C461.934 277.666 455.966 252.939 444.43 230.682V230.682Z" fill="black"/>
</g>
<g id="Group_9" opacity="0.1">
<path id="Vector_42" opacity="0.1" d="M611.39 231.402C615.28 224.007 619.74 217.053 624.67 211.789C625.591 210.792 626.708 209.995 627.95 209.448C626.117 208.645 624.078 208.439 622.122 208.859C620.166 209.28 618.392 210.304 617.05 211.789C612.11 217.053 607.65 224.007 603.76 231.402C592.225 253.657 586.258 278.38 586.37 303.449V564.481H594V303.469C593.88 278.392 599.848 253.661 611.39 231.402V231.402Z" fill="black"/>
</g>
<path id="Vector_43" d="M424.86 650.077H424.21C421.149 650.077 418.214 648.861 416.05 646.695C413.886 644.529 412.67 641.592 412.67 638.53V585.635H436.4V638.53C436.4 641.592 435.184 644.529 433.02 646.695C430.856 648.861 427.921 650.077 424.86 650.077Z" fill="url(#paint3_linear)"/>
<path id="Vector_44" d="M501.97 650.077H501.31C498.251 650.074 495.319 648.857 493.157 646.691C490.995 644.526 489.78 641.59 489.78 638.53V585.635H513.5V638.53C513.5 641.59 512.286 644.526 510.124 646.691C507.962 648.857 505.029 650.074 501.97 650.077Z" fill="url(#paint4_linear)"/>
<path id="Vector_45" d="M550.26 650.077H549.59C546.535 650.069 543.607 648.849 541.449 646.684C539.292 644.52 538.08 641.587 538.08 638.53V585.635H561.8V638.53C561.8 641.592 560.584 644.529 558.42 646.695C556.256 648.861 553.321 650.077 550.26 650.077Z" fill="url(#paint5_linear)"/>
<path id="Vector_46" d="M628.22 650.077H627.59C626.073 650.08 624.57 649.783 623.167 649.204C621.765 648.625 620.491 647.775 619.417 646.702C618.343 645.629 617.491 644.356 616.91 642.953C616.329 641.551 616.03 640.048 616.03 638.53V585.635H639.75V638.53C639.75 641.59 638.535 644.526 636.373 646.691C634.211 648.857 631.279 650.074 628.22 650.077Z" fill="url(#paint6_linear)"/>
<path id="Vector_47" d="M533.93 6.75441C532.691 5.27923 531.144 4.0932 529.399 3.27951C527.653 2.46582 525.751 2.04419 523.825 2.04419C521.899 2.04419 519.997 2.46582 518.251 3.27951C516.505 4.0932 514.959 5.27923 513.72 6.75441C506.72 14.6396 500.32 25.0564 494.72 36.1437C478.26 69.0053 469.9 106.31 469.9 144.135V563.02H576.9V142.454C576.9 105.699 568.9 69.4056 553.26 37.2845C545.91 22.0445 539.14 12.5682 533.93 6.75441Z" fill="#EEEEEE"/>
<path id="Vector_48" d="M539.63 53.285H505.79C499.715 53.285 494.79 58.2131 494.79 64.2922V67.8846C494.79 73.9637 499.715 78.8918 505.79 78.8918H539.63C545.705 78.8918 550.63 73.9637 550.63 67.8846V64.2922C550.63 58.2131 545.705 53.285 539.63 53.285Z" fill="#535461"/>
<g id="Group_10" opacity="0.1">
<path id="Vector_49" opacity="0.1" d="M576.39 158.454H470.48V162.567H576.39V158.454Z" fill="black"/>
</g>
<path id="Vector_50" d="M761.04 311.535C758.263 307.885 754.789 304.824 750.82 302.529V302.529C746.26 299.897 741.156 298.351 735.903 298.008C730.65 297.666 725.389 298.537 720.526 300.554C715.663 302.571 711.329 305.68 707.858 309.641C704.388 313.602 701.874 318.308 700.511 323.396C699.149 328.484 698.974 333.817 700 338.984C701.026 344.151 703.225 349.012 706.429 353.192C709.632 357.372 713.753 360.759 718.473 363.091C723.193 365.423 728.386 366.638 733.65 366.641C734.38 366.641 735.11 366.641 735.82 366.561C742.007 366.17 747.973 364.11 753.083 360.599C758.194 357.088 762.259 352.258 764.846 346.621C767.434 340.984 768.447 334.75 767.779 328.583C767.11 322.416 764.785 316.546 761.05 311.595L761.04 311.535Z" fill="url(#paint7_linear)"/>
<path id="Vector_51" opacity="0.2" d="M766.09 332.228C766.089 340.484 762.945 348.43 757.297 354.449C751.65 360.468 743.924 364.108 735.69 364.63C735.02 364.63 734.33 364.7 733.64 364.7C728.659 364.703 723.745 363.559 719.277 361.356C714.809 359.154 710.907 355.952 707.874 351.999C704.841 348.045 702.757 343.447 701.785 338.559C700.813 333.671 700.978 328.624 702.267 323.81C703.556 318.996 705.936 314.543 709.22 310.797C712.505 307.05 716.607 304.11 721.21 302.205C725.812 300.299 730.791 299.479 735.761 299.808C740.731 300.136 745.558 301.605 749.87 304.1V304.1C753.628 306.282 756.913 309.194 759.53 312.665V312.665C763.794 318.294 766.098 325.165 766.09 332.228Z" fill="black"/>
<path id="Vector_52" opacity="0.1" d="M725.65 311.625C723.973 312.347 722.354 313.2 720.81 314.176C719.779 314.74 718.893 315.534 718.22 316.498C717.887 316.983 717.703 317.556 717.692 318.145C717.682 318.734 717.844 319.313 718.16 319.81C718.95 320.891 720.47 321.051 721.81 321.131C723.217 321.31 724.647 321.167 725.99 320.711C726.897 320.262 727.722 319.663 728.43 318.939L731.22 316.408C732.22 315.527 733.22 314.316 732.83 313.076C732.6 312.632 732.262 312.254 731.848 311.974C731.434 311.695 730.957 311.523 730.46 311.475C728.055 311.006 725.562 311.444 723.46 312.705" fill="black"/>
<g id="Group_11" opacity="0.1">
<path id="Vector_53" opacity="0.1" d="M714 346.758C714.944 346.758 715.71 345.992 715.71 345.047C715.71 344.102 714.944 343.336 714 343.336C713.056 343.336 712.29 344.102 712.29 345.047C712.29 345.992 713.056 346.758 714 346.758Z" fill="black"/>
</g>
<g id="Group_12" opacity="0.1">
<path id="Vector_54" opacity="0.1" d="M748.72 340.484C752.177 340.484 754.98 337.679 754.98 334.22C754.98 330.76 752.177 327.955 748.72 327.955C745.263 327.955 742.46 330.76 742.46 334.22C742.46 337.679 745.263 340.484 748.72 340.484Z" fill="black"/>
</g>
<g id="Group_13" opacity="0.1">
<path id="Vector_55" opacity="0.1" d="M759.59 312.665C759.572 314.303 759.084 315.901 758.184 317.269C757.284 318.637 756.01 319.717 754.514 320.382C753.018 321.046 751.362 321.266 749.745 321.015C748.127 320.765 746.616 320.054 745.39 318.969C744.165 317.883 743.277 316.468 742.832 314.892C742.387 313.316 742.405 311.645 742.882 310.078C743.359 308.512 744.276 307.115 745.524 306.055C746.772 304.995 748.298 304.317 749.92 304.1V304.1C753.682 306.281 756.97 309.193 759.59 312.665Z" fill="black"/>
</g>
<g id="Group_14" opacity="0.1">
<path id="Vector_56" opacity="0.1" d="M760.17 350.921C757.379 354.897 753.729 358.193 749.492 360.567C745.254 362.94 740.537 364.328 735.69 364.63C735.69 364.179 735.63 363.729 735.63 363.269C735.633 360.419 736.426 357.626 737.922 355.201C739.418 352.776 741.557 350.814 744.101 349.534C746.645 348.254 749.495 347.705 752.332 347.95C755.169 348.195 757.883 349.223 760.17 350.921V350.921Z" fill="black"/>
</g>
<path id="Vector_57" d="M317.76 496.906C315.823 494.344 313.396 492.195 310.62 490.582V490.582C307.433 488.712 303.858 487.602 300.173 487.341C296.488 487.079 292.792 487.673 289.373 489.075C285.955 490.477 282.906 492.649 280.464 495.424C278.022 498.198 276.254 501.499 275.296 505.07C274.338 508.64 274.217 512.384 274.942 516.009C275.667 519.634 277.218 523.042 279.475 525.969C281.732 528.896 284.634 531.262 287.955 532.882C291.276 534.502 294.925 535.334 298.62 535.312C299.13 535.312 299.62 535.312 300.14 535.262C304.448 534.971 308.599 533.523 312.154 531.07C315.709 528.616 318.536 525.249 320.338 521.321C322.14 517.394 322.85 513.054 322.393 508.757C321.935 504.46 320.328 500.366 317.74 496.906H317.76Z" fill="url(#paint8_linear)"/>
<path id="Vector_58" opacity="0.2" d="M321.28 511.346C321.279 517.106 319.085 522.649 315.145 526.848C311.205 531.047 305.814 533.587 300.07 533.951C299.6 533.951 299.07 533.951 298.64 533.951C295.168 533.95 291.742 533.15 288.628 531.613C285.514 530.075 282.796 527.842 280.682 525.085C278.569 522.329 277.117 519.122 276.44 515.715C275.763 512.307 275.878 508.789 276.777 505.433C277.675 502.077 279.333 498.972 281.622 496.36C283.912 493.747 286.771 491.697 289.978 490.367C293.186 489.037 296.656 488.463 300.121 488.689C303.586 488.916 306.952 489.937 309.96 491.673V491.673C312.586 493.202 314.878 495.244 316.7 497.677C319.681 501.609 321.29 506.411 321.28 511.346V511.346Z" fill="black"/>
<path id="Vector_59" opacity="0.1" d="M293.06 496.976C291.891 497.475 290.764 498.067 289.69 498.748C288.975 499.147 288.356 499.701 287.88 500.369C287.658 500.713 287.54 501.115 287.54 501.525C287.54 501.934 287.658 502.336 287.88 502.68C288.212 503.008 288.611 503.26 289.05 503.419C289.488 503.578 289.956 503.64 290.42 503.601C291.403 503.728 292.402 503.629 293.34 503.311C293.976 502.996 294.554 502.577 295.05 502.07L296.99 500.309C297.67 499.688 298.41 498.848 298.11 497.987C297.957 497.672 297.724 497.403 297.435 497.206C297.145 497.01 296.809 496.892 296.46 496.866C294.787 496.538 293.051 496.845 291.59 497.727" fill="black"/>
<g id="Group_15" opacity="0.1">
<path id="Vector_60" opacity="0.1" d="M284.93 521.473C285.587 521.473 286.12 520.939 286.12 520.282C286.12 519.624 285.587 519.091 284.93 519.091C284.273 519.091 283.74 519.624 283.74 520.282C283.74 520.939 284.273 521.473 284.93 521.473Z" fill="black"/>
</g>
<g id="Group_16" opacity="0.1">
<path id="Vector_61" opacity="0.1" d="M309.16 517.11C311.574 517.11 313.53 515.152 313.53 512.737C313.53 510.322 311.574 508.364 309.16 508.364C306.747 508.364 304.79 510.322 304.79 512.737C304.79 515.152 306.747 517.11 309.16 517.11Z" fill="black"/>
</g>
<g id="Group_17" opacity="0.1">
<path id="Vector_62" opacity="0.1" d="M316.71 497.697C316.701 498.85 316.36 499.977 315.728 500.941C315.096 501.906 314.2 502.668 313.147 503.137C312.094 503.605 310.928 503.76 309.789 503.583C308.65 503.405 307.586 502.904 306.724 502.137C305.863 501.371 305.24 500.373 304.931 499.261C304.621 498.15 304.638 496.974 304.98 495.872C305.321 494.77 305.972 493.79 306.855 493.049C307.739 492.308 308.817 491.837 309.96 491.693C312.59 493.221 314.885 495.263 316.71 497.697V497.697Z" fill="black"/>
</g>
<g id="Group_18" opacity="0.1">
<path id="Vector_63" opacity="0.1" d="M317.15 524.384C315.202 527.159 312.656 529.459 309.699 531.115C306.742 532.771 303.451 533.74 300.07 533.951C300.07 533.641 300.07 533.32 300.07 532.95C300.072 530.962 300.625 529.014 301.668 527.322C302.712 525.63 304.204 524.261 305.979 523.368C307.754 522.474 309.742 522.092 311.721 522.262C313.701 522.433 315.594 523.15 317.19 524.334L317.15 524.384Z" fill="black"/>
</g>
<path id="Vector_64" d="M954.9 430.353C955.916 430.353 956.74 429.528 956.74 428.512C956.74 427.495 955.916 426.67 954.9 426.67C953.884 426.67 953.06 427.495 953.06 428.512C953.06 429.528 953.884 430.353 954.9 430.353Z" fill="white"/>
</g>
</g>
<defs>
<linearGradient id="paint0_linear" x1="277.46" y1="697.568" x2="277.46" y2="669.96" gradientUnits="userSpaceOnUse">
<stop stop-color="#808080" stop-opacity="0.25"/>
<stop offset="0.54" stop-color="#808080" stop-opacity="0.12"/>
<stop offset="1" stop-color="#808080" stop-opacity="0.1"/>
</linearGradient>
<linearGradient id="paint1_linear" x1="17974.1" y1="13620.5" x2="17974.1" y2="13089.5" gradientUnits="userSpaceOnUse">
<stop stop-color="#808080" stop-opacity="0.25"/>
<stop offset="0.54" stop-color="#808080" stop-opacity="0.12"/>
<stop offset="1" stop-color="#808080" stop-opacity="0.1"/>
</linearGradient>
<linearGradient id="paint2_linear" x1="162369" y1="470023" x2="162369" y2="28507.4" gradientUnits="userSpaceOnUse">
<stop stop-color="#808080" stop-opacity="0.25"/>
<stop offset="0.54" stop-color="#808080" stop-opacity="0.12"/>
<stop offset="1" stop-color="#808080" stop-opacity="0.1"/>
</linearGradient>
<linearGradient id="paint3_linear" x1="424.54" y1="585.635" x2="424.54" y2="650.077" gradientUnits="userSpaceOnUse">
<stop stop-color="#E0E0E0"/>
<stop offset="0.31" stop-color="#FCCC63"/>
<stop offset="0.77" stop-color="#F55F44"/>
</linearGradient>
<linearGradient id="paint4_linear" x1="501.645" y1="585.635" x2="501.645" y2="650.077" gradientUnits="userSpaceOnUse">
<stop stop-color="#E0E0E0"/>
<stop offset="0.31" stop-color="#FCCC63"/>
<stop offset="0.77" stop-color="#F55F44"/>
</linearGradient>
<linearGradient id="paint5_linear" x1="549.945" y1="585.635" x2="549.945" y2="650.077" gradientUnits="userSpaceOnUse">
<stop stop-color="#E0E0E0"/>
<stop offset="0.31" stop-color="#FCCC63"/>
<stop offset="0.77" stop-color="#F55F44"/>
</linearGradient>
<linearGradient id="paint6_linear" x1="627.895" y1="585.635" x2="627.895" y2="650.077" gradientUnits="userSpaceOnUse">
<stop stop-color="#E0E0E0"/>
<stop offset="0.31" stop-color="#FCCC63"/>
<stop offset="0.77" stop-color="#F55F44"/>
</linearGradient>
<linearGradient id="paint7_linear" x1="53279.2" y1="28414.2" x2="53279.2" y2="23696.9" gradientUnits="userSpaceOnUse">
<stop stop-color="#808080" stop-opacity="0.25"/>
<stop offset="0.54" stop-color="#808080" stop-opacity="0.12"/>
<stop offset="1" stop-color="#808080" stop-opacity="0.1"/>
</linearGradient>
<linearGradient id="paint8_linear" x1="16182.3" y1="28242.3" x2="16182.3" y2="25941.1" gradientUnits="userSpaceOnUse">
<stop stop-color="#808080" stop-opacity="0.25"/>
<stop offset="0.54" stop-color="#808080" stop-opacity="0.12"/>
<stop offset="1" stop-color="#808080" stop-opacity="0.1"/>
</linearGradient>
<clipPath id="clip0">
<rect width="1135.18" height="814.755" fill="white"/>
</clipPath>
</defs>
</svg>
